<svg xmlns="http://www.w3.org/2000/svg" xml:space="preserve" width="3500" height="2100" enable-background="new 0 0 3500 2100" viewBox="0 0 3500 2100" id="business-team">
  <g id="Layer_2">
    <rect width="3500" height="2100" fill="#FFF"></rect>
  </g>
  <g id="Layer_1">
    <rect width="3500" height="105.701" y="1560.325" fill="#8ECC36"></rect>
    <g opacity=".4">
      <ellipse cx="349.909" cy="1606.126" fill="#1E1F21" opacity=".01" rx="330.733" ry="40.562"></ellipse>
      <ellipse cx="349.909" cy="1606.126" fill="#1E1F21" opacity=".025" rx="326.814" ry="40.08"></ellipse>
      <ellipse cx="349.909" cy="1606.126" fill="#1E1F21" opacity=".04" rx="322.895" ry="39.601"></ellipse>
      <ellipse cx="349.909" cy="1606.126" fill="#1E1F21" opacity=".055" rx="318.976" ry="39.12"></ellipse>
      <ellipse cx="349.909" cy="1606.126" fill="#1E1F21" opacity=".07" rx="315.057" ry="38.639"></ellipse>
      <ellipse cx="349.909" cy="1606.126" fill="#1E1F21" opacity=".085" rx="311.137" ry="38.158"></ellipse>
      <ellipse cx="349.909" cy="1606.126" fill="#1E1F21" opacity=".1" rx="307.218" ry="37.678"></ellipse>
      <ellipse cx="349.908" cy="1606.126" fill="#1E1F21" opacity=".115" rx="303.299" ry="37.197"></ellipse>
      <ellipse cx="349.909" cy="1606.126" fill="#1E1F21" opacity=".13" rx="299.38" ry="36.716"></ellipse>
      <ellipse cx="349.909" cy="1606.126" fill="#1E1F21" opacity=".145" rx="295.46" ry="36.235"></ellipse>
      <ellipse cx="349.909" cy="1606.126" fill="#1E1F21" opacity=".16" rx="291.541" ry="35.755"></ellipse>
      <ellipse cx="349.909" cy="1606.126" fill="#1E1F21" opacity=".175" rx="287.622" ry="35.274"></ellipse>
      <ellipse cx="349.908" cy="1606.126" fill="#1E1F21" opacity=".19" rx="283.703" ry="34.794"></ellipse>
      <ellipse cx="349.909" cy="1606.126" fill="#1E1F21" opacity=".205" rx="279.784" ry="34.313"></ellipse>
      <ellipse cx="349.909" cy="1606.126" fill="#1E1F21" opacity=".22" rx="275.865" ry="33.832"></ellipse>
      <ellipse cx="349.908" cy="1606.126" fill="#1E1F21" opacity=".235" rx="271.946" ry="33.352"></ellipse>
      <ellipse cx="349.908" cy="1606.126" fill="#1E1F21" opacity=".25" rx="268.026" ry="32.87"></ellipse>
      <ellipse cx="349.909" cy="1606.126" fill="#1E1F21" opacity=".265" rx="264.107" ry="32.391"></ellipse>
      <ellipse cx="349.909" cy="1606.126" fill="#1E1F21" opacity=".28" rx="260.188" ry="31.91"></ellipse>
      <ellipse cx="349.909" cy="1606.126" fill="#1E1F21" opacity=".295" rx="256.269" ry="31.429"></ellipse>
      <ellipse cx="349.908" cy="1606.126" fill="#1E1F21" opacity=".31" rx="252.349" ry="30.948"></ellipse>
      <ellipse cx="349.909" cy="1606.126" fill="#1E1F21" opacity=".325" rx="248.43" ry="30.468"></ellipse>
      <ellipse cx="349.909" cy="1606.126" fill="#1E1F21" opacity=".34" rx="244.511" ry="29.987"></ellipse>
      <ellipse cx="349.909" cy="1606.126" fill="#1E1F21" opacity=".355" rx="240.592" ry="29.507"></ellipse>
      <ellipse cx="349.908" cy="1606.126" fill="#1E1F21" opacity=".37" rx="236.673" ry="29.026"></ellipse>
      <ellipse cx="349.909" cy="1606.126" fill="#1E1F21" opacity=".385" rx="232.753" ry="28.545"></ellipse>
      <ellipse cx="349.909" cy="1606.126" fill="#1E1F21" opacity=".4" rx="228.834" ry="28.064"></ellipse>
      <ellipse cx="349.909" cy="1606.126" fill="#1E1F21" opacity=".415" rx="224.916" ry="27.583"></ellipse>
      <ellipse cx="349.908" cy="1606.126" fill="#1E1F21" opacity=".43" rx="220.996" ry="27.103"></ellipse>
      <ellipse cx="349.909" cy="1606.126" fill="#1E1F21" opacity=".445" rx="217.077" ry="26.622"></ellipse>
      <ellipse cx="349.909" cy="1606.126" fill="#1E1F21" opacity=".46" rx="213.158" ry="26.142"></ellipse>
      <ellipse cx="349.908" cy="1606.126" fill="#1E1F21" opacity=".475" rx="209.239" ry="25.661"></ellipse>
      <ellipse cx="349.908" cy="1606.126" fill="#1E1F21" opacity=".49" rx="205.319" ry="25.181"></ellipse>
      <ellipse cx="349.909" cy="1606.126" fill="#1E1F21" opacity=".505" rx="201.4" ry="24.7"></ellipse>
      <ellipse cx="349.909" cy="1606.126" fill="#1E1F21" opacity=".52" rx="197.481" ry="24.22"></ellipse>
      <ellipse cx="349.908" cy="1606.126" fill="#1E1F21" opacity=".535" rx="193.562" ry="23.738"></ellipse>
      <ellipse cx="349.908" cy="1606.126" fill="#1E1F21" opacity=".55" rx="189.642" ry="23.258"></ellipse>
      <ellipse cx="349.909" cy="1606.126" fill="#1E1F21" opacity=".565" rx="185.723" ry="22.776"></ellipse>
      <ellipse cx="349.909" cy="1606.126" fill="#1E1F21" opacity=".58" rx="181.804" ry="22.296"></ellipse>
      <ellipse cx="349.909" cy="1606.126" fill="#1E1F21" opacity=".595" rx="177.885" ry="21.815"></ellipse>
      <ellipse cx="349.909" cy="1606.126" fill="#1E1F21" opacity=".61" rx="173.966" ry="21.335"></ellipse>
      <ellipse cx="349.909" cy="1606.126" fill="#1E1F21" opacity=".625" rx="170.046" ry="20.854"></ellipse>
      <ellipse cx="349.909" cy="1606.126" fill="#1E1F21" opacity=".64" rx="166.127" ry="20.374"></ellipse>
      <ellipse cx="349.909" cy="1606.126" fill="#1E1F21" opacity=".655" rx="162.208" ry="19.894"></ellipse>
      <ellipse cx="349.909" cy="1606.126" fill="#1E1F21" opacity=".67" rx="158.289" ry="19.412"></ellipse>
      <ellipse cx="349.909" cy="1606.126" fill="#1E1F21" opacity=".685" rx="154.37" ry="18.932"></ellipse>
      <ellipse cx="349.909" cy="1606.126" fill="#1E1F21" opacity=".7" rx="150.451" ry="18.451"></ellipse>
      <ellipse cx="349.909" cy="1606.126" fill="#1E1F21" opacity=".715" rx="146.531" ry="17.971"></ellipse>
      <ellipse cx="349.909" cy="1606.126" fill="#1E1F21" opacity=".73" rx="142.612" ry="17.489"></ellipse>
      <ellipse cx="349.909" cy="1606.126" fill="#1E1F21" opacity=".745" rx="138.693" ry="17.009"></ellipse>
      <ellipse cx="349.909" cy="1606.126" fill="#1E1F21" opacity=".76" rx="134.774" ry="16.528"></ellipse>
      <ellipse cx="349.909" cy="1606.126" fill="#1E1F21" opacity=".775" rx="130.855" ry="16.048"></ellipse>
      <ellipse cx="349.909" cy="1606.126" fill="#1E1F21" opacity=".79" rx="126.936" ry="15.567"></ellipse>
      <ellipse cx="349.909" cy="1606.126" fill="#1E1F21" opacity=".805" rx="123.016" ry="15.087"></ellipse>
      <ellipse cx="349.909" cy="1606.126" fill="#1E1F21" opacity=".82" rx="119.097" ry="14.606"></ellipse>
      <ellipse cx="349.909" cy="1606.126" fill="#1E1F21" opacity=".835" rx="115.178" ry="14.125"></ellipse>
      <ellipse cx="349.909" cy="1606.126" fill="#1E1F21" opacity=".85" rx="111.259" ry="13.645"></ellipse>
      <ellipse cx="349.909" cy="1606.126" fill="#1E1F21" opacity=".865" rx="107.339" ry="13.163"></ellipse>
      <ellipse cx="349.909" cy="1606.126" fill="#1E1F21" opacity=".88" rx="103.42" ry="12.683"></ellipse>
      <ellipse cx="349.909" cy="1606.126" fill="#1E1F21" opacity=".895" rx="99.501" ry="12.202"></ellipse>
      <ellipse cx="349.909" cy="1606.126" fill="#1E1F21" opacity=".91" rx="95.582" ry="11.722"></ellipse>
      <ellipse cx="349.909" cy="1606.126" fill="#1E1F21" opacity=".925" rx="91.663" ry="11.241"></ellipse>
      <ellipse cx="349.909" cy="1606.126" fill="#1E1F21" opacity=".94" rx="87.744" ry="10.761"></ellipse>
      <ellipse cx="349.909" cy="1606.126" fill="#1E1F21" opacity=".955" rx="83.824" ry="10.28"></ellipse>
      <ellipse cx="349.909" cy="1606.126" fill="#1E1F21" opacity=".97" rx="79.905" ry="9.799"></ellipse>
      <ellipse cx="349.909" cy="1606.126" fill="#1E1F21" opacity=".985" rx="75.986" ry="9.318"></ellipse>
      <ellipse cx="349.909" cy="1606.126" fill="#1E1F21" rx="72.067" ry="8.838"></ellipse>
    </g>
    <g opacity=".4">
      <ellipse cx="1653.654" cy="1606.126" fill="#1E1F21" opacity=".01" rx="218.261" ry="45.874"></ellipse>
      <ellipse cx="1653.655" cy="1606.126" fill="#1E1F21" opacity=".025" rx="215.675" ry="45.33"></ellipse>
      <ellipse cx="1653.654" cy="1606.126" fill="#1E1F21" opacity=".04" rx="213.088" ry="44.786"></ellipse>
      <ellipse cx="1653.655" cy="1606.126" fill="#1E1F21" opacity=".055" rx="210.501" ry="44.243"></ellipse>
      <ellipse cx="1653.654" cy="1606.126" fill="#1E1F21" opacity=".07" rx="207.915" ry="43.7"></ellipse>
      <ellipse cx="1653.655" cy="1606.126" fill="#1E1F21" opacity=".085" rx="205.329" ry="43.156"></ellipse>
      <ellipse cx="1653.654" cy="1606.126" fill="#1E1F21" opacity=".1" rx="202.742" ry="42.612"></ellipse>
      <ellipse cx="1653.654" cy="1606.126" fill="#1E1F21" opacity=".115" rx="200.156" ry="42.068"></ellipse>
      <ellipse cx="1653.654" cy="1606.126" fill="#1E1F21" opacity=".13" rx="197.57" ry="41.524"></ellipse>
      <ellipse cx="1653.655" cy="1606.126" fill="#1E1F21" opacity=".145" rx="194.983" ry="40.981"></ellipse>
      <ellipse cx="1653.655" cy="1606.126" fill="#1E1F21" opacity=".16" rx="192.397" ry="40.438"></ellipse>
      <ellipse cx="1653.654" cy="1606.126" fill="#1E1F21" opacity=".175" rx="189.811" ry="39.895"></ellipse>
      <ellipse cx="1653.654" cy="1606.126" fill="#1E1F21" opacity=".19" rx="187.224" ry="39.351"></ellipse>
      <ellipse cx="1653.654" cy="1606.126" fill="#1E1F21" opacity=".205" rx="184.638" ry="38.807"></ellipse>
      <ellipse cx="1653.654" cy="1606.126" fill="#1E1F21" opacity=".22" rx="182.051" ry="38.264"></ellipse>
      <ellipse cx="1653.654" cy="1606.126" fill="#1E1F21" opacity=".235" rx="179.465" ry="37.72"></ellipse>
      <ellipse cx="1653.654" cy="1606.126" fill="#1E1F21" opacity=".25" rx="176.878" ry="37.176"></ellipse>
      <ellipse cx="1653.654" cy="1606.126" fill="#1E1F21" opacity=".265" rx="174.292" ry="36.633"></ellipse>
      <ellipse cx="1653.654" cy="1606.126" fill="#1E1F21" opacity=".28" rx="171.705" ry="36.089"></ellipse>
      <ellipse cx="1653.654" cy="1606.126" fill="#1E1F21" opacity=".295" rx="169.119" ry="35.545"></ellipse>
      <ellipse cx="1653.655" cy="1606.126" fill="#1E1F21" opacity=".31" rx="166.533" ry="35.002"></ellipse>
      <ellipse cx="1653.654" cy="1606.126" fill="#1E1F21" opacity=".325" rx="163.946" ry="34.458"></ellipse>
      <ellipse cx="1653.654" cy="1606.126" fill="#1E1F21" opacity=".34" rx="161.36" ry="33.915"></ellipse>
      <ellipse cx="1653.654" cy="1606.126" fill="#1E1F21" opacity=".355" rx="158.773" ry="33.37"></ellipse>
      <ellipse cx="1653.654" cy="1606.126" fill="#1E1F21" opacity=".37" rx="156.188" ry="32.827"></ellipse>
      <ellipse cx="1653.654" cy="1606.126" fill="#1E1F21" opacity=".385" rx="153.601" ry="32.283"></ellipse>
      <ellipse cx="1653.654" cy="1606.126" fill="#1E1F21" opacity=".4" rx="151.015" ry="31.74"></ellipse>
      <ellipse cx="1653.654" cy="1606.126" fill="#1E1F21" opacity=".415" rx="148.428" ry="31.196"></ellipse>
      <ellipse cx="1653.654" cy="1606.126" fill="#1E1F21" opacity=".43" rx="145.842" ry="30.652"></ellipse>
      <ellipse cx="1653.655" cy="1606.126" fill="#1E1F21" opacity=".445" rx="143.256" ry="30.108"></ellipse>
      <ellipse cx="1653.654" cy="1606.126" fill="#1E1F21" opacity=".46" rx="140.669" ry="29.565"></ellipse>
      <ellipse cx="1653.654" cy="1606.126" fill="#1E1F21" opacity=".475" rx="138.082" ry="29.022"></ellipse>
      <ellipse cx="1653.654" cy="1606.126" fill="#1E1F21" opacity=".49" rx="135.496" ry="28.479"></ellipse>
      <ellipse cx="1653.655" cy="1606.126" fill="#1E1F21" opacity=".505" rx="132.91" ry="27.935"></ellipse>
      <ellipse cx="1653.655" cy="1606.126" fill="#1E1F21" opacity=".52" rx="130.324" ry="27.391"></ellipse>
      <ellipse cx="1653.654" cy="1606.126" fill="#1E1F21" opacity=".535" rx="127.737" ry="26.847"></ellipse>
      <ellipse cx="1653.654" cy="1606.126" fill="#1E1F21" opacity=".55" rx="125.15" ry="26.304"></ellipse>
      <ellipse cx="1653.654" cy="1606.126" fill="#1E1F21" opacity=".565" rx="122.564" ry="25.76"></ellipse>
      <ellipse cx="1653.654" cy="1606.126" fill="#1E1F21" opacity=".58" rx="119.978" ry="25.217"></ellipse>
      <ellipse cx="1653.654" cy="1606.126" fill="#1E1F21" opacity=".595" rx="117.392" ry="24.673"></ellipse>
      <ellipse cx="1653.654" cy="1606.126" fill="#1E1F21" opacity=".61" rx="114.805" ry="24.13"></ellipse>
      <ellipse cx="1653.654" cy="1606.126" fill="#1E1F21" opacity=".625" rx="112.219" ry="23.585"></ellipse>
      <ellipse cx="1653.654" cy="1606.126" fill="#1E1F21" opacity=".64" rx="109.632" ry="23.042"></ellipse>
      <ellipse cx="1653.654" cy="1606.126" fill="#1E1F21" opacity=".655" rx="107.046" ry="22.498"></ellipse>
      <ellipse cx="1653.655" cy="1606.126" fill="#1E1F21" opacity=".67" rx="104.46" ry="21.955"></ellipse>
      <ellipse cx="1653.654" cy="1606.126" fill="#1E1F21" opacity=".685" rx="101.873" ry="21.411"></ellipse>
      <ellipse cx="1653.655" cy="1606.126" fill="#1E1F21" opacity=".7" rx="99.287" ry="20.868"></ellipse>
      <ellipse cx="1653.654" cy="1606.126" fill="#1E1F21" opacity=".715" rx="96.7" ry="20.324"></ellipse>
      <ellipse cx="1653.654" cy="1606.126" fill="#1E1F21" opacity=".73" rx="94.114" ry="19.78"></ellipse>
      <ellipse cx="1653.654" cy="1606.126" fill="#1E1F21" opacity=".745" rx="91.528" ry="19.236"></ellipse>
      <ellipse cx="1653.654" cy="1606.126" fill="#1E1F21" opacity=".76" rx="88.941" ry="18.692"></ellipse>
      <ellipse cx="1653.654" cy="1606.126" fill="#1E1F21" opacity=".775" rx="86.354" ry="18.149"></ellipse>
      <ellipse cx="1653.654" cy="1606.126" fill="#1E1F21" opacity=".79" rx="83.768" ry="17.605"></ellipse>
      <ellipse cx="1653.655" cy="1606.126" fill="#1E1F21" opacity=".805" rx="81.182" ry="17.063"></ellipse>
      <ellipse cx="1653.654" cy="1606.126" fill="#1E1F21" opacity=".82" rx="78.596" ry="16.519"></ellipse>
      <ellipse cx="1653.654" cy="1606.126" fill="#1E1F21" opacity=".835" rx="76.009" ry="15.976"></ellipse>
      <ellipse cx="1653.654" cy="1606.126" fill="#1E1F21" opacity=".85" rx="73.423" ry="15.431"></ellipse>
      <ellipse cx="1653.654" cy="1606.126" fill="#1E1F21" opacity=".865" rx="70.836" ry="14.888"></ellipse>
      <ellipse cx="1653.654" cy="1606.126" fill="#1E1F21" opacity=".88" rx="68.25" ry="14.344"></ellipse>
      <ellipse cx="1653.654" cy="1606.126" fill="#1E1F21" opacity=".895" rx="65.664" ry="13.801"></ellipse>
      <ellipse cx="1653.654" cy="1606.126" fill="#1E1F21" opacity=".91" rx="63.077" ry="13.257"></ellipse>
      <ellipse cx="1653.654" cy="1606.126" fill="#1E1F21" opacity=".925" rx="60.491" ry="12.714"></ellipse>
      <ellipse cx="1653.655" cy="1606.126" fill="#1E1F21" opacity=".94" rx="57.905" ry="12.169"></ellipse>
      <ellipse cx="1653.654" cy="1606.126" fill="#1E1F21" opacity=".955" rx="55.318" ry="11.626"></ellipse>
      <ellipse cx="1653.654" cy="1606.126" fill="#1E1F21" opacity=".97" rx="52.732" ry="11.082"></ellipse>
      <ellipse cx="1653.654" cy="1606.126" fill="#1E1F21" opacity=".985" rx="50.146" ry="10.539"></ellipse>
      <ellipse cx="1653.654" cy="1606.126" fill="#1E1F21" rx="47.559" ry="9.995"></ellipse>
    </g>
    <g opacity=".4">
      <ellipse cx="3161.179" cy="1606.126" fill="#1E1F21" opacity=".01" rx="330.733" ry="40.562"></ellipse>
      <ellipse cx="3161.178" cy="1606.126" fill="#1E1F21" opacity=".025" rx="326.814" ry="40.08"></ellipse>
      <ellipse cx="3161.178" cy="1606.126" fill="#1E1F21" opacity=".04" rx="322.895" ry="39.601"></ellipse>
      <ellipse cx="3161.179" cy="1606.126" fill="#1E1F21" opacity=".055" rx="318.976" ry="39.12"></ellipse>
      <ellipse cx="3161.178" cy="1606.126" fill="#1E1F21" opacity=".07" rx="315.057" ry="38.639"></ellipse>
      <ellipse cx="3161.178" cy="1606.126" fill="#1E1F21" opacity=".085" rx="311.137" ry="38.158"></ellipse>
      <ellipse cx="3161.179" cy="1606.126" fill="#1E1F21" opacity=".1" rx="307.218" ry="37.678"></ellipse>
      <ellipse cx="3161.178" cy="1606.126" fill="#1E1F21" opacity=".115" rx="303.299" ry="37.197"></ellipse>
      <ellipse cx="3161.179" cy="1606.126" fill="#1E1F21" opacity=".13" rx="299.38" ry="36.716"></ellipse>
      <ellipse cx="3161.178" cy="1606.126" fill="#1E1F21" opacity=".145" rx="295.46" ry="36.235"></ellipse>
      <ellipse cx="3161.178" cy="1606.126" fill="#1E1F21" opacity=".16" rx="291.541" ry="35.755"></ellipse>
      <ellipse cx="3161.179" cy="1606.126" fill="#1E1F21" opacity=".175" rx="287.622" ry="35.274"></ellipse>
      <ellipse cx="3161.178" cy="1606.126" fill="#1E1F21" opacity=".19" rx="283.703" ry="34.794"></ellipse>
      <ellipse cx="3161.178" cy="1606.126" fill="#1E1F21" opacity=".205" rx="279.783" ry="34.313"></ellipse>
      <ellipse cx="3161.178" cy="1606.126" fill="#1E1F21" opacity=".22" rx="275.865" ry="33.832"></ellipse>
      <ellipse cx="3161.178" cy="1606.126" fill="#1E1F21" opacity=".235" rx="271.945" ry="33.352"></ellipse>
      <ellipse cx="3161.178" cy="1606.126" fill="#1E1F21" opacity=".25" rx="268.025" ry="32.87"></ellipse>
      <ellipse cx="3161.178" cy="1606.126" fill="#1E1F21" opacity=".265" rx="264.107" ry="32.391"></ellipse>
      <ellipse cx="3161.178" cy="1606.126" fill="#1E1F21" opacity=".28" rx="260.188" ry="31.91"></ellipse>
      <ellipse cx="3161.178" cy="1606.126" fill="#1E1F21" opacity=".295" rx="256.269" ry="31.429"></ellipse>
      <ellipse cx="3161.178" cy="1606.126" fill="#1E1F21" opacity=".31" rx="252.35" ry="30.948"></ellipse>
      <ellipse cx="3161.178" cy="1606.126" fill="#1E1F21" opacity=".325" rx="248.43" ry="30.468"></ellipse>
      <ellipse cx="3161.178" cy="1606.126" fill="#1E1F21" opacity=".34" rx="244.511" ry="29.987"></ellipse>
      <ellipse cx="3161.178" cy="1606.126" fill="#1E1F21" opacity=".355" rx="240.592" ry="29.507"></ellipse>
      <ellipse cx="3161.178" cy="1606.126" fill="#1E1F21" opacity=".37" rx="236.672" ry="29.026"></ellipse>
      <ellipse cx="3161.178" cy="1606.126" fill="#1E1F21" opacity=".385" rx="232.753" ry="28.545"></ellipse>
      <ellipse cx="3161.178" cy="1606.126" fill="#1E1F21" opacity=".4" rx="228.834" ry="28.064"></ellipse>
      <ellipse cx="3161.178" cy="1606.126" fill="#1E1F21" opacity=".415" rx="224.916" ry="27.583"></ellipse>
      <ellipse cx="3161.178" cy="1606.126" fill="#1E1F21" opacity=".43" rx="220.996" ry="27.103"></ellipse>
      <ellipse cx="3161.178" cy="1606.126" fill="#1E1F21" opacity=".445" rx="217.076" ry="26.622"></ellipse>
      <ellipse cx="3161.178" cy="1606.126" fill="#1E1F21" opacity=".46" rx="213.158" ry="26.142"></ellipse>
      <ellipse cx="3161.178" cy="1606.126" fill="#1E1F21" opacity=".475" rx="209.238" ry="25.661"></ellipse>
      <ellipse cx="3161.178" cy="1606.126" fill="#1E1F21" opacity=".49" rx="205.318" ry="25.181"></ellipse>
      <ellipse cx="3161.178" cy="1606.126" fill="#1E1F21" opacity=".505" rx="201.4" ry="24.7"></ellipse>
      <ellipse cx="3161.178" cy="1606.126" fill="#1E1F21" opacity=".52" rx="197.48" ry="24.22"></ellipse>
      <ellipse cx="3161.178" cy="1606.126" fill="#1E1F21" opacity=".535" rx="193.562" ry="23.738"></ellipse>
      <ellipse cx="3161.178" cy="1606.126" fill="#1E1F21" opacity=".55" rx="189.643" ry="23.258"></ellipse>
      <ellipse cx="3161.178" cy="1606.126" fill="#1E1F21" opacity=".565" rx="185.723" ry="22.776"></ellipse>
      <ellipse cx="3161.178" cy="1606.126" fill="#1E1F21" opacity=".58" rx="181.804" ry="22.296"></ellipse>
      <ellipse cx="3161.178" cy="1606.126" fill="#1E1F21" opacity=".595" rx="177.885" ry="21.815"></ellipse>
      <ellipse cx="3161.179" cy="1606.126" fill="#1E1F21" opacity=".61" rx="173.966" ry="21.335"></ellipse>
      <ellipse cx="3161.178" cy="1606.126" fill="#1E1F21" opacity=".625" rx="170.046" ry="20.854"></ellipse>
      <ellipse cx="3161.178" cy="1606.126" fill="#1E1F21" opacity=".64" rx="166.127" ry="20.374"></ellipse>
      <ellipse cx="3161.179" cy="1606.126" fill="#1E1F21" opacity=".655" rx="162.208" ry="19.894"></ellipse>
      <ellipse cx="3161.178" cy="1606.126" fill="#1E1F21" opacity=".67" rx="158.289" ry="19.412"></ellipse>
      <ellipse cx="3161.178" cy="1606.126" fill="#1E1F21" opacity=".685" rx="154.369" ry="18.932"></ellipse>
      <ellipse cx="3161.178" cy="1606.126" fill="#1E1F21" opacity=".7" rx="150.451" ry="18.451"></ellipse>
      <ellipse cx="3161.178" cy="1606.126" fill="#1E1F21" opacity=".715" rx="146.531" ry="17.971"></ellipse>
      <ellipse cx="3161.179" cy="1606.126" fill="#1E1F21" opacity=".73" rx="142.612" ry="17.489"></ellipse>
      <ellipse cx="3161.178" cy="1606.126" fill="#1E1F21" opacity=".745" rx="138.693" ry="17.009"></ellipse>
      <ellipse cx="3161.178" cy="1606.126" fill="#1E1F21" opacity=".76" rx="134.773" ry="16.528"></ellipse>
      <ellipse cx="3161.179" cy="1606.126" fill="#1E1F21" opacity=".775" rx="130.854" ry="16.048"></ellipse>
      <ellipse cx="3161.178" cy="1606.126" fill="#1E1F21" opacity=".79" rx="126.936" ry="15.567"></ellipse>
      <ellipse cx="3161.178" cy="1606.126" fill="#1E1F21" opacity=".805" rx="123.016" ry="15.087"></ellipse>
      <ellipse cx="3161.178" cy="1606.126" fill="#1E1F21" opacity=".82" rx="119.097" ry="14.606"></ellipse>
      <ellipse cx="3161.178" cy="1606.126" fill="#1E1F21" opacity=".835" rx="115.178" ry="14.125"></ellipse>
      <ellipse cx="3161.179" cy="1606.126" fill="#1E1F21" opacity=".85" rx="111.259" ry="13.645"></ellipse>
      <ellipse cx="3161.178" cy="1606.126" fill="#1E1F21" opacity=".865" rx="107.339" ry="13.163"></ellipse>
      <ellipse cx="3161.178" cy="1606.126" fill="#1E1F21" opacity=".88" rx="103.42" ry="12.683"></ellipse>
      <ellipse cx="3161.179" cy="1606.126" fill="#1E1F21" opacity=".895" rx="99.501" ry="12.202"></ellipse>
      <ellipse cx="3161.178" cy="1606.126" fill="#1E1F21" opacity=".91" rx="95.582" ry="11.722"></ellipse>
      <ellipse cx="3161.178" cy="1606.126" fill="#1E1F21" opacity=".925" rx="91.663" ry="11.241"></ellipse>
      <ellipse cx="3161.178" cy="1606.126" fill="#1E1F21" opacity=".94" rx="87.744" ry="10.761"></ellipse>
      <ellipse cx="3161.178" cy="1606.126" fill="#1E1F21" opacity=".955" rx="83.825" ry="10.28"></ellipse>
      <ellipse cx="3161.179" cy="1606.126" fill="#1E1F21" opacity=".97" rx="79.905" ry="9.799"></ellipse>
      <ellipse cx="3161.178" cy="1606.126" fill="#1E1F21" opacity=".985" rx="75.986" ry="9.318"></ellipse>
      <ellipse cx="3161.178" cy="1606.126" fill="#1E1F21" rx="72.067" ry="8.838"></ellipse>
    </g>
    <rect width="3500" height="232.974" y="1666.026" fill="#B2761F"></rect>
    <g>
      <path fill="#3D4249" d="M85.993,1475.581c-21.851,9.134-39.044,24.179-34.03,39.224c5.014,15.043,48.716,62.326,67.7,83.463
			c18.986,21.133,37.613,26.504,37.254,6.447c-0.358-20.059-17.91-48.358-22.208-66.507c-4.298-18.149-4.061-21.016-4.061-21.016
			s9.075-9.285,12.836-21.909c3.761-12.627,2.865-15.405,2.597-15.763c-0.269-0.358-12.269-4.566-16.746-3.939
			c-4.478,0.628-16.478,0.985-17.821,1.253C110.171,1477.104,85.993,1475.581,85.993,1475.581z"></path>
      <path fill="#FFCC7B" d="M122.709,1445.313c-7.702,10.566-18.447,18.984-25.791,24.179c-7.343,5.193-10.925,6.089-10.925,6.089
			s8.06,3.581,5.372,11.284c-2.685,7.7,6.09,22.745,15.941,29.55c9.85,6.808,13.313-1.132,12.357-17.371
			c-0.955-16.238,15.523-19.822,21.971-10.985c6.448,8.835-10.985,29.134-10.985,29.134s7.165-5.254,13.851-22.208
			c6.686-16.956,17.91-21.255,17.91-21.255L122.709,1445.313z"></path>
      <path fill="#3D4249" d="M504.88,1567.448c2.206,23.579,11.442,44.477,27.299,44.174c15.855-0.304,74.015-27.926,99.847-39.747
			c25.832-11.824,36.513-28.004,17.258-33.641c-19.255-5.637-51.499,2.684-70.103,1.379c-18.605-1.308-21.27-2.391-21.27-2.391
			s-6.158-11.428-17.09-18.78c-10.932-7.356-13.849-7.328-14.27-7.179c-0.423,0.149-8.016,10.351-8.753,14.811
			c-0.735,4.463-3.971,16.021-4.115,17.385C513.54,1544.824,504.88,1567.448,504.88,1567.448z"></path>
      <path fill="#FFCC7B" d="M486.931,1523.379c7.791,10.502,12.624,23.269,15.392,31.826c2.77,8.558,2.557,12.243,2.557,12.243
			s5.821-6.625,12.372-1.765c6.551,4.857,23.527,0.964,32.959-6.407c9.433-7.376,2.887-13.048-12.899-16.976
			c-15.786-3.929-14.294-20.725-3.937-24.246c10.355-3.52,24.536,19.168,24.536,19.168s-2.88-8.403-17.072-19.841
			c-14.191-11.434-14.95-23.43-14.95-23.43L486.931,1523.379z"></path>
      <path fill="#31353A" d="M386.481,1083.523c0,0,30.495,21.492,63.45,148.298c32.954,126.803,41.552,170.508,58.268,210.626
			c16.716,40.119,25.552,66.985,25.552,66.985s0,5.372-20.059,11.462c-20.061,6.089-25.434,6.807-25.434,6.807
			s-62.686-101.014-77.014-156.896c-14.328-55.881-15.044-80.237-40.835-113.911c-25.791-33.671-60.896-173.371-60.896-173.371
			l66.626-28.656L386.481,1083.523z"></path>
      <path fill="#3D4249" d="M250.769,1097.134c0,0,28.656,93.136,39.402,152.597c10.746,59.462,13.612,55.881-42.985,80.957
			c-56.596,25.073-127.522,113.551-127.522,113.551s4.657,20.417,22.209,30.088c17.552,9.673,20.776,12.539,20.776,12.539
			s152.595-93.852,184.834-122.509c32.239-28.655,40.835-94.564,38.687-133.968c-2.15-39.403-22.209-169.793-22.209-169.793
			l-88.119-5.729L250.769,1097.134z"></path>
      <path fill="#FCBE63" d="M683.713,902.031c10.03-3.82,24.12-6.065,33.911-4.823c9.791,1.241,22.567-4.968,28.836-7.564
			c6.269-2.597,19.254-3.225,30.537-3.315c11.284-0.089,11.552-6.626,4.03-7.074c-7.522-0.448-29.731-0.806-29.731-0.806
			s34.208-5.104,40.029-6.716c5.821-1.612,8.597-8.229-6.806-6.712c-15.403,1.518-30.626,2.682-30.626,2.682s21.493-6,32.507-7.791
			c11.016-1.791,12.985-5.731,7.165-6.358c-5.821-0.627-25.522,2.185-25.791,2.078c-0.268-0.107-10.746,0-10.746,0
			s22.208-7.003,27.582-8.167c5.373-1.164,9.492-6.358-4.388-6.447c-13.881-0.09-22.567,1.701-22.926,1.879
			c-0.357,0.179-15.043,1.165-33.402,9.314s-50.448,34.059-50.448,34.059L683.713,902.031z"></path>
      <g>
        <path fill="#2B2B2B" d="M1058.909,786.98c0,25.342,20.556,45.886,45.898,45.886l4.636,125.988l-4.636,3.667H753.714V611.426
				l4.636-3.667l125.019,3.667c0,25.343,20.542,45.898,45.885,45.898c25.356,0,45.9-20.556,45.9-45.898l4.636-3.667l129.654,129.655
				l-4.636,3.667C1079.465,741.081,1058.909,761.624,1058.909,786.98z"></path>
        <circle cx="753.708" cy="786.976" r="45.896" fill="#2B2B2B"></circle>
        <circle cx="929.261" cy="962.52" r="45.896" fill="#2B2B2B"></circle>
      </g>
      <path fill="#FFCC7B" d="M678.4,873.255c10.925-1.791,19.201-7.338,21.511-13.162c2.31-5.823,22.011-19.613,32.22-22.122
			c10.208-2.507,10.208-5.91,11.462-1.97c1.254,3.94-13.07,14.891-17.828,18.834c-4.757,3.944-5.097,7.315-5.455,16.449
			c-0.358,9.134-27.403,23.821-41.91,24.537C663.893,896.539,678.4,873.255,678.4,873.255z"></path>
      <g>
        <path fill="#FF8500" d="M1063.545,783.313c0,25.342,20.556,45.886,45.898,45.886v129.654H758.35V607.76h129.655
				c0,25.343,20.542,45.898,45.885,45.898c25.356,0,45.9-20.556,45.9-45.898h129.654v129.655
				C1084.101,737.415,1063.545,757.957,1063.545,783.313z"></path>
        <circle cx="758.344" cy="783.31" r="45.896" fill="#FF8500"></circle>
        <circle cx="933.898" cy="958.854" r="45.896" fill="#FF8500"></circle>
      </g>
      <path fill="#A7C5F2" d="M679.893,870.748c9.791,11.464,6.925,33.671,6.925,33.671s-91.702,42.986-117.014,46.09
			c-25.313,3.104-79.282-45.133-111.044-63.283c-31.761-18.149-7.642-43.463-7.642-43.463h36.776l28.06,8.717
			c0,0,32.956,25.433,45.492,34.03C573.983,895.106,679.893,870.748,679.893,870.748z"></path>
      <path fill="#9CBDEF" d="M391.902,761.375c-37.015,22.447-60.418,44.895-77.611,109.372
			c-17.195,64.478-29.851,98.866-56.358,150.448c-26.507,51.581-12.895,83.104-12.895,83.104s22.295,19.701,71.685,5.014
			c49.388-14.685,78.045-19.699,78.045-19.699s-15.044-19.344,0-46.211c15.045-26.863,57.672-125.729,64.835-152.953
			c7.164-27.223,4.657-53.73,4.657-53.73l-20.267-47.412l-10.3-19.096l-24.836-10.268L391.902,761.375z"></path>
      <path fill="#FCBE63" d="M426.29,724.242c0,0-5.254,13.97-19.104,25.432c-13.851,11.463-15.284,11.702-15.284,11.702
			s24.358,5.014,36.059,15.283c11.702,10.269,17.194,13.373,17.194,13.373s7.403-17.909,13.134-21.014
			c5.732-3.105,23.232-0.038,23.232-0.038l7.096-29.813c0,0-16.239-33.911-32.956-33.193
			C438.947,706.688,426.29,724.242,426.29,724.242z"></path>
      <path fill="#FFCC7B" d="M535.542,693.435c-1.91,10.985-18.984,29.374-17.552,37.374c1.433,8,11.016,12.955,2.866,16.536
			c-8.149,3.583-8.865,3.851-11.552,8.239c-2.687,4.389-11.135,19.881-19.612,18.21c-8.478-1.672-25.612-22.15-32.417-37.194
			c-6.806-15.045-5.91-17.015-5.91-17.015s-17.732-15.761-17.732-16.477c0-0.717-1.075-19.702-1.075-19.702
			s14.03-59.581,50.089-48.596C518.708,645.794,535.542,693.435,535.542,693.435z"></path>
      <path fill="#222" d="M519.663,627.645c15.641,11.224,34.866,61.135,9.791,72.836c-25.074,11.701-33.266,4.88-34.937-5.148
			c-1.671-10.03-4.227-21.359-4.227-21.359s-2.865,16.82,2.626,29.715c0,0-7.522-0.044-14.328-1.297
			c-6.806-1.253-6.985,5.911-8.776,12.179c-1.791,6.269-7.701,3.044-6.09-4.478c1.612-7.522,5.731-26.149-2.865-26.865
			c-8.598-0.716-18.627,10.567-16.12,21.313c2.507,10.747,6.627,15.044,6.627,15.044l-25.075,4.657c0,0-7.642-25.671-14.09-41.672
			c-6.447-16,7.164-58.507,34.149-64.955C473.334,611.167,498.27,612.295,519.663,627.645z"></path>
      <path fill="#FFD392" d="M688.764,822.08c0,0,17.854-2.183,18.768-7.573c0.915-5.391-1.197-33.123-1.684-41.037
			c-0.493-7.913,8.008-35.356,10.379-43.523c2.368-8.166,3.314-10.607,6.268-9.353c2.951,1.255,3.217,7.972,3.217,7.972
			s3.634-8.547,6.543-6.76c2.908,1.789,1.582,10.306,0.15,12.815c-1.437,2.511-3.186,10.298-3.186,10.298s5.437-13.008,7.503-12.04
			c2.063,0.97,3.583,8.727-0.479,18.283c-4.063,9.559-4.516,14.182-4.516,14.182s3.516-14.745,8.281-12.032
			c4.762,2.713-0.65,16.099-2.62,24.62c-1.971,8.52,0.773,25.375,1.479,38.608c0.704,13.235,1.406,20.872-36.657,31.852
			c-38.057,10.978-39.628,5.174-39.628,5.174L688.764,822.08z"></path>
      <path fill="#B6D2FC" d="M390.622,790.271c40.777-28.482,140.399,52.391,165.733,65.87s136.167-37.528,136.167-37.528
			s10.5,9.006,11,23.006s2.869,21.022,2.869,21.022s-114.703,50.978-150.036,50.311c-35.333-0.666-97.544-40.344-136-66.201
			S371.554,803.589,390.622,790.271z"></path>
    </g>
    <g>
      <path fill="#222" d="M2986.123,650.055c-29.289,53.862,5.211,112.112,31.711,124.612s36.14,41.451,36.14,41.451l37.747-12.951
			c0,0,6.055-110.5,5.834-112s-99.721-46.5-99.721-46.5L2986.123,650.055z"></path>
      <path fill="#3D4249" d="M3018.188,1563.409c-2.418,23.559-11.842,44.373-27.697,43.926c-15.85-0.445-73.758-28.592-99.482-40.647
			c-25.723-12.056-36.258-28.33-16.955-33.792c19.307-5.465,51.473,3.146,70.088,2.009c18.617-1.138,21.293-2.198,21.293-2.198
			s6.258-11.371,17.258-18.627c10.998-7.254,13.912-7.2,14.334-7.046c0.418,0.154,7.922,10.419,8.617,14.887
			c0.697,4.47,3.828,16.061,3.961,17.421C3009.732,1540.707,3018.188,1563.409,3018.188,1563.409z"></path>
      <g>
        <path fill="#FFCC7B" d="M3049.635,1358.516c0,0-8.162,7.214-22.059,49.218c-11.059,33.423-26.967,75.678-33.004,91.545
				c-2.412,4.271-6.145,9.197-11.891,13.745c-14.293,11.305-17.248,19.683-17.248,19.683s14.383-22.561,24.707-18.946
				s11.666,20.424-4.156,24.209s-22.416,9.398-13.051,16.859c9.363,7.456,26.305,11.504,32.9,6.706
				c6.592-4.802,12.354,1.875,12.354,1.875s-0.178-3.688,2.668-12.222c1.32-3.958,11.895-28.889,38.717-69.041
				c17.74-26.554,18.377-45.487,30.504-107.321L3049.635,1358.516z"></path>
      </g>
      <path fill="#3D4249" d="M3438.285,1467.748c21.852,9.134,39.043,24.179,34.031,39.224c-5.018,15.043-48.719,62.326-67.703,83.463
			c-18.984,21.133-37.611,26.504-37.254,6.447c0.359-20.059,17.91-48.358,22.209-66.507c4.297-18.149,4.061-21.016,4.061-21.016
			s-9.076-9.285-12.836-21.909c-3.76-12.627-2.867-15.405-2.598-15.763c0.27-0.358,12.27-4.566,16.746-3.939
			c4.479,0.628,16.479,0.985,17.822,1.253C3414.105,1469.271,3438.285,1467.748,3438.285,1467.748z"></path>
      <g>
        <path fill="#FFD392" d="M3438.285,1467.748c0,0-3.584-0.896-10.926-6.089c-3.512-2.485-36.678-24.657-60.004-52.357
				c-20.57-24.427-36.611-33.435-92.971-61.613l-26.506,34.626c0,0,4.775,9.792,41.551,34.39
				c36.775,24.597,84.953,60.296,84.953,60.296l0,0c1.912,2.729,3.785,6.07,5.395,10.151c6.686,16.954,13.852,22.208,13.852,22.208
				s-17.436-20.299-10.986-29.134c6.447-8.837,22.926-5.253,21.971,10.985c-0.957,16.239,2.506,24.179,12.359,17.371
				c9.85-6.805,18.625-21.85,15.939-29.55C3430.225,1471.329,3438.285,1467.748,3438.285,1467.748z"></path>
      </g>
      <path fill="#31353A" d="M3137.797,1075.69c0,0-30.496,21.492-63.449,148.298c-32.957,126.803-27.916,97.746-38.344,139.939
			c-4.721,19.104-15.467,54.927-15.467,54.927s1.789,11.102,21.85,17.193c20.059,6.09,37.061,9.407,37.061,9.407
			s23.676-49.839,33.586-82.482c16.758-55.201,15.043-80.237,40.834-113.911c25.793-33.671,60.895-173.371,60.895-173.371
			l-66.625-28.656L3137.797,1075.69z"></path>
      <path fill="#3D4249" d="M3273.51,1089.301c0,0-28.656,93.136-39.402,152.597c-10.746,59.462-24.557,50.476,31.83,76.025
			c25.643,11.618,70.777,56.272,70.777,56.272s3.189,22.338-14.361,32.009s-28.869,19.237-28.869,19.237
			s-84.451-40.261-116.689-68.918c-32.24-28.655-40.836-94.564-38.688-133.968s22.207-169.793,22.207-169.793l88.121-5.729
			L3273.51,1089.301z"></path>
      <path fill="#FCBE63" d="M2851.066,906.865c-10.033-3.82-24.123-6.065-33.914-4.823c-9.791,1.241-22.566-4.968-28.836-7.564
			c-6.268-2.597-19.252-3.225-30.535-3.315c-11.283-0.089-11.553-6.626-4.029-7.074c7.521-0.448,29.73-0.806,29.73-0.806
			s-34.209-5.104-40.029-6.716c-5.822-1.612-8.596-8.229,6.805-6.712c15.402,1.518,30.627,2.682,30.627,2.682
			s-21.492-6-32.508-7.791c-11.014-1.791-12.984-5.731-7.164-6.358c5.822-0.627,25.523,2.185,25.793,2.078
			c0.268-0.107,10.746,0,10.746,0s-22.209-7.003-27.582-8.167c-5.373-1.164-9.492-6.358,4.387-6.447
			c13.881-0.09,22.568,1.701,22.926,1.879c0.359,0.179,15.045,1.165,33.402,9.314s50.449,34.059,50.449,34.059L2851.066,906.865z"></path>
      <g>
        <path fill="#2B2B2B" d="M2757.546,687.822c0,25.342,20.556,45.886,45.898,45.886l4.636,125.988l-4.636,3.667h-351.094V512.268
				l4.636-3.667l125.02,3.667c0,25.343,20.541,45.898,45.885,45.898c25.356,0,45.9-20.556,45.9-45.898l4.636-3.667l129.653,129.655
				l-4.636,3.667C2778.102,641.923,2757.546,662.465,2757.546,687.822z"></path>
        <circle cx="2452.345" cy="687.818" r="45.896" fill="#2B2B2B"></circle>
        <circle cx="2627.898" cy="863.362" r="45.896" fill="#2B2B2B"></circle>
      </g>
      <g>
        <path fill="#FF8500" d="M2762.182,684.156c0,25.343,20.555,45.885,45.898,45.885v129.655h-351.094V508.602h129.652
				c0,25.344,20.545,45.899,45.889,45.899c25.355,0,45.896-20.556,45.896-45.899h129.656v129.655
				C2782.736,638.257,2762.182,658.8,2762.182,684.156z"></path>
        <circle cx="2456.979" cy="684.152" r="45.896" fill="#FF8500"></circle>
        <circle cx="2632.533" cy="859.697" r="45.896" fill="#FF8500"></circle>
      </g>
      <path fill="#FFCC7B" d="M2856.377,878.089c-10.926-1.791-19.199-7.338-21.51-13.162c-2.311-5.823-22.014-19.613-32.221-22.122
			c-10.209-2.507-10.209-5.91-11.463-1.97c-1.254,3.94,13.07,14.891,17.828,18.834c4.758,3.944,5.096,7.315,5.455,16.449
			c0.359,9.134,27.404,23.821,41.91,24.537C2870.883,901.373,2856.377,878.089,2856.377,878.089z"></path>
      <path fill="#61E0B2" d="M2854.885,875.582c-9.793,11.464-6.926,33.671-6.926,33.671s91.701,42.986,117.014,46.09
			c25.314,3.104,84.1-39.526,115.861-57.676c31.762-18.149,2.824-49.07,2.824-49.07h-36.775l-28.059,8.717
			c0,0-32.955,25.433-45.492,34.03C2960.795,899.94,2854.885,875.582,2854.885,875.582z"></path>
      <path fill="#FFD392" d="M2844.592,830.67c0,0-17.854-2.183-18.768-7.573c-0.915-5.391,1.197-33.123,1.684-41.037
			c0.493-7.913-8.008-35.356-10.379-43.523c-2.368-8.166-3.314-10.607-6.268-9.353c-2.951,1.255-3.217,7.972-3.217,7.972
			s-3.634-8.547-6.543-6.76c-2.908,1.789-1.582,10.306-0.15,12.815c1.437,2.511,3.186,10.298,3.186,10.298
			s-5.437-13.008-7.503-12.04c-2.063,0.97-3.583,8.727,0.479,18.283c4.063,9.559,4.516,14.182,4.516,14.182
			s-3.516-14.745-8.281-12.032c-4.762,2.713,0.65,16.099,2.62,24.62c1.971,8.52-0.773,25.375-1.479,38.608
			c-0.704,13.235-1.406,20.872,36.657,31.852c38.057,10.978,39.628,5.174,39.628,5.174L2844.592,830.67z"></path>
      <path fill="#9CF7D6" d="M3132.375,753.542c37.014,22.447,60.418,44.895,77.613,109.372c17.193,64.478,29.85,98.866,56.357,150.448
			c26.508,51.581,12.895,83.104,12.895,83.104s-22.297,19.701-71.684,5.014c-49.389-14.685-78.045-19.699-78.045-19.699
			s15.043-19.344,0-46.211c-15.045-26.863-57.672-125.729-64.838-152.953c-7.164-27.223-4.656-53.73-4.656-53.73l20.268-47.412
			l10.299-19.096l24.834-10.268L3132.375,753.542z"></path>
      <path fill="#FFCC7B" d="M3097.988,716.409c0,0,5.25,13.97,19.104,25.432c13.85,11.463,15.283,11.702,15.283,11.702
			s-24.357,5.014-36.059,15.283c-11.701,10.269-17.193,13.373-17.193,13.373s-7.404-17.909-13.135-21.014
			s-23.234-0.038-23.234-0.038l-7.094-29.813c0,0,16.236-33.911,32.955-33.193C3085.33,698.855,3097.988,716.409,3097.988,716.409z"></path>
      <path fill="#FFD392" d="M2988.734,685.602c1.91,10.985,18.986,29.374,17.553,37.374c-1.434,8-11.014,12.955-2.865,16.536
			c8.148,3.583,8.865,3.851,11.551,8.239c2.688,4.389,11.135,19.881,19.613,18.21c8.475-1.672,25.611-22.15,32.416-37.194
			c6.809-15.045,5.912-17.015,5.912-17.015s17.73-15.761,17.73-16.477c0-0.717,1.076-19.702,1.076-19.702
			s-14.031-59.581-50.09-48.596C3005.57,637.961,2988.734,685.602,2988.734,685.602z"></path>
      <path fill="#2D2D2D" d="M3031.699,703.773c24.418,9.889,29.439,41.604,24.389,64.296c-3.416,15.348,12.696,40.309,12.696,40.309
			s12.157-25.032,35.8-37.211c23.643-12.179,58.826,4.79,58.826,4.79s-50.816-36.623-53.639-95.241
			c-2.33-48.381-74.111,2.021-74.111,2.021L3031.699,703.773z"></path>
      <path fill="#2D2D2D" d="M3004.613,619.812c-15.641,11.224-34.863,61.135-9.789,72.836
			c25.074,11.701,127.797,34.523,127.797,34.523s-11.102-21.867-10.545-52.434c0.314-17.247-7.162-58.507-34.148-64.955
			C3050.943,603.334,3026.008,604.462,3004.613,619.812z"></path>
      <path fill="#61E0B2" d="M3082.785,611.486c5.66-6.7,16.676-1.943,19.541,5.46s1.252,13.015-7.166,13.731
			C3086.744,631.393,3077.514,617.728,3082.785,611.486z"></path>
      <path fill="#2D2D2D" d="M3092.355,607.751c10.031-9.313,29.008-10.388,33.668,42.985c4.66,53.373,9.115,91.224,55.525,119.283
			c0,0-60.482-16.092-62.148-66.626c-1.613-48.896-3.939-72.314-6.986-80.396c-3.043-8.08-7.162-3.424-8.955-0.737
			c-1.791,2.686-9.582,2.686-12.895-3.135C3087.252,613.304,3088.773,607.842,3092.355,607.751z"></path>
      <path fill="#68EABF" d="M3142.734,798.861c-40.777-28.482-140.399,52.391-165.733,65.87s-136.167-37.528-136.167-37.528
			s-10.5,9.006-11,23.006s-2.869,21.022-2.869,21.022s114.703,50.978,150.036,50.311s97.544-40.345,136-66.202
			S3161.802,812.179,3142.734,798.861z"></path>
    </g>
    <g>
      <g>
        <path fill="#2B2B2B" d="M1430.889,786.027c0,25.342,20.556,45.886,45.898,45.886l4.636,125.988l-4.636,3.667h-351.094V610.474
				l4.636-3.667l125.019,3.667c0,25.343,20.542,45.898,45.885,45.898c25.356,0,45.9-20.556,45.9-45.898l4.636-3.667l129.654,129.655
				l-4.636,3.667C1451.445,740.128,1430.889,760.671,1430.889,786.027z"></path>
        <circle cx="1125.688" cy="786.023" r="45.896" fill="#2B2B2B"></circle>
        <circle cx="1301.241" cy="961.567" r="45.896" fill="#2B2B2B"></circle>
      </g>
      <path fill="#FCBE63" d="M2045.008,825.121c10.164-4.441,24.596-7.458,34.764-6.663c10.168,0.794,23.047-6.25,29.389-9.242
			c6.342-2.992,19.715-4.285,31.355-4.938c11.643-0.652,11.596-7.414,3.809-7.502c-7.787-0.089-30.729,0.646-30.729,0.646
			s35.057-6.969,40.984-8.923c5.93-1.953,8.467-8.92-7.359-6.589c-15.822,2.333-31.48,4.29-31.48,4.29s21.889-7.261,33.168-9.657
			c11.281-2.396,13.119-6.562,7.082-6.919c-6.041-0.358-26.236,3.523-26.52,3.426c-0.283-0.098-11.094,0.534-11.094,0.534
			s22.576-8.333,28.064-9.801c5.488-1.469,9.482-7.034-4.85-6.437c-14.332,0.596-23.207,2.876-23.57,3.081
			c-0.361,0.203-15.471,1.948-34.014,11.273c-18.547,9.324-50.383,37.664-50.383,37.664L2045.008,825.121z"></path>
      <g>
        <path fill="#2B2B2B" d="M2381.358,690.156c0,25.342,20.556,45.886,45.898,45.886l4.636,125.988l-4.636,3.667h-351.094V514.603
				l4.636-3.667l125.02,3.667c0,25.343,20.541,45.898,45.885,45.898c25.356,0,45.9-20.556,45.9-45.898l4.636-3.667l129.653,129.655
				l-4.636,3.667C2401.914,644.257,2381.358,664.8,2381.358,690.156z"></path>
        <circle cx="2076.157" cy="690.152" r="45.896" fill="#2B2B2B"></circle>
        <circle cx="2251.71" cy="865.696" r="45.896" fill="#2B2B2B"></circle>
      </g>
      <g>
        <path fill="#8ECC36" d="M2385.994,686.49c0,25.343,20.557,45.885,45.898,45.885V862.03h-351.094V510.936h129.654
				c0,25.343,20.543,45.899,45.887,45.899c25.357,0,45.898-20.556,45.898-45.899h129.654v129.655
				C2406.551,640.591,2385.994,661.133,2385.994,686.49z"></path>
        <circle cx="2080.793" cy="686.485" r="45.896" fill="#8ECC36"></circle>
        <circle cx="2256.347" cy="862.03" r="45.896" fill="#8ECC36"></circle>
      </g>
      <path fill="#FFCC7B" d="M2038.092,795.683c11.189-2.392,19.455-8.529,21.553-14.655c2.094-6.125,21.746-21.338,32.16-24.436
			c10.41-3.094,10.24-6.608,11.73-2.602c1.492,4.004-12.75,16.02-17.465,20.326c-4.715,4.308-4.898,7.804-4.814,17.25
			c0.084,9.446-27.102,25.951-42.041,27.41C2024.275,820.438,2038.092,795.683,2038.092,795.683z"></path>
      <path fill="#FCBE63" d="M1479.417,827.454c-10.164-4.44-24.596-7.458-34.764-6.664c-10.168,0.795-23.048-6.249-29.39-9.241
			c-6.342-2.992-19.714-4.284-31.356-4.938c-11.643-0.653-11.595-7.414-3.808-7.502c7.787-0.088,30.73,0.646,30.73,0.646
			s-35.058-6.97-40.986-8.922c-5.928-1.954-8.464-8.921,7.359-6.589c15.824,2.332,31.481,4.29,31.481,4.29
			s-21.887-7.26-33.169-9.657c-11.281-2.396-13.119-6.562-7.079-6.919c6.04-0.357,26.237,3.523,26.519,3.426
			c0.283-0.098,11.092,0.533,11.092,0.533s-22.575-8.331-28.063-9.8c-5.488-1.468-9.482-7.034,4.85-6.437
			c14.332,0.598,23.209,2.877,23.57,3.08c0.36,0.204,15.471,1.949,34.015,11.273c18.546,9.325,50.38,37.665,50.38,37.665
			L1479.417,827.454z"></path>
      <g>
        <path fill="#8ECC36" d="M1435.525,782.36c0,25.343,20.556,45.886,45.899,45.886v129.655h-351.095V606.806h129.655
				c0,25.344,20.543,45.899,45.886,45.899c25.356,0,45.899-20.555,45.899-45.899h129.655v129.655
				C1456.081,736.461,1435.525,757.003,1435.525,782.36z"></path>
        <circle cx="1130.324" cy="782.356" r="45.896" fill="#8ECC36"></circle>
        <circle cx="1305.877" cy="957.901" r="45.896" fill="#8ECC36"></circle>
      </g>
      <path fill="#FFCC7B" d="M1486.33,798.016c-11.188-2.391-19.455-8.529-21.549-14.655c-2.096-6.125-21.746-21.339-32.16-24.436
			c-10.413-3.095-10.243-6.607-11.732-2.603c-1.49,4.005,12.751,16.021,17.466,20.327c4.714,4.308,4.898,7.804,4.814,17.25
			c-0.084,9.446,27.101,25.951,42.042,27.412C1500.148,822.771,1486.33,798.016,1486.33,798.016z"></path>
      <path fill="#474747" d="M1768.678,1548.121c-2.135,4.281-1.07,19.621-1.281,33.472c-0.215,13.849-0.426,42.187,23.65,43.253
			c24.076,1.065,45.385-4.262,41.549-16.621c-3.836-12.356-23.244-33.943-23.865-61.364c-0.621-27.418-10.299-30.256-10.299-30.256
			l-13.352,6.251L1768.678,1548.121z"></path>
      <path fill="#FFCC7B" d="M1772.082,1491.249c0,0-0.852,30.043-1.703,42.828c-0.854,12.783-3.408,14.063,0,21.519
			c3.408,7.459,9.588,16.196,9.588,9.59c0-6.605-8.949-20.028,1.705-22.373c10.652-2.343,24.715-5.967,27.059,4.048
			c0,0-1.49-42.818,0-53.264c1.492-10.443-28.338-4.903-28.338-4.903L1772.082,1491.249z"></path>
      <path fill="#474747" d="M1542.754,1514.262c-6.751,5.54-9.521,15.342-10.161,30.47c-0.639,15.128-25.781,63.493-4.9,77.981
			c20.881,14.491,54.972,15.342,56.25-11.077c1.278-26.421-9.161-46.878-8.097-68.184c1.066-21.308,4.474-26.848-2.556-30.256
			C1566.258,1509.788,1542.754,1514.262,1542.754,1514.262z"></path>
      <path fill="#FFCC7B" d="M1544.313,1489.333c0.426,10.228,0.932,17.899-1.559,23.649c-2.491,5.754-0.073,19.179,0.956,25.143
			c1.029,5.967,4.225,2.132,3.586-4.688c-0.639-6.818,5.113-4.474,15.34-3.195c10.228,1.279,9.375,10.867,8.95,12.997
			c-0.427,2.132-0.427,2.132-0.427,2.132s3.196,6.39,3.196-7.246s1.279-27.059,6.392-35.367c5.115-8.312,5.328-9.377,5.328-9.377
			l-16.194-20.242l-22.159,12.359L1544.313,1489.333z"></path>
      <path fill="#474747" d="M1631.245,957.655c0,0-13.637,68.748-22.728,117.046c-9.091,48.297-45.455,203.408-56.818,267.047
			c-11.363,63.637-8.665,150.141-8.665,150.141s7.883,15.128,21.094,15.768c13.209,0.64,22.872-5.54,22.872-5.54
			s74.927-240.767,90.268-308.95c15.342-68.181,51.35-180.966,51.35-180.966s6.25-14.205,10.973,9.659
			s13.531,176.423,16.086,238.638c2.557,62.215,6.818,175.141,9.377,197.301c2.555,22.16,1.49,43.021,1.49,43.021
			s3.836,15.341,23.012,13.636c19.176-1.703,23.65-11.341,23.65-11.341s15.766-133.525,15.766-240.061s19.889-267.9,0-326.42
			c-19.885-58.523-197.726,18.182-197.726,18.182V957.655z"></path>
      <path fill="#545454" d="M2055.678,828.818c0,0-68.182,35.652-113.07,50.43c-44.883,14.771-57.385-6.819-73.297-38.643
			c-15.904-31.815-39.768-100.567-39.768-100.567s-1.141,11.932-5.115,40.909c-3.979,28.977,1.986,93.469,10.512,126.707
			c8.521,33.239,5.111,39.206-4.262,48.58c-8.311,8.309-28.68,20.643-80.115,24.52c-6.578,0.495-13.67,0.852-21.305,1.047
			c-0.215,0.01-0.428,0.01-0.641,0.018c-66.938,1.619-105.904-9.459-109.304-29.846c-3.41-20.454,22.159-55.679,24.435-86.932
			c2.267-31.252-0.997-102.698-0.997-102.698s-16.049,72.588-19.177,93.895c-3.127,21.307-18.75,35.506-32.957,32.949
			c-14.2-2.557-116.762-58.807-116.762-58.807s0,0,0.852-13.065c0.853-13.065,8.524-23.013,8.524-23.013l90.06,23.013
			c0,0,0,0,1.705-22.73c1.704-22.722,13.065-101.702,19.32-139.203c6.248-37.5,26.702-36.366,55.68-49.432
			c0,0,95.029-19.602,162.359,0c67.328,19.602,54.119,20.454,75.852,78.41c21.732,57.955,39.631,131.25,39.631,131.25
			s8.523,0,39.205-6.818c30.682-6.818,71.592-17.472,71.592-17.472s1.279,2.131,4.26,8.098
			C2045.877,805.382,2055.678,828.818,2055.678,828.818z"></path>
      <path fill="#606060" d="M1679.185,591.034c0,0-28.338,8.949-29.19,14.915c-0.853,5.966,22.728,54.831,32.67,61.932
			c9.944,7.103,18.183,6.819,18.183,6.819l-18.183,9.375c0,0,38.068,60.796,55.328,68.466l0.639-34.091l-9.373-40.909
			L1679.185,591.034z"></path>
      <path fill="#606060" d="M1788.063,592.313c0,0,28.338,8.949,29.191,14.915s-22.729,54.831-32.672,61.933
			c-9.941,7.102-18.182,6.818-18.182,6.818l18.182,9.375c0,0-29.332,59.518-46.59,67.188l-9.375-32.813l9.375-40.91
			L1788.063,592.313z"></path>
      <path fill="#FCBE63" d="M1701.556,536.062c2.771,21.52,2.984,38.991-4.475,45.597c-7.457,6.606-17.897,9.375-17.897,9.375
			l59.446,127.415l49.432-126.137c0,0-22.797-5.114-24.502-18.111c-1.705-12.997,0.213-32.812,0.213-32.812L1701.556,536.062z"></path>
      <polygon fill="#D6D6D8" points="1722.863 648.42 1733.625 666.318 1745.449 646.432 1760.191 663.434 1738.631 718.449 1711.216 659.689"></polygon>
      <path fill="#FFCC7B" d="M1670.022,495.366c-5.113,17.259,7.031,27.699,12.998,32.599c5.966,4.901,10.44,2.344,10.44,2.344
			s8.949,14.062,23.651,23.224c14.701,9.162,23.863,10.441,23.863,10.441s6.391-0.427,20.242-12.146
			c13.85-11.719,17.258-22.159,17.258-22.159s11.719,1.222,17.473-12.386c5.752-13.608,4.26-15.952,4.26-15.952
			s-2.201-37.146-12.145-48.225c-9.941-11.08-13.635-25.852-55.398-18.75c-41.76,7.102-51.135,18.182-51.135,18.182
			L1670.022,495.366z"></path>
      <path fill="#222" d="M1670.022,495.366c4.049-4.262,10.227-3.409,11.932,2.77s3.836,15.98,4.688,17.472
			c0.853,1.491,5.326,2.982,3.195-4.901c-2.13-7.883-4.047-17.016-1.064-17.989c2.982-0.975,18.75,1.37,13.21-15.676
			c-5.539-17.045-0.853-24.077-0.853-24.077s-3.621,20.668,7.245,28.339c0,0,30.255,7.883,33.238-6.18
			c2.984-14.062,3.197-31.107,3.197-31.107s10.652,20.455,0,34.091c0,0,23.863,13.636,30.896,1.279
			c7.029-12.358,6.176-15.768,6.176-15.768s-0.852,14.489-5.752,19.815s1.066,7.458,4.262,8.097s4.262,8.31,2.77,17.472
			c-1.49,9.163,1.492,13.423,4.262-1.704c2.77-15.128,4.26-14.916,8.096-14.49s4.688,8.523,4.688,8.523s17.686-81.18-39.844-92.685
			c-57.528-11.506-83.095,25.995-87.641,44.46C1668.176,471.573,1670.022,495.366,1670.022,495.366z"></path>
      <polygon fill="#E4E5EA" points="1737.992 644.444 1733.625 666.318 1745.525 650.888 1747.154 644.444"></polygon>
      <polygon fill="#E4E5EA" points="1729.258 643.165 1733.625 666.318 1717.324 651.262"></polygon>
      <path fill="#F1F3F9" d="M1691.726 585.551c17.36 25.228 37.532 57.614 37.532 57.614l-18.042 16.524-32.032-68.655L1691.726 585.551zM1775.102 587.44c-17.359 25.228-37.109 57.003-37.109 57.003l22.199 18.99 27.871-71.122L1775.102 587.44z"></path>
      <path fill="#606060" d="M1750.563,733.219v247.535c-6.578,0.495-13.67,0.852-21.305,1.047c-0.215,0.01-0.428,0.01-0.641,0.018
			v-248.6H1750.563z"></path>
    </g>
    <g>
      <path fill="#FFF" d="M1038.11,671.496v43.246h-85.477v192.746h-58.787V714.741h-85.477v-43.246H1038.11z"></path>
    </g>
    <g>
      <path fill="#FFF" d="M1388.757,864.242v43.246h-173.996V671.496h171.63v43.246h-112.844v49.496h107.607v43.246h-107.607v56.759
			H1388.757z"></path>
    </g>
    <g>
      <path fill="#FFF" d="M2294.06,580.142l104.816,235.992h-63.213l-19.445-46.624h-105.683l-17.622,46.624h-62.294l95.325-235.992
			H2294.06z M2299.029,728.292l-38.251-91.728l-34.665,91.728H2299.029z"></path>
    </g>
    <g>
      <path fill="#FFF" d="M2626.466,667.646l75.849-87.504h51.101v235.992h-58.787V668.829l-63.755,73.99h-8.828l-63.741-73.99
			v147.305h-58.787V580.142h51.042L2626.466,667.646z"></path>
    </g>
  </g>
</svg>
