<svg xmlns="http://www.w3.org/2000/svg" viewBox="0 0 2742 1828" id="children-are-doing-chemical-experiments">
  <g>
    <path fill="#ffe4ce" fill-rule="evenodd" d="M1383 638.24s9.73-8.81 14.17-14.36 15-19.43 15-19.43-5.36-20.4-6.27-29.41-2.46-29.73-3.14-40.62a303.6 303.6 0 0 0-5.84-39.9c-2.33-10-8.58-25.49-11.24-34s-5.59-19.53-6.36-26.73-.37-10.34 2.92-13.42 9.56-1.23 12 .75 6.69 10.35 9 15a117.26 117.26 0 0 1 7.12 21.08c1 5.11 3.83 13.54 6.29 21s4.87 11.51 7.36 14.91 5.63 3.82 6.45-4.71 3.51-24.15 2.41-35.16S1430.72 428 1430 420s-2.28-18.14-1-24.5 2.51-10.28 5.76-13.56 5.87-2.35 8.32.85 5.89 12.54 7.07 17.62 3 14.53 3.93 21.49 4.3 20.19 4.51 28.72.73 19.66 1.28 24.66 4.42 2.82 4.79-3.78 1.65-16.85 2.05-23.25 1.52-20.71 1.69-28.29 0-20 .6-28.69 1.13-14.3 3.54-20.89 4.58-9 7.42-10.2 6.9 1.93 8.68 5.88 3.87 13.74 4.53 20.35.59 22.13.9 29-.28 21.89.41 29.71.52 15.41 1.21 23.24 3.3 22.43 4.68 15.83 5.09-19.14 6-24.83 3.79-18.49 6.06-26.88 4.13-16.72 7.83-24 8-12.36 12.13-14.38 7.69-3.52 9.91.54 2.88 13.94 1.9 19.43-2.79 21.56-4.26 29.81-5.78 32.54-6.36 42.24-2.38 24.75-3 33.43-3.4 39.64-3.4 39.64 9.18 3.13 14.79.42 19.66-8.07 23.85-10.72 15.05-4.53 19.73-5.64 13.84.81 18.62 2.34 6.43 1.62 8.83 6.67-2.43 9.65-8.5 12-14 4.34-21 6.3-12.32 2.78-17.27 6.79-18.39 16.81-22.56 22.71-10.37 15.06-17.93 22.44-20.83 15.85-30.23 23.17-10.48 8.14-20.83 21.15-15.65 17.31-20.84 27.49S1440 722 1440 722s-12.57-28.2-15.83-34.51-16.25-25-19.6-28.68-11.21-10.5-14.52-13.94S1383 638.24 1383 638.24ZM2192.43 637.46s-9.74-8.81-14.18-14.36-15-19.42-15-19.42 5.36-20.4 6.28-29.41 2.46-29.73 3.13-40.63a305.13 305.13 0 0 1 5.84-39.89c2.33-10 8.58-25.5 11.23-34s5.6-19.53 6.38-26.73.35-10.34-2.93-13.42-9.56-1.23-12 .75-6.69 10.35-9 15a117.79 117.79 0 0 0-7.12 21.08c-1 5.12-3.82 13.55-6.29 21s-4.87 11.51-7.36 14.91-5.63 3.81-6.44-4.71-3.51-24.15-2.41-35.16 2.21-25.29 2.94-33.32 2.27-18.13 1-24.49-2.51-10.28-5.76-13.56-5.87-2.36-8.32.84-5.88 12.55-7.07 17.63-3 14.52-3.93 21.48-4.3 20.2-4.51 28.73-.73 19.66-1.28 24.65-4.42 2.83-4.79-3.77-1.65-16.85-2-23.26-1.53-20.7-1.7-28.29 0-20-.6-28.69-1.13-14.3-3.53-20.88-4.59-9.05-7.43-10.21-6.9 1.94-8.68 5.88-3.87 13.75-4.53 20.36-.59 22.13-.89 29 .27 21.89-.42 29.72-.52 15.41-1.21 23.24-3.3 22.43-4.68 15.83-5.09-19.14-6-24.84-3.78-18.48-6.05-26.88-4.12-16.71-7.83-24-8-12.37-12.13-14.38-7.69-3.53-9.9.54-2.89 13.94-1.9 19.43 2.78 21.56 4.26 29.8 5.77 32.54 6.35 42.25 2.38 24.75 2.95 33.43 3.39 39.63 3.39 39.63-9.18 3.14-14.77.42-19.67-8.07-23.86-10.71-15-4.53-19.73-5.64-13.84.81-18.62 2.34-6.43 1.61-8.83 6.66 2.43 9.66 8.5 12.05 14.06 4.34 21 6.29 12.33 2.79 17.27 6.8 18.39 16.81 22.56 22.71 10.37 15.06 17.93 22.44 20.83 15.84 30.23 23.17 10.48 8.14 20.84 21.15 15.64 17.3 20.82 27.48 13.88 27.57 13.88 27.57 12.58-28.19 15.83-34.5 16.25-25 19.61-28.68 11.2-10.5 14.52-13.94S2192.43 637.46 2192.43 637.46Z"></path>
    <path fill="#fac963" fill-rule="evenodd" d="m1345.76 657.15 25.46-28.76s12.44 9.38 18.71 15.32 18.06 20.15 22.38 26.44 15.8 22.57 19.81 32.78S1442.78 739 1442.78 739l-24.55 28.26s-11-22.24-14.24-28.89-18.14-29-24-39.1-16-22.7-21.21-29.34A92 92 0 0 0 1345.76 657.15ZM2157.1 767.3l-24.5-27.4s2.42-14.39 5.63-23.57 14.95-30.79 19.63-40.07 9.47-16 20-25.67 25.7-22.24 25.7-22.24l25.18 27.75s-13.18 10.95-19.23 20.68-16.07 24.55-21.54 34.28-15 22.51-18.58 30.09S2157.1 767.3 2157.1 767.3Z"></path>
    <path fill="#fff" fill-rule="evenodd" d="M1711.86 695.11 1710 713.49l-120.81 627.62-121.77-.86 82.69-281.55 10.6-36.43-19-93.56-25.44-1-35.73 4-55.41 9.1-72.62 13.27-59.1 11.94-48.34 7.06-32-2.65L1198 960.24l-8.7-15.51-3.68-27L1184 890.09l2.77-23 8.9-22.41 10.17-17.45 30.58-45.53 98-129.77 12.23 5 20.78 23.56 22.72 33.34 15 26.59 11.11 21.38 6 12.28 36.25-10.45 42-16 35-14.22 47.87-15.86 36-.63 48.25 3.52 15.33-13.81 14.2-9.37ZM1864.78 695.11l1.87 18.38 120.81 627.62 121.77-.86-82.68-281.55-10.61-36.43 19-93.56 25.44-1 35.73 4 55.41 9.1 72.62 13.27 59.11 11.94 48.33 7.06 32-2.65 15.11-10.22 8.69-15.51 3.68-27 1.59-27.61-2.77-23L2381 844.7l-10.17-17.45-30.58-45.53-98-129.77-12.23 5-20.79 23.56-22.72 33.34-15 26.59-11.13 21.38-6 12.28L2118 763.64l-42-16-35-14.22-47.88-15.86-36-.63-48.25 3.52-15.33-13.81-14.2-9.37Z"></path>
    <path fill="#fac963" fill-rule="evenodd" d="M1647.49,992.9c5-26.86,13.47-75.85,20.18-119,6.45-41.42,11.16-77.13,15.2-100,1.61-9.15,11.28-42.38,11.28-42.38l187.23,4.33s7.59,18.4,12.16,45.08c10.34,60.37,23.78,163.16,31,191.34,0,0,16,80.68,32.09,143.13S1989.06,1222,1989.06,1222s-2.71,13.86-2.82,43.46,2.38,75,2.38,75l-400-.44s.93-54.38-.2-83.38c-.69-17.29-2.38-32.7-2.38-32.7s17.08-52.68,32.28-108.43C1632.17,1064.6,1644.09,1011.19,1647.49,992.9Z"></path>
    <path fill="#cd6e55" fill-rule="evenodd" d="M1875.85,598l-174.61.69s-55.55-35.11-62.07-41.09c-5.65-5.2-11.35-14.58-13.75-24.42-2.2-9.11-1.38-18.62.18-25.58,1.61-7.21-1.39-18.49-9.48-16.08-15.1,4.5-27.55-.29-27.43-3.26s4.07-1.89,9.51-3.09c3.63-.8,8.71-3.84,11-5.22,8.64-5.33-.2-21.52,3.53-30.05,5.94-13.53,12.2-29.87,17.5-39.83,5.69-10.69,15.55-16.26,26.57-23.16,6.6-4.14-31.24,10.54-24.65,4.59,5.14-4.64,21.67-21.25,40.64-30.16,12.88-6.05,29.32-6,34.65-6.15,4.11-.12-7.27-7.09-11.94-15.24-5.27-9.2.32-19.69.32-19.69s-.34,9.69,8.74,13.25a99.25,99.25,0,0,0,35.37,6.76c2.12,0,15.2-2,11.85-6.36-4.69-6.09-6.43-16.53-5.54-22.92,1.24-9,4-14,6.38-15.59,2-1.39-.57,8.42,3,16,4.06,8.66,14.3,15.37,16.81,16.19,1.8.59,30.38-.75,50.08,12.1,12.11,7.9,17.28,26.16,21.4,38.76,1.46,4.44,15.75-6,21.69-10.24,3.2-2.28,7.27-6.33,13.92-7,9.18-.94,21.68,1.82,29.26-.05,8.42-2.08,9.11-11.59,12.11-8.2,2.51,2.82-11.1,13.49-18.15,16.6-2.58,1.14,7.1-1,16.35,4.31,9.46,5.42,18.61,18.36,26.62,26.93,4.26,4.55,8.75,23.09,10.45,29.87.51,2.07,10.22,1.85,11.9,1.74,7.14-.49-5.42,7.95-13.74,10-5.89,1.45-16.5,11-13,23.53,2,7.07,6.09,16.88,6.36,32.21s-3.31,36.35-5.52,44.68c-1,3.66-1.51-23.49-3.48-18.71-2.47,6-8.45,27.63-15.8,36.64C1903.88,584,1875.85,598,1875.85,598Z"></path>
    <path fill="#ffe4ce" fill-rule="evenodd" d="M1723.32,695.28a138.57,138.57,0,0,1-25.53-33.12c-10.35-19.32-15.87-44.17-15.87-44.17s-28.3,0-33.82-35.2c-1.56-9.08,1.75-18.43,5.89-22.7,6.88-7.08,16.88-5.6,16.88-5.6s8.16,3.54,13.1,2,6.67-8.1,6.67-8.1.76-11.26,5.06-19.84,12.16-14.52,12.16-14.52-.81-5.81-4.72-8-10.89-.64-10.89-.64,12.62-11.94,22.07-18,15.72-6.36,15.72-6.36a62.07,62.07,0,0,0-17.64-2.46,81.09,81.09,0,0,0-19.06,3.24,70.15,70.15,0,0,1,25.27-10.93c15.17-3.27,35.44-2.17,35.44-2.17l15-2.18s.43-6.52,6.42-7.78,17.53,2.76,17.53,2.76l5.73-4.43,11.29-.54,14.35,5a230.67,230.67,0,0,1,22.44-11.25,192.73,192.73,0,0,1,22.43-7.72s-10.22,7.87-16.9,14.37a67.78,67.78,0,0,0-9.83,11.63l20.69-5.34-6.65,14.59,11.91,8.06s8.64,6,13.77,19.06,6.78,33,6.78,33,.69,11.73-1.38,19.32c-2.07,8.29-2.76,20.71-2.76,20.71l11-5.52,13.81-18.64s21.39-2.76,20,23.47c-1.38,32.44-33.82,40.72-33.82,40.72s-6.21,24.85-17.94,44.86-29,34.5-29,34.5-34.88,26.07-62.11,25.56C1761,722.42,1723.32,695.28,1723.32,695.28Z"></path>
    <path fill="#ffe4ce" fill-rule="evenodd" d="M1711.87,684.34l153.09-3.6s-.86,10.5-1.15,17-.86,14.1.72,20.29,3.45,11.07,6.33,14,8.49,5.33,8.49,5.33-6.77,12.66-12.52,17.84-21,17.12-31.51,22.88A158.94,158.94,0,0,1,1805,790.67c-10.22,3.16-23,3.88-31.08,3.45s-28.92-6.48-36.26-11.37-21.86-15.25-26.61-20.86-10.51-12.37-14-17.41-4.75-9.21-4-13,4-2.3,7.48-4.75,7.48-5.47,8.92-10.64,2.74-10.36,2.88-15.83a86.47,86.47,0,0,0-.14-10.93C1711.87,686.21,1711.87,684.34,1711.87,684.34Z"></path>
    <path fill="#9e9287" fill-rule="evenodd" d="M1686.77 628.19c19.09 3.47 22.2-6.12 34.56-16 .56-.45 15-11 15.39-9.58.26 1-2.91 5.81-1.92 6.24 1.47.65 8.71-2.69 8.73-.44.09 11.9-10.19 24.19-9.36 37.24.31 5 5.54 2.61 7 6.11 2.43 5.64-.44 18 0 24.4.25 3.87 6.42 4.48 6.53 7.93.17 5.74-8.26 12.2-13.66 12.8-21 2.34-35.61-31.26-42.33-46.12C1689 644.89 1679.55 626.88 1686.77 628.19ZM1784.3 578.7c-8.48 9.61-14.88 28.22.52 35.32 6 2.79 15.77.84 22.36 1.12 8 .35 20.23 5.63 26.62-2.37 5.65-7.06-4.09-11.65-9.08-15.06C1815.21 591.24 1795.49 566 1784.3 578.7ZM1404.86 526.61c7.25-9 24.85-19.22 37.63-14.33 4.81 1.84 6.41 14.75 7.57 18.63 5.63 18.86 17.94 50.7 4.22 69-4.81 6.4-32 18.14-39.19 8.36-10-13.71-8.07-43.09-8.25-59.12C1406.77 542 1400.41 532.13 1404.86 526.61ZM1457.27 523.06c-6.1-4.21 3.24-20.22 10-16.39C1475.45 511.26 1469.41 531.44 1457.27 523.06ZM2169.09 530.41a18.45 18.45 0 0 0-5 0c-8.07.46-16.17.84-24.2 1.71-16.61 1.81-3.25 23.74-3.88 31.31-1.47 17.6-7.56 28.12-.64 45.77 1.38 3.5 3.79 10.19 8.93 9.86 23.64-1.52 20.65-49.33 23-64.23C2167.87 551.06 2172.36 531.13 2169.09 530.41ZM1644.91 401c-.77 3.69-.93 7.4-1.43 11.13-4.4 33 16.77-7.65 27.4-.57 3.28 2.19-5.46 25.69 6.28 25.69 2.26 0 13.39-27.89 16.55-31.4 6-6.61 28.62-17.55 30.25-25.68 1.38-6.91-21.3-.95-23.4-5.14-1.27-2.52 6.12-10.57 4-12-8.79-5.86-24.94 18.84-30.26 22.83-3.77 2.82 4.5-8.16-1.14-6.28C1665.79 382.07 1646.47 393.48 1644.91 401ZM1756.5 359.92c-6.48.24-26.25 8.36-16.56 11.13C1753.42 374.9 1790 358.67 1756.5 359.92ZM1873.21 489.2c8.74-13.79 6.4-11.85 19.7-14.27 2.27-.41 8.91-4.16 11.41-2.29 8 6 19.2 33.71 13.13 42.81-13.32 20-27.58-1.28-34.82-11.41-2.49-3.5-3.16-7.1-5.7-10.28C1876.25 492.92 1872.17 490.84 1873.21 489.2ZM1435.72 774.58c-10.54 30.78 42.22 3.23 54.8 7.43 5.54 1.85-5.69 37.12-2.86 40 4.61 4.61 27.41-29.11 33.11-26.26 1.54.77-2.15 6.8.57 5.71 8.78-3.51 17.65-17.14 24.53-23.4 10.07-9.15 24-10.75 33.11-21.69 3.4-4.08 0-12.2 2.28-17.12 3.28-7.2 12.9-11.68 11.42-20.55-1.31-7.87-35 4.41-40 6.28-29.58 11.09-57.26 32.3-87.89 40C1455.89 767.12 1438.88 765.34 1435.72 774.58Z"></path>
    <path fill="#9e9287" fill-rule="evenodd" d="M1459.69 809.11c-3.65 2.49-20.56 27.29-6.85 21.41 3.33-1.43 23.53-18.75 20.55-24C1470.08 800.77 1463.07 806.82 1459.69 809.11ZM2043.88 739.48c-11.94 8-.66-1.19 13.41 29.4 2.95 6.4.39 14.89 4.57 21.69 7.58 12.31 23.36 11.83 34.81 17.12 9.18 4.23 12.7 13.83 24.55 8.56 5-2.2 1.89-16.2 4-21.12 1.78-4.14 11.46-10.11 10.28-14.84-1.4-5.59-14.43-11.89-18.84-15.41-7.27-5.82-18.61-5.48-27.4-8C2074.15 752.57 2056.94 730.72 2043.88 739.48ZM2084.41 829.66c-4.74 8.18 14.37 24.87 22.54 14C2112.73 835.94 2088.13 823.24 2084.41 829.66ZM2132.92 831.37c-8.39 16.33 30.83 39 37.39 23.7C2176.45 840.72 2141.74 814.22 2132.92 831.37ZM1558.35 990.09c21.14-23.63 12.4 3.38 30.45 9.93 10.31 3.74 20.82-5.21 24.15 10.67 2.54 12.17 1 35-4.06 46.28-3.54 7.83-13.42 12.07-17.94 19.6-14 23.35-12.29 62.22-51.42 61.88-8.82-.08-5.57-11.61-4.59-16.31 3.62-17.28 7.74-33.9 13-50.68s15.07-38.48 13-56.08C1560.45 1011.07 1555.24 993.57 1558.35 990.09ZM1925.27 1000c-18.47 8.85-24.61 24.36-33.07 42.91-.91 2 3.33 10.9 3 13.8-1.87 14.38-17.88 28.6-24.18 41.21-1.72 3.43-17.15 27.19-13.07 32.5 1.81 2.35 10.69-.62 10.71-.57 2.8 5.17-8.14 17.24-1.6 21.06 19.54 11.4 41.66-34.11 60.21-32.58 11.14.91 6.76 40.64 16.52 37.82 14.48-4.17 19.1-26.36 24.64-37.21 8-15.68 27.34-30.16 27.25-49.64-.06-12.43-15-15.43-12.7-28.17 3.28-18.47 26.35-43.06 16.9-63.26-4.72-10.12-26 23.58-32 20.56-5.39-2.76-1-11.18-4.44-15C1957.27 976.67 1932.26 996.68 1925.27 1000ZM1839.51 1059.16c-8.27 4.47-22 26.63-8.36 26.57C1855.46 1085.61 1876 1039.46 1839.51 1059.16Z"></path>
  </g>
  <g>
    <path fill="#571519" d="M1788.2 728.15h-.14c-1 0-25.21-1-59.75-25-23.57-15.71-31.73-33.2-36.61-43.64-8.19-16.39-13.07-37.38-17-55.78a4.57 4.57 0 1 1 8.93-1.91c4.11 19.16 8.91 38.89 16.18 53.43 5 10.59 12.14 26 33.65 40.34 32.15 22.31 54.67 23.38 54.9 23.39a4.57 4.57 0 0 1-.15 9.14ZM1787.51 624.63a4.57 4.57 0 0 1-2.75-8.23c2.87-2.17 8.59-8 7.9-12.15-.59-2.29-2.28-4-4.42-6.22-2.94-3-6.6-6.78-8-13.65-1.54-7.74 2.38-22.52 2.83-24.18a4.57 4.57 0 1 1 8.82 2.4c-1.49 5.47-3.53 15.74-2.68 20s3 6.47 5.56 9.07 5.55 5.7 6.81 10.74c1.86 11.07-10 20.31-11.36 21.33A4.57 4.57 0 0 1 1787.51 624.63Z"></path>
    <path fill="#571519" fill-rule="evenodd" d="M1725.39,574.51c0-7.59,4.15-13.11,9.67-13.8,5.52,0,10.35,5.52,11,13.11,0,7.59-4.14,13.11-9.67,13.8C1730.23,587.62,1725.39,581.41,1725.39,574.51Z"></path>
    <path fill="#571519" d="M1718.27 566.91a4.57 4.57 0 0 1-2.81-8.18c7.46-5.8 26.35-9 37.14-1.52a4.57 4.57 0 1 1-5.2 7.51c-7-4.83-21.35-2.65-26.33 1.23A4.57 4.57 0 0 1 1718.27 566.91ZM1788.89 728.15a4.57 4.57 0 0 1 0-9.14c.37 0 19.52-.59 51.3-22 22.28-14.85 32.78-32.45 37.06-41.62 6.28-13.15 11.82-31.1 16.92-54.92a4.57 4.57 0 0 1 8.94 1.91c-5.26 24.53-11 43.15-17.6 56.92-4.66 10-16.11 29.23-40.24 45.31C1810.7 727.88 1789.76 728.15 1788.89 728.15ZM1860.66 518.63a4.51 4.51 0 0 1-2.19-.55 40.42 40.42 0 0 0-34.7-1.17 4.57 4.57 0 0 1-3.52-8.44 49.74 49.74 0 0 1 42.6 1.58 4.57 4.57 0 0 1-2.19 8.58ZM1854.21 566.91a4.52 4.52 0 0 1-2.79-1c-4.76-3.7-19.07-6.81-26.16-1.37a4.57 4.57 0 1 1-5.57-7.24c10.74-8.26 29.58-4.63 37.33 1.39a4.57 4.57 0 0 1-2.81 8.18ZM1674.33 592.88a4.55 4.55 0 0 1-3.88-2.15c-1.09-1.71-3.61-4.85-5.76-5.92a4.57 4.57 0 1 1 4.08-8.18c5.14 2.57 9 8.58 9.42 9.26a4.56 4.56 0 0 1-3.86 7Z"></path>
    <path fill="#571519" d="M1680.54,623.25a4.64,4.64,0,0,1-1.36-.21c-20.06-6.22-39.76-23-34.89-51.38,2.89-14.47,13.29-22.47,27.06-21a4.56,4.56,0,0,1,4.06,5,4.6,4.6,0,0,1-5,4.07c-11.67-1.22-15.75,6.72-17.12,13.6-4.85,28.28,20.68,38.52,28.62,41a4.57,4.57,0,0,1-1.35,8.94Z"></path>
    <path fill="#571519" fill-rule="evenodd" d="M1826.84,574.51c0-7.59,4.15-13.11,9.67-13.8,5.52,0,10.35,5.52,11,13.11,0,7.59-4.14,13.11-9.66,13.8C1832.37,587.62,1826.84,582.1,1826.84,574.51Z"></path>
    <path fill="#571519" d="M1717.12 519.33a4.58 4.58 0 0 1-2.2-8.59 49.81 49.81 0 0 1 42.6-1.58 4.57 4.57 0 1 1-3.52 8.43 40.44 40.44 0 0 0-34.7 1.18A4.51 4.51 0 0 1 1717.12 519.33ZM1902.76 590.81a4.47 4.47 0 0 1-2.42-.7 4.56 4.56 0 0 1-1.45-6.29c.42-.68 4.28-6.69 9.42-9.26a4.57 4.57 0 1 1 4.09 8.18c-2.26 1.13-4.86 4.48-5.76 5.92A4.57 4.57 0 0 1 1902.76 590.81Z"></path>
    <path fill="#571519" d="M1896.55,621.18a4.57,4.57,0,0,1-1.35-8.94c7.93-2.46,33.46-12.7,28.6-41.1-.6-4.13-3.12-13.46-14.13-13.46a4.57,4.57,0,0,1,0-9.14c12.41,0,21.28,8.12,23.15,21.18,4.85,28.26-14.86,45-34.92,51.25A4.52,4.52,0,0,1,1896.55,621.18Z"></path>
    <path fill="#571519" d="M1883.44 584.6a4.57 4.57 0 0 1-4.35-6c.19-.59 18.67-59-13.24-88.4a4.57 4.57 0 1 1 6.19-6.72c28 25.8 22.63 68.73 18.35 88.06 6.62-4.63 15.26-14.12 17.5-32.79a4.57 4.57 0 1 1 9.07 1.09c-4.46 37.2-31.27 44.32-32.42 44.6A4.54 4.54 0 0 1 1883.44 584.6ZM1696.62 733.26a4.57 4.57 0 0 1-1.09-9c12.06-3 11.94-22.71 11.86-35.79v-3a4.57 4.57 0 0 1 9.14 0v3c.09 15 .24 40.06-18.82 44.73A4.57 4.57 0 0 1 1696.62 733.26ZM1876 740.24a4.55 4.55 0 0 1-2-.48c-19.55-9.78-15.83-43.9-12.75-56.22a4.57 4.57 0 1 1 8.86 2.21c-3.75 15-3.81 39.94 8 45.83a4.57 4.57 0 0 1-2 8.66ZM1421.62 779.47a4.58 4.58 0 0 1-1.27-9c36.55-10.48 65.69-20.6 91.7-31.83 32.49-14 67.11-27.56 100.91-26.33 8.3.32 16.56 1 24.55 1.62 8.85.7 18 1.43 27 1.67a4.57 4.57 0 0 1-.11 9.13h-.13c-9.23-.24-18.5-1-27.46-1.69-7.9-.63-16.07-1.28-24.18-1.59-32-1.26-65.41 12-96.94 25.58-26.38 11.39-55.86 21.63-92.79 32.23A4.62 4.62 0 0 1 1421.62 779.47ZM1570.74 1075.53a4.58 4.58 0 0 1-4.49-3.73c-5-26.58-30.65-161.65-48.12-210.23a4.57 4.57 0 1 1 8.61-3.09c17.69 49.24 43.5 184.94 48.5 211.65a4.57 4.57 0 0 1-3.66 5.33A4.76 4.76 0 0 1 1570.74 1075.53Z"></path>
    <path fill="#571519" d="M1468.29 1344.87a5 5 0 0 1-1-.11 4.57 4.57 0 0 1-3.46-5.46c7.26-32.2 26.79-96.29 45.67-158.27 21-68.93 42.71-140.21 46.29-163.69a4.57 4.57 0 1 1 9 1.37c-3.67 24.14-24.51 92.55-46.58 165-18.83 61.82-38.3 125.74-45.49 157.6A4.57 4.57 0 0 1 1468.29 1344.87ZM1568.77 1341.69h-.07a4.57 4.57 0 0 1-4.5-4.64c.86-59.32 18.37-117.49 35.3-173.74 5.43-18 11-36.68 15.94-54.89 20.87-77.49 37.44-160.15 52.14-260.15 1.17-8 2.25-16 3.33-24 4.1-30.66 8.35-62.36 18.21-91.92l.65-2.05c5.91-18.85 11.57-31.41 20-31.41A4.57 4.57 0 0 1 1710 708c-1.11.53-4.84 3.9-11.46 25l-.71 2.22c-9.58 28.73-13.76 60-17.81 90.23-1.09 8.09-2.17 16.15-3.35 24.15-14.76 100.36-31.39 183.35-52.35 261.2-4.94 18.33-10.57 37-16 55.14-16.75 55.65-34.07 113.2-34.91 171.24A4.58 4.58 0 0 1 1568.77 1341.69Z"></path>
    <path fill="#571519" d="M1610.86 1141.71a4.58 4.58 0 0 1-4.55-4.16c-10.33-114.85 1.52-259.4 10.16-311.27 1-5.73 7.4-5.2 13.64-4.67a68.94 68.94 0 0 0 7.44.34c-.43-.93-.93-2-1.41-3-4-8.3-10.67-22.19-14.45-34.33-5.3-17-7.7-38.56-2.82-43.44 2.77-2.76 8.6-4.51 17.91-7.13 5-1.4 10.57-3 12.83-4.28 6.59-3.76 12.4-9.47 18.55-15.52 11.37-11.17 23.12-22.72 41-22.72a4.57 4.57 0 0 1 0 9.14c-14.16 0-24.1 9.77-34.61 20.1-6.3 6.19-12.81 12.59-20.43 16.94-3.22 1.84-8.89 3.44-14.88 5.13-4.32 1.22-11.35 3.21-13.54 4.54-.88 3.45-.75 17 4.7 34.52 3.58 11.5 10.08 25 13.95 33.1 4 8.28 4.31 9 3.16 11.24-2.86 5.73-11 5.05-18.18 4.45-1.29-.11-3-.25-4.29-.29-6.74 43-20.49 185.79-9.64 306.3a4.57 4.57 0 0 1-4.14 5A3 3 0 0 1 1610.86 1141.71ZM1237.18 978.16c-22 0-42.42-6.28-51.22-29.17-4.54-11.81-6.29-43.61-5.67-68.91.39-16.17 9.82-33.41 17.39-47.26l2.62-4.82c14.2-26.36 119.78-166.72 130.73-177.67a4.57 4.57 0 0 1 6.46 6.47c-10.36 10.36-115.77 150.71-129.14 175.54l-2.65 4.86c-7.47 13.66-15.94 29.15-16.28 43.11-.68 28 1.5 56.11 5.07 65.4 12.36 32.12 55.44 23.73 86.9 17.59 4.5-.88 8.72-1.7 12.5-2.33 14.16-2.36 33.53-6.05 56-10.33 73.32-14 164.53-31.35 191.2-25.55a4.57 4.57 0 0 1-2 8.93c-24.82-5.43-118.87 12.52-187.54 25.6-22.48 4.29-41.9 8-56.16 10.36-3.71.62-7.84 1.43-12.27 2.29C1269.49 974.93 1252.94 978.16 1237.18 978.16Z"></path>
    <path fill="#571519" d="M1288.33,941.24a4.57,4.57,0,0,1-2.19-8.58c22.27-12.15,53.58-56.45,81.2-95.54,18.12-25.65,35.29-49.94,48.79-63.77-3.42-8.59-20.16-41.06-37.38-68-22.64-35.44-37.72-48-43.76-48a4.57,4.57,0,1,1,0-9.14c15,0,36.24,28.41,51.46,52.24,8.82,13.82,18.82,31.13,27.42,47.5,14,26.69,13.08,27.63,10.52,30.13-13.17,12.84-30.86,37.87-49.59,64.38-29.57,41.85-60.15,85.12-84.28,98.28A4.57,4.57,0,0,1,1288.33,941.24Zm128.4-166.16h0Z"></path>
    <path fill="#571519" d="M1419.87,770.12a4.56,4.56,0,0,1-3.51-7.48,128,128,0,0,1,9-9.3c4.51-4.38,12.9-12.55,12.57-15.54-1.34-12-12.75-42.85-27.56-63.81-15.08-21.34-32.51-35.16-38.58-39.37-1.87,2-4.8,5.51-7.28,8.49-4.58,5.51-9.78,11.75-14.14,15.89a4.57,4.57,0,0,1-6.29-6.63c4-3.76,9-9.79,13.41-15.11,8.16-9.81,10.42-12.39,13.41-12.71,4.86-.51,29.53,19.54,46.93,44.16,15.88,22.47,27.7,54.79,29.18,68.08.83,7.43-7,15-15.27,23.1-3.17,3.09-6.16,6-8.3,8.58A4.54,4.54,0,0,1,1419.87,770.12Z"></path>
    <path fill="#571519" d="M1440.64 724.84a4.64 4.64 0 0 1-1.74-.34 4.57 4.57 0 0 1-2.49-6c10.07-24.47 28.63-51.22 48.44-69.83 5.58-5.23 11.82-9.57 17.86-13.75 6.6-4.59 12.85-8.92 18.22-14.3a210.36 210.36 0 0 0 15.77-18.51c7.92-10.06 16.12-20.47 26.77-28.21 6.55-4.77 15.32-6.93 23.81-9 8.86-2.18 17.25-4.25 21.68-8.81a2.88 2.88 0 0 0 .8-1.14c-.58-3-16.45-8.85-27.33-7-7.73 1.34-13.71 4.45-20 7.75a103 103 0 0 1-15.6 7c-7.47 2.46-15.14 1.58-22.56.74a70.42 70.42 0 0 0-12.89-.72c-10.67.78-18.41 6.1-27.38 12.27l-3.93 2.68a4.57 4.57 0 0 1-5.1-7.58l3.85-2.63c9.65-6.63 18.76-12.9 31.89-13.86a79.72 79.72 0 0 1 14.6.75c6.74.77 13.1 1.5 18.66-.33a94.26 94.26 0 0 0 14.24-6.42c6.67-3.47 13.56-7.06 22.68-8.65 11.17-1.92 32.11 2.47 36.92 11.57 2.08 3.94 1.25 8.27-2.27 11.89-6.25 6.45-16.32 8.93-26 11.33-7.62 1.88-15.51 3.82-20.62 7.53-9.62 7-17.07 16.46-25 26.48a216.23 216.23 0 0 1-16.49 19.31c-6 6-12.82 10.73-19.47 15.35-6 4.18-11.72 8.13-16.81 12.91-18.92 17.76-36.64 43.3-46.24 66.64A4.58 4.58 0 0 1 1440.64 724.84ZM1383.88 641.64a4.57 4.57 0 0 1-2.56-8.36c8.38-5.65 16.47-16.92 23-26 1.32-1.85 2.59-3.61 3.8-5.26a4.57 4.57 0 1 1 7.36 5.43c-1.2 1.61-2.44 3.34-3.74 5.15-6.92 9.66-15.53 21.67-25.28 28.23A4.62 4.62 0 0 1 1383.88 641.64Z"></path>
    <path fill="#571519" d="M1419.92,623.25a4.56,4.56,0,0,1-4.14-2.62c-13-27.45-14.66-52.1-16.45-78.2-.65-9.57-1.33-19.45-2.58-29.85-1.49-12.48-5.69-24.79-9.75-36.7-1.57-4.63-3.15-9.25-4.58-13.9l-.51-1.59c-7.81-23.89-8.77-37.23-3.11-43.26,2-2.08,5.59-4.22,11.77-2.62,9,2.34,14.16,13.42,17.55,20.75l.78,1.68c3,6.39,5.14,14.28,7.38,22.64,4,14.83,8.11,30.17,17.29,37.39a4.57,4.57,0,1,1-5.65,7.18c-11.57-9.09-16.3-26.68-20.47-42.2-2.13-7.95-4.15-15.46-6.82-21.11l-.81-1.74c-2.34-5.06-6.7-14.48-11.55-15.74-.52-.14-2.27-.54-2.81,0-.75.79-4,6.18,5.13,34.16l.56,1.74c1.41,4.56,3,9.1,4.51,13.65,4.21,12.35,8.56,25.12,10.17,38.55,1.27,10.63,2,20.63,2.62,30.31,1.81,26.31,3.36,49,15.6,74.93a4.57,4.57,0,0,1-2.19,6.08A4.5,4.5,0,0,1,1419.92,623.25Z"></path>
    <path fill="#571519" d="M1428.29,501.41a4.63,4.63,0,0,1-1.54-.27,4.58,4.58,0,0,1-2.76-5.85c7.07-19.7,4.29-47.31,2.06-69.49-.65-6.49-1.27-12.63-1.58-18-.57-9.77.12-26.93,11.14-32.13a7.26,7.26,0,0,1,6.35.08c8,3.88,13.21,24.13,13.25,24.33,4.06,17.33,6.86,38.34,8.32,62.45l.17,3.14c.32,6.34.73,14.24,3.09,19.26a4.57,4.57,0,0,1-8.26,3.9c-3.14-6.65-3.6-15.55-4-22.7l-.16-3c-1.43-23.6-4.16-44.1-8.1-60.93-1.1-4.71-5.1-15-7.71-17.67-4.18,3.19-5.54,13.48-5,22.79.3,5.16.9,11.2,1.55,17.6,2.32,23.1,5.21,51.84-2.55,73.49A4.57,4.57,0,0,1,1428.29,501.41Z"></path>
    <path fill="#571519" d="M1462.78,492.45a5.16,5.16,0,0,1-.67-.05,4.57,4.57,0,0,1-3.85-5.19c2.28-15.44,3.86-32,5.12-53.65.35-6,.65-12,.95-18l.54-10.57c.14-2.57.18-5.31.23-8.14.18-11.06.39-23.6,5.73-33.34,4.1-7.48,8.83-8.28,12.06-7.66,8.83,1.72,13.65,16.39,14.74,25.83,1.6,13.93,1.53,28.57,1.45,42.74-.11,20-.21,40.74,4.46,59.51a4.57,4.57,0,1,1-8.87,2.21c-5-19.89-4.84-41.18-4.73-61.77.08-13.89.15-28.26-1.39-41.65-1.12-9.68-5.45-17.37-7.4-17.9a9.85,9.85,0,0,0-2.31,3.08c-4.24,7.76-4.43,19.1-4.6,29.11,0,2.94-.1,5.79-.24,8.46l-.54,10.54c-.3,6-.6,12.06-1,18.09-1.27,21.94-2.87,38.74-5.2,54.46A4.56,4.56,0,0,1,1462.78,492.45Z"></path>
    <path fill="#571519" d="M1527.51 562.79h-.28a4.57 4.57 0 0 1-4.29-4.84c3.15-52.13 7.79-91 16-134.31 2.19-11.51 1.68-25.36-1-26.94-.16-.1-1.92 0-5.58 3-11.15 9.18-15.83 34.49-19.25 53-1.21 6.5-2.35 12.65-3.61 17.39l-.06.43c-2.28 13.69-3.83 17.2-5.16 18.95A4.57 4.57 0 0 1 1497 484c.25-.45 1.47-3.06 3.46-15 .12-.72.21-1.16.23-1.25 1.18-4.44 2.29-10.41 3.46-16.73 3.88-21 8.71-47.08 22.44-58.37 6.25-5.13 11.65-6.42 16.05-3.8 10.69 6.34 5.88 33.44 5.29 36.51-8.15 42.86-12.75 81.43-15.87 133.15A4.58 4.58 0 0 1 1527.51 562.79ZM1588.12 1344.09H1588a4.58 4.58 0 0 1-4.45-4.69c.7-25.22 1.38-88.75-1.15-113.22a4.57 4.57 0 1 1 9.1-.94c2.84 27.66 1.66 97.28 1.2 114.41A4.58 4.58 0 0 1 1588.12 1344.09ZM2153.68 779.5a4.5 4.5 0 0 1-1.25-.18c-36.89-10.59-66.38-20.83-92.8-32.23-31.53-13.61-65-26.82-96.94-25.59-8.11.31-16.29 1-24.19 1.6-9 .71-18.22 1.45-27.45 1.69h-.12a4.57 4.57 0 0 1-.12-9.13c9-.24 18.12-1 27-1.68 8-.63 16.27-1.29 24.57-1.61 33.78-1.3 68.42 12.3 100.91 26.33 26.06 11.24 55.2 21.36 91.69 31.83a4.57 4.57 0 0 1-1.26 9ZM2004.56 1075.56a4.78 4.78 0 0 1-.84-.08 4.58 4.58 0 0 1-3.66-5.33c5-26.7 30.81-162.4 48.51-211.65a4.57 4.57 0 0 1 8.6 3.1c-17.46 48.58-43.15 183.64-48.12 210.23A4.57 4.57 0 0 1 2004.56 1075.56Z"></path>
    <path fill="#571519" d="M2107 1344.9a4.58 4.58 0 0 1-4.46-3.57c-7.18-31.87-26.66-95.83-45.51-157.67-22.06-72.41-42.89-140.79-46.57-164.92a4.57 4.57 0 0 1 9-1.38c3.58 23.48 25.28 94.73 46.28 163.63 18.88 62 38.42 126.13 45.68 158.33a4.58 4.58 0 0 1-3.46 5.47A4.94 4.94 0 0 1 2107 1344.9ZM2006.55 1342.38a4.56 4.56 0 0 1-4.57-4.51c-.72-58.27-18.11-116-34.93-171.9-5.44-18.1-11.08-36.81-16-55.15-21-77.88-37.6-160.87-52.35-261.19-1.18-8-2.26-16.06-3.34-24.15-4.06-30.24-8.24-61.5-17.82-90.24l-.7-2.21c-6.8-21.67-10.56-24.65-11.55-25a4.43 4.43 0 0 1-4.43-4.55 4.68 4.68 0 0 1 4.72-4.55c8.4 0 14.06 12.55 20 31.41l.65 2c9.85 29.57 14.1 61.27 18.21 91.93 1.08 8 2.15 16.07 3.32 24 14.7 100 31.27 182.62 52.14 260.15 4.9 18.21 10.52 36.85 15.94 54.89 17 56.46 34.58 114.85 35.32 174.42a4.57 4.57 0 0 1-4.51 4.62Z"></path>
    <path fill="#571519" d="m1964.44 1141.74-.42 0a4.57 4.57 0 0 1-4.14-5c10.86-120.53-2.89-263.36-9.64-306.31-1.3 0-3 .19-4.28.3-7.19.6-15.33 1.28-18.2-4.46-1.14-2.27-.81-2.95 3.16-11.23 3.89-8.08 10.38-21.6 14-33.1 5.46-17.51 5.58-31.1 4.7-34.54-2.13-1.3-9.2-3.3-13.54-4.52-6-1.69-11.66-3.29-14.88-5.14-7.62-4.35-14.13-10.74-20.42-16.93-10.52-10.34-20.46-20.1-34.62-20.1a4.57 4.57 0 1 1 0-9.14c17.9 0 29.65 11.55 41 22.72 6.15 6 12 11.75 18.55 15.52 2.26 1.29 7.88 2.87 12.83 4.27 9.3 2.63 15.15 4.38 17.91 7.14 4.89 4.89 2.48 26.41-2.82 43.44-3.78 12.14-10.46 26-14.45 34.34-.48 1-1 2-1.41 3a71.34 71.34 0 0 0 7.44-.34c6.24-.52 12.69-1.06 13.64 4.67 6.62 39.71 21.33 187.24 10.15 311.27A4.57 4.57 0 0 1 1964.44 1141.74ZM1950 747.7h0Zm-.53-.72ZM2338.12 978.19c-15.76 0-32.31-3.24-46-5.9-4.41-.86-8.54-1.66-12.25-2.28-14.27-2.38-33.68-6.07-56.17-10.36-68.67-13.08-162.72-31-187.54-25.6a4.58 4.58 0 0 1-2-8.94c26.64-5.8 117.88 11.59 191.2 25.56 22.43 4.27 41.8 8 56 10.32 3.78.63 8 1.45 12.5 2.33 31.46 6.13 74.54 14.55 86.9-17.59 3.57-9.29 5.75-37.4 5.07-65.4-.34-14-8.81-29.44-16.28-43.09l-2.65-4.88c-13.37-24.83-118.77-165.17-129.14-175.54a4.57 4.57 0 0 1 6.46-6.46C2255.22 661.31 2360.8 801.66 2375 828l2.62 4.82c7.58 13.85 17 31.09 17.4 47.26.61 25.3-1.14 57.09-5.67 68.9C2380.54 971.9 2360.1 978.19 2338.12 978.19Z"></path>
    <path fill="#571519" d="M2287,941.26a4.5,4.5,0,0,1-2.18-.55c-24.13-13.17-54.72-56.44-84.29-98.3-18.73-26.49-36.41-51.52-49.58-64.36-2.56-2.5-3.52-3.43,10.51-30.13,8.61-16.37,18.6-33.68,27.42-47.5,15.22-23.83,36.5-52.24,51.46-52.24a4.57,4.57,0,1,1,0,9.14c-6,0-21.12,12.58-43.76,48-17.22,27-34,59.45-37.38,68,13.5,13.83,30.67,38.11,48.79,63.76,27.63,39.09,58.93,83.4,81.2,95.54a4.57,4.57,0,0,1-2.19,8.58Z"></path>
    <path fill="#571519" d="M2155.44,770.15a4.54,4.54,0,0,1-3.52-1.65c-2.14-2.58-5.13-5.49-8.3-8.57-8.28-8.06-16.1-15.68-15.28-23.11,1.48-13.29,13.3-45.62,29.18-68.08,17.37-24.57,42.09-44.84,46.92-44.17,2.88.32,4.82,2.37,13.43,12.72,4.42,5.31,9.43,11.34,13.4,15.1A4.57,4.57,0,0,1,2225,659c-4.36-4.13-9.56-10.38-14.14-15.89-2.48-3-5.41-6.49-7.28-8.48-6.07,4.22-23.51,18-38.58,39.36-14.81,21-26.22,51.8-27.55,63.82-.34,3,8.06,11.16,12.57,15.55,3.34,3.26,6.5,6.33,8.95,9.28a4.57,4.57,0,0,1-3.51,7.49ZM2202,633.2Z"></path>
    <path fill="#571519" d="M2134.66 724.87a4.55 4.55 0 0 1-4.22-2.83c-9.61-23.35-27.33-48.89-46.25-66.65-5.09-4.77-10.78-8.72-16.81-12.91-6.64-4.61-13.52-9.38-19.47-15.34a216.24 216.24 0 0 1-16.48-19.32c-7.89-10-15.34-19.47-25-26.48-5.11-3.71-13-5.65-20.63-7.53-9.72-2.4-19.78-4.88-26-11.32-3.52-3.62-4.34-8-2.26-11.89 4.8-9.1 25.8-13.5 36.9-11.57 9.13 1.59 16 5.18 22.69 8.64a92.44 92.44 0 0 0 14.25 6.42c5.56 1.84 11.92 1.11 18.66.34a78 78 0 0 1 14.59-.75c13.14 1 22.26 7.23 31.9 13.86 1.26.87 2.54 1.75 3.84 2.62a4.57 4.57 0 0 1-5.1 7.59l-3.92-2.68c-9-6.17-16.72-11.49-27.39-12.27a71.42 71.42 0 0 0-12.89.71c-7.41.85-15.08 1.73-22.56-.74a101.1 101.1 0 0 1-15.6-7c-6.32-3.29-12.3-6.4-20-7.74-10.91-1.92-26.75 3.93-27.33 7h0a3.13 3.13 0 0 0 .81 1.1c4.43 4.57 12.8 6.63 21.67 8.81 8.49 2.09 17.26 4.26 23.81 9 10.66 7.75 18.85 18.15 26.78 28.22a208.68 208.68 0 0 0 15.76 18.5c5.38 5.39 11.62 9.72 18.23 14.31 6 4.18 12.27 8.52 17.85 13.75 19.81 18.59 38.37 45.35 48.44 69.83a4.57 4.57 0 0 1-2.49 6A4.64 4.64 0 0 1 2134.66 724.87ZM2191.43 641.67a4.6 4.6 0 0 1-2.55-.78c-9.76-6.57-18.38-18.6-25.31-28.26-1.29-1.8-2.53-3.53-3.71-5.13a4.57 4.57 0 1 1 7.35-5.43c1.21 1.64 2.47 3.4 3.79 5.23 6.5 9.07 14.59 20.35 23 26a4.57 4.57 0 0 1-2.55 8.37Z"></path>
    <path fill="#571519" d="M2155.38,623.28a4.5,4.5,0,0,1-1.94-.44,4.56,4.56,0,0,1-2.18-6.08c12.23-25.91,13.79-48.64,15.59-75,.66-9.68,1.35-19.68,2.62-30.3,1.61-13.42,6-26.19,10.17-38.54,1.55-4.55,3.1-9.09,4.51-13.66l.56-1.73c9.15-28,5.89-33.37,5.14-34.17-.52-.55-2.29-.16-2.81,0-4.86,1.25-9.22,10.68-11.56,15.74l-.81,1.74c-2.67,5.65-4.69,13.16-6.82,21.1-4.17,15.52-8.89,33.11-20.47,42.21a4.57,4.57,0,1,1-5.65-7.18c9.19-7.22,13.31-22.56,17.29-37.4,2.25-8.35,4.37-16.24,7.38-22.63l.78-1.67c3.39-7.34,8.52-18.42,17.56-20.76,6.2-1.61,9.81.54,11.77,2.62,5.66,6,4.7,19.36-3.12,43.26l-.51,1.59c-1.43,4.65-3,9.27-4.59,13.91-4.05,11.9-8.24,24.21-9.74,36.68-1.24,10.39-1.92,20.27-2.58,29.83-1.79,26.1-3.48,50.76-16.45,78.23A4.57,4.57,0,0,1,2155.38,623.28Z"></path>
    <path fill="#571519" d="M2147,501.44a4.57,4.57,0,0,1-4.3-3c-7.77-21.65-4.87-50.4-2.55-73.5.64-6.39,1.25-12.43,1.55-17.6.54-9.31-.83-19.59-5-22.78-2.6,2.7-6.62,13-7.72,17.67-3.94,16.8-6.66,37.3-8.09,60.93l-.17,3.05c-.36,7.15-.81,16-3.95,22.69a4.57,4.57,0,0,1-8.27-3.91c2.37-5,2.77-12.9,3.09-19.24l.17-3.15c1.47-24.14,4.27-45.15,8.32-62.46,0-.2,5.25-20.46,13.26-24.32a7.3,7.3,0,0,1,6.35-.09c11,5.2,11.7,22.37,11.13,32.14-.31,5.36-.93,11.49-1.58,18-2.23,22.18-5,49.79,2.06,69.49a4.58,4.58,0,0,1-2.76,5.85A4.63,4.63,0,0,1,2147,501.44Z"></path>
    <path fill="#571519" d="M2112.52,492.48a4.58,4.58,0,0,1-4.52-3.91c-2.31-15.66-3.92-32.45-5.2-54.46q-.53-9-1-18.09l-.54-10.54c-.13-2.67-.18-5.53-.24-8.48-.16-10-.35-21.33-4.6-29.08-1.48-2.7-2.47-3.09-2.48-3.09-1.75.49-6.11,8.2-7.23,17.91-1.54,13.39-1.46,27.76-1.39,41.65.11,20.59.22,41.88-4.72,61.77a4.58,4.58,0,0,1-8.88-2.21c4.68-18.77,4.56-39.48,4.46-59.51-.07-14.17-.15-28.82,1.46-42.75,1.08-9.43,5.9-24.1,14.73-25.83,3.25-.63,8,.19,12.06,7.67,5.33,9.73,5.54,22.26,5.73,33.32.05,2.83.1,5.58.23,8.15l.54,10.57c.3,6,.6,12,1,18,1.27,21.73,2.85,38.27,5.12,53.66a4.56,4.56,0,0,1-3.85,5.19A5.16,5.16,0,0,1,2112.52,492.48Z"></path>
    <path fill="#571519" d="M2047.79 562.81a4.56 4.56 0 0 1-4.55-4.29c-3.13-51.71-7.72-90.29-15.88-133.16-.58-3.06-5.41-30.15 5.29-36.5 4.41-2.61 9.81-1.34 16 3.8 13.74 11.29 18.56 37.39 22.44 58.36 1.17 6.33 2.28 12.3 3.45 16.7 0 .13.12.57.24 1.28 2 12.17 3.26 14.64 3.48 15a4.53 4.53 0 0 1-.89 6.36 4.63 4.63 0 0 1-6.44-.91c-1.34-1.75-2.89-5.26-5.16-19l-.12-.69c-1.2-4.48-2.34-10.62-3.55-17.13-3.41-18.48-8.09-43.79-19.25-53-3.65-3-5.41-3.09-5.58-3-2.67 1.58-3.17 15.43-1 26.93 8.23 43.28 12.87 82.2 16 134.32a4.57 4.57 0 0 1-4.29 4.83ZM1987.17 1343.72a4.58 4.58 0 0 1-4.57-4.44c-.46-17.14-1.6-86.69 1.21-114a4.63 4.63 0 0 1 5-4.08 4.57 4.57 0 0 1 4.08 5c-2.52 24.42-1.88 86.55-1.17 112.82a4.57 4.57 0 0 1-4.44 4.69ZM1779.92 798.23a89.7 89.7 0 0 1-36-7.4c-17.09-7.43-32.59-20.34-44.84-37.36-.36-.5-.87-1.15-1.46-1.91-5.18-6.61-9.68-13-8-18.56a4.57 4.57 0 0 1 8.79 2.52c0 1.48 2.16 5 6.41 10.41.67.87 1.26 1.62 1.68 2.2 11.28 15.68 25.49 27.55 41.07 34.32C1788 800 1832 779.72 1857.5 757c8.14-7.27 16.33-15.13 19.07-24.16a4.57 4.57 0 0 1 8.75 2.66c-3.44 11.29-13 20.54-21.73 28.32C1843.49 781.74 1812.49 798.23 1779.92 798.23Zm-81.55-62.77h0ZM1793.49 464.69a4.55 4.55 0 0 1-2-.48c-13.78-6.9-25-21.43-30.13-38.87-4.82-16.53-3.33-33.09 4.07-45.42a4.57 4.57 0 1 1 7.84 4.7c-6.1 10.16-7.24 24.07-3.14 38.16 4.39 15.05 13.9 27.48 25.45 33.25a4.57 4.57 0 0 1-2 8.66Z"></path>
    <path fill="#571519" d="M1770.18 471.29a4.58 4.58 0 0 1-2.35-.65c-14.17-8.51-22.66-21.05-24.53-36.26-2.33-18.89 5.86-39.75 21.89-55.78a4.57 4.57 0 1 1 6.47 6.46c-13.85 13.85-21.24 32.32-19.29 48.2 1.52 12.32 8.49 22.53 20.17 29.54a4.57 4.57 0 0 1-2.36 8.49ZM1789.54 457.65a4.52 4.52 0 0 1-3.23-1.34c-8.5-8.49-10.61-34.12-1.32-43.4a4.57 4.57 0 1 1 6.46 6.46c-5.57 5.57-3.88 25.28 1.32 30.48a4.57 4.57 0 0 1 0 6.46A4.52 4.52 0 0 1 1789.54 457.65Z"></path>
    <path fill="#571519" d="M1809.76 459.85a4.57 4.57 0 0 1-2.53-.77c-11.79-7.86-28.91-36.44-20.46-53.34a4.57 4.57 0 1 1 8.18 4.09c-5.49 11 7.34 35 17.35 41.65a4.57 4.57 0 0 1-2.54 8.37ZM1692.34 510.43a4.57 4.57 0 0 1-3.11-7.92A213.38 213.38 0 0 1 1712 483.78c-3.46.41-7.22.92-11 1.52a32.29 32.29 0 0 0-4.54 1.71c-4.42 1.88-7.93 3.36-10.61.51a5.18 5.18 0 0 1-.66-6.12c2.09-4.17 7.78-6.65 13.92-9l1.63-.64c17.93-7.42 33-7.42 50.46-7.38h2.74a4.57 4.57 0 0 1 0 9.14h-2.75c-7.67 0-14.59 0-21.37.57 2.76.52 3.55 1.45 4.17 2.19a5.26 5.26 0 0 1 1 5.11c-1.06 3.16-4.52 4.68-12.77 7.64-1.37.5-3.25 1.17-3.72 1.42a199.53 199.53 0 0 0-23 18.79A4.55 4.55 0 0 1 1692.34 510.43Zm34.82-33.37ZM1691 554a4.57 4.57 0 0 1-4.57-4.57c0-14.46 8-31.35 18.54-39.28a4.57 4.57 0 0 1 5.48 7.31c-8.21 6.16-14.88 20.5-14.88 32A4.58 4.58 0 0 1 1691 554ZM1907 479.45a4.52 4.52 0 0 1-2.74-.92c-10.42-7.81-23.48-11.34-39.8-10.7l-3.65 1.1c-19.92 6-19.91 6-22.12 3.85a6 6 0 0 1-1.8-4.55c.18-3.26 2.77-5.36 5.06-7.21a17.49 17.49 0 0 0 1.54-1.32 65.46 65.46 0 0 1 7.34-6.27l-.66.34c-.71.39-1.74.94-4.06 2.05-4.36 2.08-8.64 4.25-12.92 6.42l-6.63 3.35a4.57 4.57 0 0 1-4.09-8.18l6.58-3.32c4.35-2.2 8.7-4.41 13.11-6.52 2.12-1 3-1.51 3.7-1.85 1.75-.94 2.13-1.1 10-4.09 13-4.95 17.83-6.3 20.24-1.85 2.49 4.61-1.37 7.43-12.83 15.79-2.32 1.69-4.77 3.48-7 5.18l1.86-.57c4.76-1.44 4.76-1.44 5.44-1.46 18.75-.78 33.85 3.29 46.13 12.5a4.57 4.57 0 0 1-2.74 8.23ZM1844.91 389.52a4.57 4.57 0 0 1-4.51-3.86c-4.56-29.12-16.22-44.28-37.78-49.17a95.13 95.13 0 0 0-12.46-1.53c-9.16-.74-19.54-1.58-27.14-6.85-6.49-4.5-13.58-14.35-14.55-24.46-.57-5.93 1.1-11.1 4.84-14.94a4.57 4.57 0 0 1 6.55 6.38c-1.83 1.88-2.6 4.46-2.29 7.68.67 6.91 6 14.63 10.66 17.83 5.58 3.87 14.27 4.57 22.67 5.25a99.07 99.07 0 0 1 13.74 1.73c25 5.67 39.7 24.21 44.79 56.66a4.58 4.58 0 0 1-3.81 5.23A5.78 5.78 0 0 1 1844.91 389.52Z"></path>
    <path fill="#571519" d="M1752.22 337.92a4.52 4.52 0 0 1-3.18-1.3c-6.77-6.59-8.37-19.2-7-28.78s5.89-17.15 12.19-20.41a4.57 4.57 0 1 1 4.19 8.12c-3.6 1.87-6.34 7-7.33 13.63-1.24 8.33.6 17.31 4.27 20.89a4.57 4.57 0 0 1-3.19 7.85ZM1737.07 345c-7.65 0-32.55-2.07-42.11-13.2a15.24 15.24 0 0 1-3.64-12.93 4.57 4.57 0 0 1 9 1.59 6.09 6.09 0 0 0 1.57 5.39c6.38 7.41 26.81 10.22 35.76 10a4.45 4.45 0 0 1 4.68 4.46 4.57 4.57 0 0 1-4.46 4.67ZM1613.2 452.27a4.46 4.46 0 0 1-2.22-.58 4.56 4.56 0 0 1-1.76-6.22 134.35 134.35 0 0 0 7.64-17.13c3.75-9.63 7.62-19.59 16.23-29.25a14.57 14.57 0 0 1 2-1.77 9.92 9.92 0 0 1-4.32.3 5.18 5.18 0 0 1-4.31-4c-.81-3.73 2.3-5.91 5.89-8.44a26.58 26.58 0 0 0 2.42-1.81 201.71 201.71 0 0 1 16.6-13.9c9.4-7 33.84-22.87 57.9-18.29a4.57 4.57 0 0 1-1.71 9c-20.46-3.89-42.29 10.34-50.72 16.63-1.66 1.24-3.34 2.54-5 3.89 3.87-.79 9.75-1.49 12.16.79a5.06 5.06 0 0 1 1.44 4.41c-.45 2.39-.91 2.69-12.68 10.44-4.66 3.07-11.72 7.71-12.91 8.88-7.45 8.37-10.86 17.14-14.48 26.43a141.26 141.26 0 0 1-8.17 18.27A4.58 4.58 0 0 1 1613.2 452.27ZM1602.36 498.38c-7.65 0-14.82-2.34-19.11-8.64a5.29 5.29 0 0 1-.15-5.49c1.83-2.81 4.91-2.22 6.76-1.87a11.71 11.71 0 0 0 1.36.23l2.19-.6a84.44 84.44 0 0 0 8.27-2.57c7.15-2.78 13.9-11.63 17.15-18.67a4.57 4.57 0 0 1 8.3 3.83C1623.3 472.89 1615.21 484 1605 488c-1.23.48-2.47.9-3.71 1.29a39.59 39.59 0 0 0 13.78-2.32 4.57 4.57 0 0 1 3 8.65A49.33 49.33 0 0 1 1602.36 498.38Zm-11.48-15.67h0ZM1638.88 561.67a4.53 4.53 0 0 1-2.74-.91c-14.63-11-20.72-43.4-13.8-57.07a4.57 4.57 0 0 1 8.16 4.13c-4.64 9.15-.28 37.06 11.13 45.63a4.57 4.57 0 0 1-2.75 8.22ZM1850.81 381.29a4.57 4.57 0 0 1-4-6.73c5.16-9.65 7.54-23.2 1.23-31.72a4.57 4.57 0 0 1 7.35-5.44c9.28 12.54 5.52 30.17-.52 41.48A4.57 4.57 0 0 1 1850.81 381.29Z"></path>
    <path fill="#571519" d="M1945.45 405.63a4.55 4.55 0 0 1-3.88-2.14c-5.47-8.7-18.33-20.43-26.91-25.92a14 14 0 0 0-9.25-2.56 23.64 23.64 0 0 0-2.61.64c-2.24.62-6 1.64-7.63-2.09a5 5 0 0 1 2-6l1.18-.72c-2.88 0-5.64-.24-8.24-.46-9.42-.77-16.2-1.34-23.09 7a4.57 4.57 0 1 1-7.06-5.81c9.93-12.07 21.07-11.14 30.91-10.33 5.18.44 10.08.84 15-.37 2.84-.69 6-3.37 8.72-5.73l1-.86a29 29 0 0 0 2.14-3.08c1.58-2.47 3.53-5.54 7.22-4.16a4.8 4.8 0 0 1 3 5.49c-1.35 9-6.86 14.69-12.93 18.91a28.62 28.62 0 0 1 4.5 2.36c9.37 6 23.41 18.7 29.72 28.76a4.56 4.56 0 0 1-3.86 7ZM1954.85 446.65a4.57 4.57 0 0 1-.43-9.11 11 11 0 0 0 4.17-1.12l-.47-.07c-8.52-1.27-26.37-12.1-27.42-23a4.57 4.57 0 1 1 9.09-.88c.49 5 13.14 13.87 19.68 14.84a29.4 29.4 0 0 0 7.49.27 20.13 20.13 0 0 1 2.5-1.88 4.92 4.92 0 0 1 5.22 0 4.64 4.64 0 0 1 1.92 4.67c-.38 2-2.77 4.53-5 5.51-.49.57-1 1.19-1.47 1.85-2.75 3.58-6.17 8-14.83 8.87A3.39 3.39 0 0 1 1954.85 446.65ZM1941.1 548.65a4.54 4.54 0 0 1-3-1.17c-1.51-1.35-1.53-2.27-1.63-6.17-.23-9.24-.58-14.64-1.05-16.06a4.72 4.72 0 0 1 2.63-5.86 4.64 4.64 0 0 1 3.4 0c2.66-22.51.18-40.88-7.87-59a4.57 4.57 0 0 1 8.36-3.71c9.42 21.17 11.83 42.58 7.84 69.4l0 .44c-2.08 18.41-3.85 21.66-8.13 22.09Z"></path>
    <path fill="#fff" fill-rule="evenodd" d="M1790.6,641.92c-17.27,0-35.22,2.08-35.22,2.08s6.91,29,33.84,30.38c25.54.69,35.91-29.7,35.91-29.7A250.83,250.83,0,0,0,1790.6,641.92Z"></path>
    <path fill="#571519" d="M1790.1,679h-1c-24.11-1.24-35.49-22.71-38.15-33.9a4.57,4.57,0,0,1,3.92-5.6,357.2,357.2,0,0,1,35.74-2.1,253.53,253.53,0,0,1,35.25,2.82,4.58,4.58,0,0,1,3.6,6C1829,647.51,1817.94,679,1790.1,679Zm-28.56-31c3.12,7.55,11,21,27.91,21.85,15.89.38,25.06-13.57,29-21.43a236.85,236.85,0,0,0-27.9-1.9C1779.57,646.49,1768.14,647.37,1761.54,648Z"></path>
  </g>
  <g>
    <path fill="#fff" fill-rule="evenodd" d="M593.21,1053.32c2.08-17,2.28-56.91,10-92.74a155,155,0,0,1,18.11-46.92c11.21-19,25.41-31.14,44.89-36.26,16.68-4.38,33.17-2.6,50.82-3,6.56-.15,16.19-1.95,21.86-2.54a63.18,63.18,0,0,0,27.93-9.52c12.35-7.36,23.83-13.44,32.37-13.44,52.72,0-9.06,494.78-9.06,494.78H663.68l-.49-66.75s-9.93,17.19-21.37,26.18c-11.76,9.25-25.12,10.31-31,10.31-8.52,0-24.34-8.8-41.87-29.46-18-21.2-37.8-54.6-55.64-81.21-10.89-16.24-14.41-18.58-16.35-30.09-.65-3.82.19-7.53.74-11.61,4.49-32.56,42.5-71.44,48.83-85.87,3.09-7.08,9.54,3.47,18.4,17.18,6.94,10.77,17,24.83,17,24.83s3.46-14.7,6-28.84C590.67,1073.75,592.44,1059.6,593.21,1053.32Z"></path>
    <path fill="#f68f80" fill-rule="evenodd" d="M516.76,1184.77l-25.86-36.1-3.37-12.56,5-8.91,48.81-54.37,5.08,4.24,8.62,14.3s-2.06,18.88-4.5,30.67-5.74,25.44-7.88,31-5.69,14.92-10.67,20.29S516.76,1184.77,516.76,1184.77Z"></path>
    <path fill="#ffe4ce" fill-rule="evenodd" d="M413.29,1031.45a134.39,134.39,0,0,0-19.53-17c-13-8.91-28.43-16.27-40.7-26.82-14.44-12.41-15.48-20.77-15.88-24-.31-2.4-.63-11.3,8.32-7.41,11.19,4.88,23.55,14.14,38.05,22.32,12.6,7.11,28.07,13.71,30.06,12.15s-17.56-25.35-31.36-47.64c-8.16-13.17-10.63-23.55-15.53-34.56-5.36-12,.18-21.79,4.41-21.4,2.06.19,5.7,2.06,11.5,9.83,6.56,8.78,14.67,23.53,24.19,36.83,8.7,12.18,20.66,28.05,28.07,36.7,6.25,7.3-29.85-53-44.27-91.34-5.68-15.11-.21-29.36.77-30.86s7-.95,12.11,5.93c6.65,8.9,7.93,20.17,16.68,35.29,7,12.16,12.8,25.06,20.15,36,9.53,14.25,19.91,25.11,20.59,25.11s-4-19.41-9.12-37c-3.8-13-7.69-22.42-10.52-36-2.93-14.1-3.49-24.63-2.18-32.17,1-5.8,10.54-.74,12,.87,3.83,4.3,9.44,20.22,17.6,42.64,9.05,24.87,21.87,49.34,30.55,69.25,6.14,14.12,11.25,25.65,11.25,25.65s13.16-11.53,17.73-19.63c6.59-11.72,10.7-23.67,18.82-28.1,11.26-6.15,27.63-9.28,30.78-5.79,1.8,2,3.25,6.81-.73,12.36-5.22,7.28-17,16.33-21.92,27-8.17,17.78-6.49,43.43-11.21,59.65-3.08,10.63-15.83,22.32-15.83,22.32l14.67,23L533,1097.52,522.76,1121l-13.33,19-10.06,4-33.14-57.28a50.1,50.1,0,0,1-15.71-3c-4.78-1.9-8.71-5.94-11.4-8.68C426.42,1062.08,421.48,1041.49,413.29,1031.45Z"></path>
    <path fill="#fff" fill-rule="evenodd" d="M1158.1,1053.32c-2.09-17-2.28-56.91-10-92.74A155.3,155.3,0,0,0,1130,913.66c-11.21-19-25.4-31.14-44.89-36.26-16.68-4.38-33.17-2.6-50.82-3-6.56-.15-17.4-1.4-17.4-1.4a11.49,11.49,0,0,0-5.73-6.5c-8-4.32-22.12-8.47-26.63-10.42-16.41-7.08-25.31-7.94-33.86-7.94-52.71,0,10.53,495.54,10.53,495.54h126.43l.5-66.75s9.92,17.19,21.36,26.18c11.76,9.25,25.12,10.31,31,10.31,8.52,0,24.34-8.8,41.88-29.46,18-21.2,37.79-54.6,55.63-81.21,10.89-16.24,14.41-18.58,16.35-30.09.65-3.82-.18-7.53-.74-11.61-4.49-32.56-42.5-71.44-48.82-85.87-3.1-7.08-9.55,3.47-18.4,17.18-6.95,10.77-17,24.83-17,24.83s-3.45-14.7-6-28.84C1160.63,1073.75,1158.87,1059.6,1158.1,1053.32Z"></path>
    <path fill="#f68f80" fill-rule="evenodd" d="m1234.54 1184.77 25.87-36.1 3.36-12.56-5-8.91L1210 1072.83l-5.07 4.24-8.63 14.3s2.07 18.88 4.5 30.67 5.74 25.44 7.88 31 5.7 14.92 10.67 20.29S1234.54 1184.77 1234.54 1184.77ZM786 1030.83c0-47.35-2.72-148.34-2.72-148.34l183.17-8.16s8.12-.4 8.17 1.09c.18 5.79 2.32 19 2.93 38 1.3 40.33 1.43 98.79 1.43 112l0 143.66 1.2 174.26-190.27 1.17s-.45-90.29-1.55-175.54C787.5 1108.72 786 1050.43 786 1030.83Z"></path>
    <path fill="#926359" fill-rule="evenodd" d="M896.4,450.71c3.09,0-5.14,2.9-11.34,8-4.59,3.8-5.78,10.72-5.78,10.72s7.82-4.73,15-4.72c15.72,0,37.94,5.19,50.71,12.63,9.68,5.63,27.2,14.36,36.44,18.75,5.77,2.74-4.41,6.88-11.76,6s6,18.28,6,18.28l24.56,27.85L1010.66,573l4.15,27.16.19,31.31-4.51,24.65-6,19.42L968.07,787.65l-183,1.38L745.33,678.81l-4.43-15.35s-17.16-.07-26.93-4.91A21.84,21.84,0,0,1,702.48,644s9.68,6.68,18.88,6.37,17.94-7.6,17.94-7.6-3.55-25.49-1.88-46.73A143.12,143.12,0,0,1,746,557.75l2.95-29.29a40.44,40.44,0,0,1,16.65-16.14c8.72-4.36,23.26-3.78,28.35-6.48,1.77-.82-3.34-11.28-2.06-20.1,1.76-12.1,9.95-23.39,13.29-23.34s-10.76,11.64-2.07,26.87c2.68,4.7,8.59,11.42,14.12,13.46,5.28,1.95,10.2-.67,11.59-1.36,2.55-1.16,2-5.55,3.65-9.66a60.14,60.14,0,0,1,14-20.67c7.54-7.2,18.57-13.27,28.62-16.67A68.41,68.41,0,0,1,896.4,450.71Z"></path>
    <path fill="#ffe4ce" fill-rule="evenodd" d="M811.32,816.66a138.94,138.94,0,0,1-25.55-33.15c-10.36-19.33-15.88-44.19-15.88-44.19s-28.31,0-33.84-35.22c-4.14-24.17,22.79-28.32,22.79-28.32l9.67,12.43,10.36,8.29s-3.46-13.81-3.46-25.55c0-11.05,2.6-27,2.6-27l18.25-16.75s9-12,9.84-19.21-6.68-9.62-6.68-9.62L813.53,593l-5-5-12.87-3.45,18.93-3.73,20.79.77,21.53,1.67,16-.36,8.74-11,14.5-9.31-9.8,19.7,14.2-7.24L903,590.83l10.55-4.66L925,590.45l22.66,26.49,4.65,5.64,9,4.1,10.91,24.94A131.52,131.52,0,0,1,975,676.48v19.33l9.67-9.66,6.9-11.75s27.62-2.76,26.24,22.79c-1.38,32.46-33.83,40.75-33.83,40.75s-6.22,24.85-18,44.88-29,34.52-29,34.52-34.94,28.52-62.33,28.15C853.48,845.21,811.32,816.66,811.32,816.66Z"></path>
    <path fill="#ffe4ce" fill-rule="evenodd" d="M799.56,806.31l147.65,1.82s.26,12.58.39,21.28,3,20.11,5.45,26.46,12.07,17.78,12.07,17.78a21.83,21.83,0,0,1-7.66,10.9c-6,4.41-21.54,13.1-27.5,15.7s-26.09,7.27-37.37,8.69-25.44.65-38-1.16-34.26-7.14-42.3-10.38S783,881.57,783,881.57l1.43-10.78s5.58.79,8.17-4.27,6.49-14.28,7.52-19.85a132.85,132.85,0,0,0,2.34-18.82C802.67,821.23,799.56,806.31,799.56,806.31Z"></path>
    <path fill="#926359" fill-rule="evenodd" d="M548.93 557.3c0-12.95 11.39-43.35 30.82-42.69 1.36 0-9.14-6.44-15.63-14.38-5.62-6.87-7.4-14.88-6.13-20.11s1.42 4.19 10.57 3.45c7.76-.62 24.75-11.7 25.42-12.36 3.11-3.12 4-11 6.56-15.81 11.15-20.75 31.41-27.25 43.7-27.25 16.43 0 36.08 9.71 47.57 34.09.84 1.78 2.79-7.84 6.74-14.55 3.52-6 9-9.15 11-7.88 4.62 2.85-10.61 6.26-3.11 29.7 3 9.41 9.08 13.11 15.11 19.85 9.69 10.85 19.69 23.21 19.69 32.35 0 7.06-2.49 25.88-1.5 34.09.3 2.49-4.12 30.43-11.66 37.28-8.53 7.77-17.25 19.49-29.31 25.1-12.41 5.77-28.2 5.31-39.4 5.31-4.08 0-23.59 5.69-31.78 13.79-7.17 7.09-3.09 16.84-6.42 15.37-3.81-1.69-6.74-10-8.23-19a139.05 139.05 0 0 1-1.57-19.3s-9.53 6-20.21 2.74c-17.39-5.34-24.93-16.44-27.47-21.57C556.19 580.34 548.93 570.74 548.93 557.3ZM1201.12 550.49c0-13-11.39-43.34-30.82-42.68-1.36 0 9.14-6.44 15.63-14.38 5.62-6.88 7.41-14.89 6.14-20.12s-1.43 4.19-10.57 3.46c-7.77-.62-24.76-11.7-25.42-12.37-3.12-3.11-4-11-6.56-15.8-11.15-20.75-31.42-27.25-43.7-27.25-16.44 0-36.08 9.7-47.58 34.09-.84 1.77-2.79-7.85-6.74-14.56-3.51-6-9-9.15-11-7.87-4.62 2.84 10.61 6.25 3.1 29.7-3 9.41-9.07 13.11-15.1 19.85-9.69 10.84-19.69 23.21-19.69 32.35 0 7.05 2.49 25.88 1.5 34.09-.3 2.49 4.12 30.43 11.67 37.28 8.53 7.76 17.24 19.49 29.3 25.1 12.41 5.77 28.2 5.3 39.39 5.3 4.09 0 23.6 5.7 31.78 13.8 7.17 7.09 3.11 16.84 6.43 15.37 3.81-1.69 6.74-10 8.23-19a139.05 139.05 0 0 0 1.57-19.3s9.54 6 20.22 2.74c17.37-5.35 24.93-16.45 27.47-21.58C1193.86 573.54 1201.12 563.93 1201.12 550.49Z"></path>
    <path fill="#f68f80" fill-rule="evenodd" d="M746.12 555.26c2.3 2.57-.54 6.27-1.68 8.86-2.68 6.09-5.17 15.32-5.33 22-.06 2.39.06 7.27-3.55 6.89-9.87-1.05-5.91-24-2.49-28.91 2-2.89 4.86-6.27 8.13-7.85A22.91 22.91 0 0 1 746.12 555.26ZM998.65 546.16c4.62 2.69 8.64-.41 13.81 3.87 9.2 7.58 17.82 31.71 2.17 37.77-2.06.8-2.54-5.45-2.85-6.62-2-7.71-3.57-15.29-7-22.53a83.94 83.94 0 0 0-4-8.46C1000 548.89 997.33 545.39 998.65 546.16Z"></path>
    <path fill="#ffe4ce" fill-rule="evenodd" d="M1337.48,1031.33a134.77,134.77,0,0,1,19.54-17c13-8.91,28.43-16.26,40.69-26.81,14.44-12.41,15.48-20.78,15.89-24,.3-2.39.62-11.3-8.33-7.4-11.18,4.87-23.55,14.13-38,22.32-12.6,7.11-28.07,13.71-30.06,12.15s17.56-25.36,31.36-47.64c8.17-13.17,10.63-23.55,15.53-34.56,5.36-12-.18-21.79-4.41-21.4-2.05.19-5.7,2.06-11.5,9.83-6.56,8.77-14.67,23.54-24.18,36.83-8.71,12.17-20.67,28-28.08,36.7-6.25,7.3,29.85-53,44.27-91.34,5.68-15.11.22-29.36-.77-30.86s-7-1-12.11,5.93c-6.65,8.9-7.93,20.16-16.67,35.29-7,12.16-12.81,25.05-20.15,36-9.54,14.24-19.92,25.1-20.59,25.1s4-19.4,9.12-37c3.78-13,7.68-22.42,10.51-36,2.93-14.1,3.5-24.63,2.18-32.18-1-5.8-10.54-.73-12,.88-3.82,4.29-9.44,20.21-17.6,42.63-9,24.88-21.87,49.35-30.55,69.26-6.14,14.12-11.25,25.64-11.25,25.64s-13.16-11.52-17.72-19.63c-6.6-11.71-10.7-23.66-18.82-28.08-11.27-6.15-27.64-9.3-30.79-5.8-1.8,2-3.25,6.8.74,12.36,5.21,7.27,17,16.33,21.91,27,8.17,17.78,6.5,43.43,11.21,59.65,3.08,10.63,15.83,22.32,15.83,22.32l-14.66,23,9.78,22.83,10.24,23.46,13.33,19,10.06,4,33.14-57.28a49.94,49.94,0,0,0,15.71-3c4.78-1.88,8.71-5.94,11.4-8.68C1324.35,1062,1329.29,1041.38,1337.48,1031.33Z"></path>
    <path fill="#9e9287" fill-rule="evenodd" d="M769.87 733.37c5.82.33 11.18-7.21 17.77-8.34 7.19-1.23 7.2 6 13 5.86 1.56 0 8.43-4.88 9.48-2.81s-2.87 6.74-1.63 8.33c1.66 2.12 6.92.27 7.17 3.62.48 6.25-9.43 9-8.92 15.67.33 4.31 8.9 2.1 10.67 5 1.23 2-2.55 5.07-1.41 6.53s4.19 1.47 5.1 3.06c.82 1.42-6.08 20.77-9.23 23.24-3.92 3.06-8 .17-12 1-2.78.56-3.57 3.38-7.27 2.15-3.36-1.11-4.93-8-6.59-10.85-5.28-9.17-8.64-19.59-11.6-29.75C773.58 753.16 765.61 733.13 769.87 733.37ZM883.9 732.23c-24.22 3.65-26.74-37.37-7.56-37.79 8.81-.19 11.55 8 15.07 14.49C897.32 719.74 901.56 729.57 883.9 732.23ZM983 728.86c-10.75-2.87-25.25-6.72-34.32 3.1-2 2.16-.77 6.47-1.85 9.13-6.41 16-12.77 39.63 9.81 45.25 15.69 3.91 20.17-31.91 22.89-41.28C980.47 741.65 987 729.94 983 728.86ZM929.77 783.74c-6.57-2.09-15.58 14.07-10 18.08C927.55 807.38 945.27 788.65 929.77 783.74ZM1009.65 653.51c-8.24.39-17.35-3-21.47-10.78-3.74-7.09 3.15-32.7 9.07-38.49 8.25-8.06 16.54 4.47 16.83 12 .22 5.49-1.18 11.5-1.74 17C1011.85 637.89 1014.32 653.28 1009.65 653.51ZM1045.7 605.75c2.28-5 2.72-10.76 6.49-14.83 4.34-4.7 14.25-2.95 19.94-6.68 11.13-7.29 13.43-26.86 30.16-27 11.57-.09 10.37 7.86 15.18 16.31 3.49 6.12 12.74 15.2 12.56 24.16-.06 3.51-4.77 7.76-6 11.42-1.13 3.39 3.36 6.07 1.37 10.07-5.77 11.62-35.26-2.72-45.66-3.78-9.13-.94-20.78 0-28.66-5C1049.93 609.63 1044.56 608.28 1045.7 605.75ZM717.22 485.79c24.43 12.77 24.46 36.11 22 60.73-.85 8.51-6.9 31.77-19.37 27-10.32-3.93-11-16-13.87-25.35-5.74-18.64-15.58-30.42-1-48.3C708.27 495.93 711.63 482.87 717.22 485.79ZM669 515.86c-6.68 0-5.84-13.78.88-14.81C680.37 499.44 678.16 515.86 669 515.86ZM688.77 875.84c-9.87 3.45-3.71 2.66-9.44 21.75-.9 3 4.91 10.92 5.31 14.27 1.17 9.73-7.57 41.59 11 38.38 12.51-2.15 17.82-17.42 26.64-24.52 6.79-5.47 14.5-3.37 21.41-8 9-6 28.83-41.93 22.89-53.32-.72-1.38-21.33 7.28-24.8 7.6C724.3 873.61 705.57 870 688.77 875.84ZM660 951.78c-5.35-6.1 3.88-23 12.87-17.21.82.53 5.25 20.51 4 21.48C671.27 960.61 663.27 955.48 660 951.78ZM980.13 1035.3c14.21-2.2 11.57 2 23.76 2.07 10.21.08 18.46-8.73 27.69-11.69 5.2-1.67 9.12-1.79 13 2.38 19.74 21.43-1.18 37.9-7.23 57.94-1.83 6.07-1.76 12.75-3.49 18.72-1.2 4.12-10.31 27.84-15.77 28.15-10.78.62-17.58-29.28-25.73-33.62-12-6.39-28.23 11.6-38.95 2.65-10.11-8.44-13-40.37-3.33-50.77 6.09-6.52 12.87.24 18.05-3.92C973.5 1042.84 971 1036.7 980.13 1035.3ZM1048.17 994.43c-12.59-13 16.09-28.71 25-23 4.37 2.8 12.27 29.31 5.8 32.44C1062.8 1011.71 1057.74 1004.34 1048.17 994.43ZM420.52 1037.2c-.07-2.39 1.21-4.66 2.27-6.81 15.7-32 32.49 16.15 38.85 20.69 9.53 6.81 32.15 7 29.76 23.71-1.41 9.93-24.57 13.18-32.28 10.09-4.51-1.8-11.05-1-14.64-4.54C437.42 1073.28 420.79 1047.1 420.52 1037.2ZM446.75 1010.21c-3.83-11.69 5.92-17.86 10.35-6.06C461.09 1014.82 449.58 1018.83 446.75 1010.21ZM1348.54 1017.35c-14-5.47-19.74-27.29-38.89-21.33-20.36 6.32-21.06 39.19-24.25 57-1.25 7-2.12 18.67 4.16 24 21.43 18 36.75-27.13 44.42-39.41 3.33-5.31 6.51-8.71 10.82-13.23C1346.48 1022.6 1349.84 1017.85 1348.54 1017.35ZM1131.91 1159.71c-1.57 6.43-3.7 13.47-3.21 20.15.61 8.23 6.9 8.21 10.53 14.66 4 7 12.32 39.34 26.56 27.47 7.31-6.09 7.9-19 9.16-27.47 3.73-25.18 22-62.66 10.07-86.55-2.93-5.85-11.45 4.59-13.28 6.41-10.41 10.41-20.77 20.52-29.76 32.51C1139.37 1150.37 1132 1159.24 1131.91 1159.71ZM1162.81 1239.85a3.08 3.08 0 0 0-2.51 2.75C1157.88 1285 1184.59 1239 1162.81 1239.85Z"></path>
  </g>
  <g>
    <path fill="#571519" d="M876.23 850.92h-.13c-1 0-25.23-1-59.79-25-23.58-15.72-31.74-33.22-36.62-43.67-7.81-15.64-12.8-36-17-55.81a4.57 4.57 0 1 1 8.93-1.91c4.11 19.16 8.92 38.91 16.2 53.46 4.94 10.6 12.14 26 33.66 40.37 32.17 22.32 54.71 23.39 54.93 23.4a4.57 4.57 0 0 1-.15 9.14ZM875.55 747.34a4.57 4.57 0 0 1-2.75-8.23c2.87-2.17 8.59-8 7.9-12.17-.58-2.28-2.28-4-4.42-6.21-2.94-3-6.61-6.79-8-13.66-1.55-7.74 2.38-22.54 2.83-24.2a4.57 4.57 0 0 1 8.82 2.4c-1.49 5.48-3.54 15.76-2.69 20s3 6.48 5.57 9.08 5.55 5.69 6.81 10.74c1.86 11.07-10 20.32-11.35 21.33A4.56 4.56 0 0 1 875.55 747.34Z"></path>
    <path fill="#571519" fill-rule="evenodd" d="M813.39,696.5c0-7.59,4.15-13.12,9.67-13.81,5.53,0,10.36,5.52,11.05,13.12,0,7.6-4.14,13.12-9.67,13.81C818.23,709.62,813.39,704.1,813.39,696.5Z"></path>
    <path fill="#571519" d="M806.39 687.2a4.57 4.57 0 0 1-2.81-8.17c7.47-5.81 26.37-9 37.17-1.53a4.57 4.57 0 1 1-5.2 7.51c-7-4.83-21.36-2.65-26.36 1.23A4.52 4.52 0 0 1 806.39 687.2ZM876.92 850.92a4.57 4.57 0 0 1 0-9.14c.22 0 19.4-.51 51.33-22 22.29-14.86 32.8-32.47 37.08-41.65 6.3-13.16 11.84-31.12 16.94-55a4.57 4.57 0 0 1 8.94 1.91c-5.26 24.54-11 43.17-17.61 56.95-4.67 10-16.13 29.25-40.26 45.33C898.74 850.65 877.8 850.92 876.92 850.92ZM949.22 636.52A4.51 4.51 0 0 1 947 636a40.47 40.47 0 0 0-34.73-1.18 4.57 4.57 0 1 1-3.51-8.43 49.73 49.73 0 0 1 42.61 1.58 4.57 4.57 0 0 1-2.19 8.59ZM942.42 687.2a4.57 4.57 0 0 1-2.81-1c-4.75-3.7-19.08-6.82-26.17-1.36a4.57 4.57 0 1 1-5.57-7.25c10.75-8.26 29.6-4.63 37.36 1.4a4.57 4.57 0 0 1-2.81 8.17ZM762.3 715.58a4.59 4.59 0 0 1-3.88-2.15c-1.08-1.72-3.61-4.86-5.76-5.93a4.57 4.57 0 0 1 4.08-8.18c5.14 2.57 9 8.58 9.43 9.26a4.58 4.58 0 0 1-3.87 7Z"></path>
    <path fill="#571519" d="M768.51,745.27a4.52,4.52,0,0,1-1.35-.21c-20.08-6.23-39.79-23-34.92-51.4,2.89-14.48,13.25-22.5,27.08-21a4.57,4.57,0,0,1-1,9.09c-11.68-1.26-15.76,6.73-17.14,13.62-4.84,28.28,20.7,38.54,28.64,41a4.57,4.57,0,0,1-1.35,8.94Z"></path>
    <path fill="#571519" fill-rule="evenodd" d="M914.9,697.19c0-7.6,4.15-13.12,9.67-13.81,5.53,0,10.36,5.53,11,13.12,0,7.6-4.14,13.12-9.67,13.82S914.9,704.1,914.9,697.19Z"></path>
    <path fill="#571519" d="M806.29 636.52a4.57 4.57 0 0 1-2.19-8.59 49.72 49.72 0 0 1 42.61-1.58 4.57 4.57 0 1 1-3.52 8.43A40.43 40.43 0 0 0 808.48 636 4.57 4.57 0 0 1 806.29 636.52ZM990.86 713.5a4.47 4.47 0 0 1-2.42-.7 4.56 4.56 0 0 1-1.45-6.29c.42-.68 4.28-6.69 9.42-9.26a4.57 4.57 0 0 1 4.09 8.17c-2.26 1.13-4.86 4.49-5.76 5.93A4.57 4.57 0 0 1 990.86 713.5Z"></path>
    <path fill="#571519" d="M984.65,743.89a4.57,4.57,0,0,1-1.36-8.94c8-2.46,33.49-12.72,28.62-41.13-1.1-5.86-4.95-15.51-18.3-13.52a4.57,4.57,0,1,1-1.36-9c14.84-2.23,25.81,5.79,28.66,20.94,4.87,28.47-14.84,45.24-34.91,51.47A4.57,4.57,0,0,1,984.65,743.89Z"></path>
    <path fill="#571519" d="M1005.36 679a4.57 4.57 0 0 1-4.31-6.09c.25-.68 23.83-69.15-3.15-118.51-6.46-11.62-16.5-23.29-29-33.72a4.57 4.57 0 1 1 5.85-7c13.39 11.14 24.17 23.7 31.18 36.33 29 53 4.82 123 3.77 126A4.56 4.56 0 0 1 1005.36 679ZM745.72 683.12a4.59 4.59 0 0 1-4.42-3.39c0-.21-1.38-5.21-3-13.35a4.57 4.57 0 0 1 9-1.78c1.55 7.82 2.85 12.72 2.86 12.77A4.56 4.56 0 0 1 746.9 683 4.41 4.41 0 0 1 745.72 683.12ZM738.78 644.16a4.57 4.57 0 0 1-4.53-4.08c-2.38-21.72-2.63-65.17 11.55-90.21a4.57 4.57 0 0 1 8 4.51c-11.35 20-13.36 58-10.43 84.71a4.56 4.56 0 0 1-4 5ZM778.17 701.77a4.54 4.54 0 0 1-2.5-.75c-.9-.59-22.09-14.76-22.09-39a4.57 4.57 0 1 1 9.14 0c0 9.44 4.26 17.14 8.64 22.55-1.16-9.36-1.77-21.75 1-31.42a4.57 4.57 0 1 1 8.77 2.56c-4.44 15.24 1.38 40.23 1.44 40.48a4.57 4.57 0 0 1-4.45 5.63ZM972.91 702.45a4.55 4.55 0 0 1-4.52-5.26c0-.26 3.91-26.05-1.2-41.37a4.57 4.57 0 0 1 8.67-2.89c3.33 10 3.41 23.15 2.85 32.78 4.44-5.63 9-13.8 9-23.74a4.57 4.57 0 1 1 9.14 0c0 24.18-20.38 39-21.25 39.63A4.52 4.52 0 0 1 972.91 702.45Z"></path>
    <path fill="#fff" fill-rule="evenodd" d="M877.61,768.32c-17.26,0-35.21,2.07-35.21,2.07s6.9,29,33.83,30.38c25.56.69,35.91-29.69,35.91-29.69A250.83,250.83,0,0,0,877.61,768.32Z"></path>
    <path fill="#571519" d="m877.12 805.36-1 0c-24.12-1.23-35.5-22.71-38.16-33.89a4.59 4.59 0 0 1 3.92-5.6 354.1 354.1 0 0 1 35.74-2.1 251.61 251.61 0 0 1 35.25 2.82 4.57 4.57 0 0 1 3.61 6C916 773.91 905 805.36 877.12 805.36Zm-28.56-31c3.11 7.56 11 21 27.91 21.85 15.55.5 25.06-13.56 29-21.43a239.72 239.72 0 0 0-27.91-1.89C866.59 772.89 855.15 773.76 848.56 774.36ZM788.51 877.63a4.49 4.49 0 0 1-3-1.14 4.56 4.56 0 0 1-.42-6.45c11.51-13.09 16.79-44.51 10.46-62.26a4.57 4.57 0 0 1 8.61-3.07c7.36 20.63 1.32 56-12.21 71.37A4.53 4.53 0 0 1 788.51 877.63ZM969.33 882.52a4.55 4.55 0 0 1-2.53-.77c-22.86-15.23-22.82-46.32-22.79-69v-2.44a4.57 4.57 0 0 1 9.14 0v2.45c0 21.78-.06 48.89 18.72 61.41a4.57 4.57 0 0 1-2.54 8.37Z"></path>
    <path fill="#571519" d="M790 1345.36h0a4.58 4.58 0 0 1-4.53-4.61c1-104-5.83-423.74-7.4-449.69-.68-11.14.12-26.93 14.79-35.41a4.57 4.57 0 1 1 4.58 7.91c-8 4.66-11.12 12.71-10.25 26.94 1.58 26 8.38 346.26 7.42 450.33A4.57 4.57 0 0 1 790 1345.36ZM979.76 1345.56a4.56 4.56 0 0 1-4.55-4.29c-.9-14.77-.75-92.83-.57-183.23.22-113.57.48-242.29-1.46-258.43-.17-1.44-.33-2.89-.48-4.33-1.62-15-3.22-24.32-15.17-27.51a4.57 4.57 0 1 1 2.36-8.83c18.61 5 20.36 21.12 21.89 35.36.16 1.4.31 2.82.48 4.22 2 16.69 1.74 145.71 1.52 259.54-.17 86.48-.33 168.18.55 182.65a4.57 4.57 0 0 1-4.29 4.84Z"></path>
    <path fill="#571519" d="M787.53,1194a4.57,4.57,0,0,1-4.11-2.58c-24.84-51.15-55.74-166.27-54.21-201.94.31-7,8.32-15.12,18.15-23.61-.34.11-.67.21-1,.29-11.22,3.32-20.08,5.94-22.29-1-4.77-14.9,6.6-55,14.89-76.79l1.71-4.55c4-10.85,6.7-18,13.54-20.7a152.85,152.85,0,0,0,21.24-10.41c7.53-4.26,13.45-7.58,21.41-7.41a4.58,4.58,0,0,1,4.45,4.69,4.66,4.66,0,0,1-4.7,4.44c-5.42-.15-9.63,2.26-16.65,6.24a163.4,163.4,0,0,1-22.41,11c-3,1.19-5.25,7.14-8.32,15.38l-1.73,4.61c-9,23.76-17,56.4-15.19,68.7a101.39,101.39,0,0,0,11.46-2.93c10.75-3.17,17.85-5.27,21.21-.69,2.85,3.89,0,6.29-7,12.09-5.33,4.46-19.5,16.3-19.71,21.08-1.46,33.91,29.42,148.38,53.3,197.55a4.58,4.58,0,0,1-4.11,6.57Z"></path>
    <path fill="#571519" d="M582.72,1119.27a4.65,4.65,0,0,1-1.46-.24,4.57,4.57,0,0,1-2.87-5.79c7.88-23.38,10-51.67,12.16-81.61,4.15-56.49,8.44-114.9,52.77-147.9,19.13-14.25,40.91-14.08,62-13.92,16.82.13,32.71.26,46.74-6.7a4.57,4.57,0,0,1,4.06,8.19c-16,7.93-33.72,7.79-50.87,7.66-20.47-.16-39.78-.32-56.45,12.1-41,30.51-45.11,86.8-49.11,141.24-2.25,30.54-4.36,59.38-12.62,83.86A4.56,4.56,0,0,1,582.72,1119.27Z"></path>
    <path fill="#571519" d="M663.93 1347h0a4.57 4.57 0 0 1-4.55-4.59c.18-50.42-1.84-205.9-3.58-235.46-.24-4-.4-8.43-.57-13.15-.94-25.75-2.24-61-18.35-77.23a4.57 4.57 0 0 1 6.48-6.45c18.64 18.76 20 56.09 21 83.35.17 4.64.33 9 .56 13 1.86 31.46 3.76 190.6 3.6 236A4.57 4.57 0 0 1 663.93 1347ZM509.85 1191.44a15.48 15.48 0 0 1-6.71-1.49c-8.31-3.93-11.75-14.46-9.44-28.89a4.57 4.57 0 1 1 9 1.44c-1.57 9.83.09 17.18 4.34 19.19 4.44 2.1 11.71-1.48 18.5-9.15 14.34-16.16 20.3-44.85 23.53-65 1.59-9.91 1.61-24.26-.52-27.39a4.64 4.64 0 0 1-5.4-3.08 4.52 4.52 0 0 1 2.93-5.71 8.29 8.29 0 0 1 8.18 1.55c8.34 7.2 4 34.9 3.84 36.08-3.42 21.3-9.8 51.7-25.72 69.65C525 1187 517 1191.44 509.85 1191.44Z"></path>
    <path fill="#571519" d="M646.76 1204.34a4.58 4.58 0 0 1-4.57-4.55c0-6.72-6.06-15-10.45-21l-1-1.35c-9.47-13.09-21.72-25.59-33.57-37.68-6-6.16-12.28-12.53-18-18.83-9.88-10.88-18.52-25.22-25.84-37.81a23.1 23.1 0 0 0-4.34-5.4 4.59 4.59 0 0 1-5.37 0 4.49 4.49 0 0 1-1-6.24 7.23 7.23 0 0 1 6.42-3.26c5.91.28 10.85 8 12.23 10.34 7.09 12.19 15.43 26 24.71 36.27 5.6 6.17 11.78 12.47 17.76 18.57 12.08 12.33 24.57 25.08 34.45 38.72l1 1.33c5.13 7 12.15 16.68 12.21 26.35a4.58 4.58 0 0 1-4.54 4.6ZM612.32 1318.28a30.16 30.16 0 0 1-11.9-2.28c-32.37-13.83-74.49-83.08-94.73-116.37-4.23-7-7.57-12.45-9.15-14.63a4.57 4.57 0 1 1 7.4-5.36c1.79 2.48 5.05 7.83 9.56 15.25 18.2 29.93 60.84 100 90.51 112.71 7.32 3.13 18.17 1.42 29-4.57 13.72-7.56 23.75-19.79 25.57-31.15a4.57 4.57 0 1 1 9 1.45c-2.28 14.25-13.84 28.7-30.17 37.71C628.77 1315.83 620.08 1318.28 612.32 1318.28Z"></path>
    <path fill="#571519" d="M516.34 1188.74a4.57 4.57 0 0 1-3.63-1.78c-12.47-16.26-20-27.14-26.69-38.79-1.33-2.29-3.78-10.57-1.44-15.65a7 7 0 0 1 5.19-4.16 4.68 4.68 0 0 1 3.5.77c1.64 1.18 1.81 2.4 2.18 5.1.17 1.25.58 4.28.89 5.72 1.25.35 5.37-.77 7.83-2.46 6.71-4.63 17.63-18.31 31.58-57.17.55-1.52 1.12-3.89 1.54-5.63.75-3.11 1.09-4.52 3.07-5.53a4.7 4.7 0 0 1 3.83-.16c3.49 1.5 5.59 5.48 8 10.1 1.12 2.12 2.66 5 3.56 5.83a4.57 4.57 0 0 1-6.07 6.84c-2.08-1.84-3.71-4.89-5.43-8.13-11.83 32.9-23.58 53.55-34.91 61.37a24.2 24.2 0 0 1-12.18 4c5.76 9.39 12.54 19 22.78 32.33a4.56 4.56 0 0 1-3.62 7.35Zm-19.85-48.21ZM518.15 1069.71a4.51 4.51 0 0 1-1.35-.2 4.57 4.57 0 0 1-3-5.71c2.18-7.09 7.56-12.76 12.77-18.24 4.47-4.72 9.1-9.6 11.24-15 3.88-9.83 5.24-20.08 6.69-30.93 1.4-10.57 2.86-21.5 6.83-32.14 1.82-4.88 6.67-9.88 11.81-15.18C568.55 946.68 576 939 575 935a2.15 2.15 0 0 0-1.64-1.81c-6.08-2-21.59 5.4-25.52 8.78-6.07 5.2-9.35 11.91-12.83 19-2.8 5.73-5.7 11.66-10.19 16.95a152.9 152.9 0 0 1-15.39 15.13c-12.07 10.77-22.5 20.07-23.76 38.64a4.57 4.57 0 1 1-9.11-.61c1.5-22.29 14.36-33.76 26.79-44.85A147 147 0 0 0 517.85 972c3.75-4.42 6.28-9.59 8.95-15 3.73-7.63 7.58-15.52 15.08-22 4.26-3.64 23.26-14 34.26-10.55a11.29 11.29 0 0 1 7.74 8.33c2.2 8.94-6.14 17.54-14.2 25.85-4.26 4.39-8.66 8.93-9.81 12-3.61 9.67-4.93 19.62-6.34 30.15-1.45 10.92-2.95 22.21-7.24 33.08-2.79 7.08-8 12.61-13.12 18-4.68 4.94-9.11 9.6-10.66 14.64A4.56 4.56 0 0 1 518.15 1069.71ZM463.89 1090.6a36.2 36.2 0 0 1-21.81-7c-10.25-7.81-15.74-18.95-21-29.73-4.21-8.54-8.18-16.6-14.29-22.81-8.2-8.32-18.41-14.53-29.22-21.1-8.7-5.29-17.7-10.76-25.57-17.45-7-6-22.82-21.25-18.46-34.59a8.57 8.57 0 0 1 5.17-5.57c5.51-2 12.18 1.57 19.09 5.77.94.57 1.73 1 2.28 1.34 6.1 3.1 12.15 6.82 18 10.42 11.87 7.3 24.14 14.85 37.29 17.58a4.57 4.57 0 0 1-1.86 8.95c-14.72-3.06-27.68-11-40.22-18.74-6-3.67-11.59-7.13-17.36-10.07-.69-.35-1.69-1-2.88-1.67-5.57-3.39-9.39-5-10.84-5-1.75 6.38 6.58 16.89 15.71 24.66 7.32 6.22 16 11.5 24.39 16.6 10.82 6.57 22 13.36 31 22.5 7.14 7.25 11.63 16.37 16 25.19 5.06 10.27 9.84 20 18.38 26.49s21.86 6.89 30.67 1.12a4.57 4.57 0 0 1 5 7.64A35.48 35.48 0 0 1 463.89 1090.6Z"></path>
    <path fill="#571519" d="M413.89,995.08a4.56,4.56,0,0,1-4-2.39c-5.12-9.45-11.43-18.68-17.52-27.61-9.58-14-19.48-28.5-25.63-44.85l-.62-1.65c-3.54-9.23-9.47-24.68-1.14-33.17a8.07,8.07,0,0,1,6.46-2.4c5.43.45,11.82,6.16,20.12,18,3.14,4.44,6.72,10.3,10.87,17.08,10,16.42,23.78,38.89,36.41,49.38a4.57,4.57,0,1,1-5.84,7c-13.8-11.45-27.42-33.73-38.37-51.63-4.06-6.65-7.57-12.39-10.36-16.34-7.89-11.23-11.91-13.71-13.15-14.24-3.49,4.72,1.4,17.49,3.53,23l.65,1.7c5.76,15.32,15.35,29.35,24.61,42.92,6.23,9.11,12.67,18.54,18,28.4a4.57,4.57,0,0,1-4,6.75Z"></path>
    <path fill="#571519" d="M435.62,975.58a4.58,4.58,0,0,1-4.51-3.87c-.78-5.07-8.71-19.45-16.38-33.36-10.51-19.07-22.43-40.67-27.88-57.71-.08-.25-7-25.81,1.21-34.18,1.43-1.46,4.59-3.68,9.68-2.17,9.48,2.82,15.43,17.46,19.77,28.16.86,2.1,1.61,3.95,2.24,5.31,14.94,31.93,29.19,54.77,43.59,69.85a4.57,4.57,0,0,1-6.61,6.31c-15.09-15.8-29.89-39.45-45.25-72.28-.69-1.48-1.51-3.48-2.43-5.75-2.81-6.91-8.64-21.28-13.91-22.84a2,2,0,0,0-.73-.12c-2.45,2.19-.8,18.89,1.14,24.92,5.19,16.19,16.87,37.39,27.19,56.09,10.15,18.41,16.43,30,17.41,36.37a4.58,4.58,0,0,1-3.82,5.22A5.78,5.78,0,0,1,435.62,975.58Z"></path>
    <path fill="#571519" d="M509.93 987.66a4.56 4.56 0 0 1-4.49-3.77c-.46-2.58-5.82-13.47-11-24-10.76-21.87-25.5-51.83-32.73-76.61l-.56-1.95c-3.69-12.71-9.27-31.92-17.15-33.68-1.89 1.87-1.36 15.1 2.59 30.74.9 3.55 3.12 11 5.7 19.73 5.26 17.69 12.46 41.92 14.43 53.15a4.57 4.57 0 0 1-9 1.59c-1.88-10.72-9-34.66-14.19-52.14-2.71-9.14-4.86-16.36-5.8-20.09-2.4-9.48-7.21-32.32-.17-39.57a8.66 8.66 0 0 1 8.42-2.33c13.17 2.93 19.14 23.51 23.94 40l.57 1.94c7 24 21.54 53.56 32.15 75.13 7.51 15.27 11.15 22.76 11.8 26.46a4.56 4.56 0 0 1-3.71 5.29A4.33 4.33 0 0 1 509.93 987.66ZM540.83 1077.77a4.58 4.58 0 0 1-4-2.28c-1.9-3.28-3.9-6.55-5.9-9.83s-4.11-6.7-6.07-10.1a4.57 4.57 0 1 1 7.9-4.58c1.93 3.33 4 6.63 6 9.91s4.08 6.67 6 10a4.57 4.57 0 0 1-3.95 6.86ZM497.29 1146.41c-3.31 0-5-2.81-26.9-42.61l-6.74-12.22a4.57 4.57 0 1 1 8-4.42l6.75 12.24c8.23 14.94 19.41 35.25 22.11 38.74a4.56 4.56 0 0 1-2.42 8.24ZM979.83 1194a4.58 4.58 0 0 1-4.11-6.57c23.87-49.17 54.75-163.64 53.29-197.55-.2-4.78-14.37-16.62-19.7-21.08-6.94-5.8-9.81-8.2-6.95-12.09 3.35-4.59 10.46-2.49 21.21.69a101.25 101.25 0 0 0 11.45 2.93c1.84-12.31-6.14-44.94-15.18-68.69l-1.73-4.62c-3.07-8.24-5.28-14.19-8.32-15.38-4.68-1.83-9.46-3.78-14.2-5.71-16.88-6.88-34.33-13.8-42.62-13.77a4.57 4.57 0 1 1-.25-9.13c10.32-.41 27.75 6.87 46.32 14.44 4.7 1.91 9.44 3.84 14.08 5.66 6.85 2.69 9.52 9.85 13.55 20.7l1.71 4.56c8.29 21.77 19.66 61.88 14.88 76.78-2.21 6.93-11.08 4.31-22.28 1-.31-.08-.64-.18-1-.29 9.83 8.49 17.84 16.6 18.14 23.61 1.54 35.67-29.36 150.79-54.2 201.94A4.57 4.57 0 0 1 979.83 1194Z"></path>
    <path fill="#571519" d="M1168.8,1119.27a4.56,4.56,0,0,1-4.33-3.11c-8.25-24.48-10.37-53.32-12.62-83.85-4-54.45-8.13-110.74-49.11-141.25-16.67-12.42-36-12.25-56.45-12.1a233.82,233.82,0,0,1-24.95-.71,4.57,4.57,0,1,1,.92-9.09,223.81,223.81,0,0,0,24,.65c21-.16,42.85-.33,62,13.92,44.33,33,48.62,91.42,52.77,147.91,2.2,29.94,4.28,58.22,12.16,81.6a4.57,4.57,0,0,1-2.87,5.79A4.7,4.7,0,0,1,1168.8,1119.27Z"></path>
    <path fill="#571519" d="M1087.59 1347a4.57 4.57 0 0 1-4.57-4.56c-.15-45.54 1.75-204.74 3.6-236 .23-3.94.39-8.29.56-12.92 1-27.27 2.36-64.61 21-83.38a4.57 4.57 0 1 1 6.48 6.45c-16.11 16.23-17.4 51.5-18.34 77.26-.18 4.7-.34 9.13-.58 13.12-1.84 31.16-3.73 190-3.58 235.46a4.57 4.57 0 0 1-4.55 4.59ZM1241.68 1191.44c-7.13 0-15.15-4.48-22.56-12.83-15.92-17.94-22.3-48.35-25.71-69.65-.19-1.18-4.51-28.88 3.84-36.08a8.28 8.28 0 0 1 8.18-1.55 4.57 4.57 0 0 1-2.48 8.79c-2.12 3.13-2.1 17.48-.52 27.39 3.24 20.18 9.19 48.87 23.53 65 6.8 7.67 14.07 11.27 18.51 9.15 4.24-2 5.91-9.36 4.33-19.19a4.57 4.57 0 0 1 9-1.44c2.31 14.43-1.14 25-9.45 28.89A15.43 15.43 0 0 1 1241.68 1191.44Z"></path>
    <path fill="#571519" d="M1104.76 1204.34h0a4.58 4.58 0 0 1-4.54-4.6c.06-9.66 7.07-19.29 12.19-26.32l1-1.36c9.86-13.64 22.36-26.38 34.44-38.71 6-6.1 12.16-12.41 17.76-18.58 9.3-10.24 17.64-24.09 24.72-36.26 1.37-2.36 6.3-10.07 12.23-10.35a7.15 7.15 0 0 1 6.41 3.26 4.57 4.57 0 0 1-6.45 6.32 23 23 0 0 0-4.29 5.36c-7.32 12.58-16 26.91-25.85 37.81-5.72 6.3-12 12.67-18 18.84-11.85 12.09-24.1 24.59-33.57 37.67l-1 1.38c-4.39 6-10.4 14.28-10.44 21A4.57 4.57 0 0 1 1104.76 1204.34Zm100.46-130.26-3.72 2.66h0ZM1139.21 1318.28c-7.77 0-16.45-2.45-25.14-7.24-16.33-9-27.88-23.46-30.17-37.71a4.57 4.57 0 0 1 9-1.45c1.82 11.36 11.85 23.59 25.56 31.15 10.84 6 21.7 7.7 29 4.57 29.66-12.68 72.29-82.76 90.49-112.69 4.52-7.42 7.78-12.79 9.57-15.27A4.57 4.57 0 0 1 1255 1185c-1.58 2.18-4.93 7.69-9.17 14.66-20.24 33.28-62.35 102.51-94.71 116.34A30.16 30.16 0 0 1 1139.21 1318.28Z"></path>
    <path fill="#571519" d="M1235.19 1188.74a4.53 4.53 0 0 1-2.78-.94 4.58 4.58 0 0 1-.85-6.41c10.24-13.34 17-22.94 22.78-32.33a24.2 24.2 0 0 1-12.18-4c-11.48-7.93-22.91-28-34.91-61.37-1.71 3.24-3.35 6.29-5.43 8.13a4.57 4.57 0 1 1-6.06-6.84c.89-.79 2.43-3.71 3.55-5.84 2.44-4.61 4.53-8.59 8-10.06a4.64 4.64 0 0 1 3.89.13c2 1 2.32 2.42 3.07 5.51.42 1.74 1 4.12 1.54 5.65 14 38.87 24.88 52.54 31.58 57.17 2.42 1.67 6.43 2.75 7.84 2.4.31-1.46.71-4.41.88-5.64.37-2.7.54-3.94 2.18-5.11a4.59 4.59 0 0 1 3.5-.78 7.07 7.07 0 0 1 5.2 4.16c2.33 5.07-.12 13.36-1.45 15.66-6.72 11.64-14.21 22.51-26.68 38.78A4.57 4.57 0 0 1 1235.19 1188.74Zm19.84-48.21ZM1233.38 1069.71a4.57 4.57 0 0 1-4.37-3.22c-1.55-5-6-9.7-10.66-14.64-5.08-5.35-10.33-10.89-13.12-18-4.29-10.86-5.79-22.15-7.24-33.07-1.4-10.53-2.73-20.48-6.34-30.16-1.15-3.08-5.55-7.62-9.81-12-8.06-8.31-16.39-16.91-14.19-25.85a11.28 11.28 0 0 1 7.73-8.33c11-3.52 30 6.91 34.26 10.55 7.5 6.43 11.36 14.31 15.08 21.94 2.67 5.47 5.2 10.64 9 15.06a146 146 0 0 0 14.51 14.22c12.43 11.09 25.28 22.56 26.78 44.85a4.57 4.57 0 1 1-9.11.61c-1.26-18.57-11.69-27.87-23.76-38.64a154 154 0 0 1-15.39-15.13c-4.49-5.29-7.39-11.22-10.19-17-3.47-7.1-6.75-13.81-12.82-19-3.94-3.38-19.45-10.74-25.52-8.78a2.16 2.16 0 0 0-1.65 1.81c-1 4 6.45 11.7 11.88 17.3 5.14 5.3 10 10.3 11.81 15.18 4 10.64 5.43 21.57 6.84 32.15 1.44 10.85 2.81 21.09 6.68 30.92 2.14 5.43 6.77 10.31 11.25 15 5.2 5.48 10.58 11.15 12.76 18.24a4.55 4.55 0 0 1-3 5.71A4.49 4.49 0 0 1 1233.38 1069.71ZM1287.63 1090.6a35.48 35.48 0 0 1-19.41-5.52 4.57 4.57 0 0 1 5-7.64c8.79 5.77 22.26 5.28 30.66-1.12s13.33-16.22 18.39-26.5c4.34-8.81 8.83-17.93 16-25.18 9-9.14 20.18-15.93 31-22.51 8.39-5.1 17.07-10.37 24.39-16.59 9.21-7.83 17.6-18.45 15.74-24.66-1.76 0-5.27 1.64-10.87 5-1.19.72-2.18 1.31-2.87 1.67-5.78 2.94-11.41 6.4-17.37 10.07-12.54 7.71-25.5 15.68-40.21 18.74a4.57 4.57 0 1 1-1.86-8.95c13.14-2.73 25.41-10.28 37.28-17.57 5.86-3.61 11.91-7.32 18-10.43.54-.29 1.33-.77 2.27-1.34 6.92-4.21 13.59-7.79 19.09-5.77a8.54 8.54 0 0 1 5.17 5.57c4.37 13.35-11.46 28.63-18.46 34.59-7.87 6.69-16.87 12.16-25.56 17.44-10.82 6.58-21 12.79-29.23 21.11-6.1 6.21-10.08 14.27-14.28 22.81-5.31 10.78-10.8 21.92-21 29.73A36.2 36.2 0 0 1 1287.63 1090.6Z"></path>
    <path fill="#571519" d="M1337.63,995.08a4.56,4.56,0,0,1-4-6.74c5.34-9.87,11.78-19.3,18-28.42,9.27-13.56,18.85-27.59,24.62-42.91l.64-1.69c2.13-5.56,7-18.32,3.54-23.05-1.24.52-5.24,3-13,14-3,4.19-6.47,9.93-10.54,16.58-11,17.9-24.57,40.18-38.37,51.63a4.57,4.57,0,1,1-5.83-7c12.62-10.48,26.37-33,36.4-49.37,4.15-6.78,7.74-12.65,10.7-16.84,8.45-12,14.85-17.78,20.29-18.22a8,8,0,0,1,6.46,2.39c8.33,8.5,2.4,24-1.14,33.18l-.62,1.64c-6.15,16.35-16,30.84-25.62,44.85-6.1,8.92-12.41,18.15-17.53,27.61A4.54,4.54,0,0,1,1337.63,995.08Z"></path>
    <path fill="#571519" d="M1315.9,975.58a5.62,5.62,0,0,1-.7-.05,4.57,4.57,0,0,1-3.82-5.22c1-6.34,7.25-18,17.41-36.38,10.31-18.7,22-39.89,27.19-56.08,1.91-6,3.56-22.49,1-25,0,0-.24,0-.59.15-5.27,1.56-11.11,15.93-13.91,22.83-.93,2.28-1.74,4.28-2.43,5.76-15.36,32.83-30.16,56.47-45.26,72.28a4.57,4.57,0,0,1-6.61-6.31c14.4-15.08,28.66-37.93,43.59-69.85.63-1.36,1.38-3.21,2.24-5.32,4.34-10.69,10.29-25.34,19.78-28.15,5.08-1.53,8.24.7,9.68,2.17,8.18,8.35,1.29,33.93,1.21,34.18-5.46,17-17.37,38.64-27.88,57.7-7.68,13.91-15.61,28.3-16.39,33.37A4.57,4.57,0,0,1,1315.9,975.58Z"></path>
    <path fill="#571519" d="M1241.59 987.66a4.33 4.33 0 0 1-.8-.07 4.56 4.56 0 0 1-3.71-5.29c.65-3.7 4.29-11.19 11.8-26.46 10.61-21.57 25.15-51.11 32.15-75.13l.57-1.94c4.8-16.54 10.78-37.12 23.94-40A8.71 8.71 0 0 1 1314 841c6.79 7 2.81 27.8-.16 39.58-1 3.73-3.09 10.94-5.8 20.08-5.2 17.48-12.31 41.43-14.2 52.15a4.57 4.57 0 0 1-9-1.59c2-11.23 9.18-35.47 14.44-53.17 2.57-8.67 4.8-16.16 5.69-19.71 4-15.64 4.48-28.87 2.48-31-7.76 2-13.34 21.19-17 33.9l-.57 1.95c-7.22 24.78-22 54.74-32.73 76.61-5.18 10.54-10.54 21.43-11 24A4.55 4.55 0 0 1 1241.59 987.66ZM1210.69 1077.77a4.57 4.57 0 0 1-4-6.86c1.93-3.32 4-6.63 6-9.94s4.06-6.63 6-10a4.57 4.57 0 0 1 7.91 4.58c-2 3.43-4.05 6.81-6.12 10.18s-4 6.49-5.86 9.75A4.59 4.59 0 0 1 1210.69 1077.77ZM1254.24 1146.41l-.8 0a4.57 4.57 0 0 1-2.42-8.24c2.73-3.53 14.39-24.72 22.18-38.88l6.68-12.1a4.57 4.57 0 1 1 8 4.42l-6.66 12.09C1259.24 1143.59 1257.55 1146.41 1254.24 1146.41ZM857.43 587.31a4.57 4.57 0 0 1-4.09-2.53C842.71 563.52 817.45 556 799 556a4.57 4.57 0 1 1 0-9.14c21 0 50 8.86 62.47 33.85a4.58 4.58 0 0 1-4.08 6.62ZM766.29 629.07a4.57 4.57 0 0 1-3.23-7.8 178.06 178.06 0 0 1 31.21-24.86c1-.61 2.36-1 6.16-2.19 1.29-.39 3.18-1 5-1.56a91.69 91.69 0 0 0-10.55-2.61c-2.25-.45-5.65-1.13-5.65-4.94 0-5 5.58-5.82 12-6.76l.77-.12c12.43-2.16 25.32-3.69 35.46-.31a4.57 4.57 0 0 1-2.89 8.68c-6.27-2.1-14.69-1.69-21.82-.79 3.19 1.63 5.21 3.63 5.87 6.26 1.44 5.75-5.34 7.8-15.59 10.9-1.68.5-3.76 1.13-4.28 1.36a168.94 168.94 0 0 0-29.28 23.41A4.55 4.55 0 0 1 766.29 629.07Z"></path>
    <path fill="#571519" d="M732.78,668.52a39.49,39.49,0,0,1-4.22-.23c-11.68-1.28-21.36-7.84-28.78-19.5a4.57,4.57,0,1,1,7.71-4.9c5.94,9.33,13.15,14.34,22.06,15.31,23.05,2.53,51.36-23,62.46-34.13a4.57,4.57,0,1,1,6.47,6.46C784.33,645.68,757.64,668.52,732.78,668.52Z"></path>
    <path fill="#571519" d="M719.14 654.09a30.54 30.54 0 0 1-3.6-.2 23.13 23.13 0 0 1-18.84-13.1 4.57 4.57 0 0 1 8.18-4.09 14 14 0 0 0 11.72 8.11c11 1.25 25.67-6.21 31.94-13.73a4.57 4.57 0 1 1 7 5.85C748.3 645.64 732.9 654.09 719.14 654.09ZM886.4 588a4.86 4.86 0 0 1-3.23-1.24c-2.72-2.46-1.52-5.71.13-9.47a37.21 37.21 0 0 0-5.65 8 4.57 4.57 0 1 1-8.17-4.08c5.47-10.95 18.39-22 29.41-25.14a5.15 5.15 0 0 1 5.75 2.27c1.82 3.5-1 5.81-3.29 7.66a22.4 22.4 0 0 0-2 1.75 40.12 40.12 0 0 0-3.88 5.18c13.44-7.77 26.93-13.82 46.51-7.31a4.57 4.57 0 0 1-2.89 8.68c-17.95-6-29.34.76-43.77 9.31-2 1.19-4 2.41-6.16 3.61A5.54 5.54 0 0 1 886.4 588Z"></path>
    <path fill="#571519" d="M972.54 608.28a110.55 110.55 0 0 1-33.45-5c-3.28-1.06-6.79-3.12-10.51-5.3-9.82-5.75-16.62-9.16-21.41-4.37a4.57 4.57 0 0 1-6.46-6.46c10.14-10.14 23.06-2.58 32.49 2.95 3.27 1.91 6.36 3.73 8.69 4.47 16.09 5.18 35.78 6 52.67 2.27a4.57 4.57 0 1 1 2 8.92A111.19 111.19 0 0 1 972.54 608.28ZM983.21 631.93h-.14c-1.09 0-2.34 0-3.72 0-12-.11-32.13-.28-37-14.94A4.57 4.57 0 0 1 951 614c2.82 8.47 18.85 8.6 28.43 8.69 1.45 0 2.78 0 3.93.06a4.57 4.57 0 0 1-.15 9.14ZM818.84 507.63a4 4 0 0 1-.6 0c-9.06-1.18-16.5-8.11-19.9-18.52-4-12.21-1.44-25.78 6.17-33a4.57 4.57 0 1 1 6.29 6.63c-5.06 4.8-6.65 14.7-3.77 23.54 1.09 3.35 4.49 11.26 12.39 12.28a4.57 4.57 0 0 1-.58 9.11Z"></path>
    <path fill="#571519" d="M796.25,509.14a4.57,4.57,0,0,1-4-2.3c-9.12-15.91-3.6-40.21,11.36-50a4.57,4.57,0,1,1,5,7.65c-10.84,7.09-15.1,26.17-8.43,37.8a4.56,4.56,0,0,1-4,6.84Z"></path>
    <path fill="#571519" d="M749.1 533.48a4.44 4.44 0 0 1-1.55-.27 4.57 4.57 0 0 1-2.74-5.86c7.52-20.72 41-25.62 47.69-26.39a4.57 4.57 0 0 1 1 9.07c-12.69 1.48-35.43 7.44-40.15 20.44A4.57 4.57 0 0 1 749.1 533.48ZM829.25 506.42a4.29 4.29 0 0 1-.94-.1 4.56 4.56 0 0 1-3.54-5.41c6.31-30.16 33.76-50.92 73.42-55.52a4.57 4.57 0 1 1 1.06 9.08c-13.33 1.54-57.44 9.6-65.54 48.31A4.57 4.57 0 0 1 829.25 506.42Z"></path>
    <path fill="#571519" d="M981.28 501a4.56 4.56 0 0 1-2-.46c-4.33-2.1-9.17-4.66-14.36-7.43-26.44-14-62.64-33.28-86.2-17.86a4.78 4.78 0 0 1-6.5-.55c-2.78-3.14-.43-5.93 2.55-9.46 1.07-1.27 2.4-2.84 2.89-3.59C882 455 891.77 447.25 900 446.29a4.57 4.57 0 1 1 1.06 9.08c-3.16.37-7.27 2.82-10.67 5.75 25.57-4.39 55.7 11.61 78.87 23.91 5.08 2.71 9.82 5.22 14.06 7.28a4.57 4.57 0 0 1-2 8.68ZM736.14 595.56c-5 0-10.27-4.35-10.27-16.57a39 39 0 0 1 4-17.4c3.39-6.55 8.56-10.16 14.56-10.16a4.57 4.57 0 0 1 0 9.14c-4.13 0-6.53 4.94-7.59 7.88-2.95 8.18-1.68 16.39-.31 18a4.57 4.57 0 0 1-.36 9.12ZM1013.71 592.65a4.57 4.57 0 0 1-1.86-8.75c8.48-3.77 7.19-13.26 6.59-16.08-1.7-8-8-16.49-16.4-16.49a4.57 4.57 0 1 1 0-9.14c13.33 0 22.83 11.94 25.34 23.73s-2 22-11.82 26.33A4.5 4.5 0 0 1 1013.71 592.65Z"></path>
    <path fill="#571519" d="M739.54 559.11a4.58 4.58 0 0 1-4.57-4.57 129.69 129.69 0 0 1 1-13.81c1.1-10.2 2.13-19.83-2.83-28.68-3.78-6.76-9.19-12.86-14.42-18.76-13.32-15-27.1-30.58-12.24-55.34a4.57 4.57 0 1 1 7.83 4.7c-11.41 19-1.41 30.3 11.25 44.58 5.56 6.26 11.29 12.74 15.56 20.35 6.38 11.39 5.14 22.95 3.94 34.13a119.6 119.6 0 0 0-.93 12.83A4.58 4.58 0 0 1 739.54 559.11ZM691.9 467.23a4.57 4.57 0 0 1-4.24-2.87c-6.17-15.44-18.69-26.68-33.47-30.09-14.12-3.24-28.29.79-39.91 11.35a4.57 4.57 0 0 1-6.15-6.76c13.71-12.46 31.24-17.38 48.11-13.5 17.7 4.08 32.62 17.39 39.91 35.6a4.56 4.56 0 0 1-4.25 6.27ZM566.74 488.82a12.55 12.55 0 0 1-11.47-6.31 4.57 4.57 0 1 1 7.84-4.7c1.73 2.89 5.85 2.51 14.66-1.35 4.56-2 8.63-4.93 12.57-7.77 8.88-6.39 18.06-13 32.95-10a4.57 4.57 0 0 1-1.8 9c-11-2.2-17.52 2.52-25.81 8.48-4.32 3.12-8.8 6.34-14.24 8.72C578.14 486.28 572.34 488.82 566.74 488.82ZM548.5 563a3.88 3.88 0 0 1-.75-.07 4.57 4.57 0 0 1-3.76-5.25c5.16-31 17.47-48.06 34.65-48.06a4.57 4.57 0 0 1 0 9.14C561.58 518.76 555 547 553 559.18A4.58 4.58 0 0 1 548.5 563ZM624.33 656.82a4.56 4.56 0 0 1-4.33-3.13 18.45 18.45 0 0 1 1-14.83c3.81-7.34 12.68-13.14 26.38-17.24 7.86-2.36 15.9-2.86 23.68-3.34 8.55-.54 16.63-1 24.15-3.86 8-3 16.31-11.43 23-18.21l2.59-2.61a4.57 4.57 0 1 1 6.46 6.46l-2.54 2.57c-7.33 7.42-16.44 16.65-26.3 20.35-8.8 3.3-18 3.87-26.79 4.42-7.6.47-14.77.91-21.63 3-10.92 3.27-18.33 7.78-20.89 12.7a9.54 9.54 0 0 0-.39 7.73 4.58 4.58 0 0 1-4.34 6Z"></path>
    <path fill="#571519" d="M624,657.59a11.52,11.52,0,0,1-8.92-4.38c-7.88-9.12-8.94-32.67-7.25-39.77a4.57,4.57,0,1,1,8.89,2.12c-1.34,5.61,0,25.58,5.28,31.67,1.12,1.3,1.84,1.24,2.19,1.21a4.57,4.57,0,0,1,.8,9.1C624.7,657.57,624.37,657.59,624,657.59Z"></path>
    <path fill="#571519" d="M597.83,623a34.41,34.41,0,0,1-7-.76c-14.39-3-28.26-14.15-31.57-25.39a4.57,4.57,0,0,1,8.77-2.58c2.32,7.88,13.85,16.77,24.67,19,5,1,11.89,1.16,16.4-4.23a4.57,4.57,0,1,1,7,5.87C611.63,620.25,605.3,623,597.83,623Z"></path>
    <path fill="#571519" d="M573.2 593.08c-7.14 0-13.45-3.89-17.86-11.05a4.57 4.57 0 0 1 7.78-4.79c2 3.19 5.39 6.9 10.62 6.69 5.63-.29 11.51-5.09 15-12.24a4.57 4.57 0 1 1 8.23 4c-5 10.26-13.7 16.92-22.75 17.38ZM1011.22 552a4.57 4.57 0 0 1-4.57-4.57 119.6 119.6 0 0 0-.93-12.83c-1.2-11.18-2.44-22.74 3.94-34.13 4.26-7.61 10-14.09 15.56-20.35 12.65-14.28 22.66-25.56 11.24-44.58a4.57 4.57 0 0 1 7.84-4.7c14.86 24.76 1.08 40.31-12.25 55.34-5.23 5.9-10.63 12-14.41 18.75-5 8.86-3.93 18.49-2.83 28.69a129.51 129.51 0 0 1 1 13.81A4.58 4.58 0 0 1 1011.22 552ZM1058.85 460.16a4.58 4.58 0 0 1-4.24-6.27c7.29-18.21 22.21-31.52 39.91-35.59 16.86-3.89 34.4 1 48.11 13.49a4.57 4.57 0 0 1-6.15 6.76c-11.63-10.56-25.8-14.59-39.91-11.35-14.79 3.41-27.3 14.65-33.47 30.09A4.58 4.58 0 0 1 1058.85 460.16ZM1184 481.75c-5.6 0-11.4-2.54-14.7-4-5.44-2.38-9.92-5.6-14.25-8.72-8.28-6-14.83-10.67-25.8-8.48a4.57 4.57 0 0 1-1.8-9c14.88-3 24.06 3.63 33 10 3.93 2.83 8 5.77 12.56 7.76 8.82 3.86 12.93 4.23 14.66 1.35a4.57 4.57 0 1 1 7.84 4.7A12.51 12.51 0 0 1 1184 481.75ZM1202.25 555.92a4.57 4.57 0 0 1-4.5-3.82c-2-12.15-8.58-40.41-25.63-40.41a4.57 4.57 0 1 1 0-9.14c17.17 0 29.48 17.06 34.65 48.05a4.58 4.58 0 0 1-3.76 5.26A4.87 4.87 0 0 1 1202.25 555.92ZM1126.42 649.75a4.58 4.58 0 0 1-4.33-6 9.5 9.5 0 0 0-.4-7.73c-2.55-4.92-10-9.43-20.88-12.7-6.86-2-14-2.5-21.63-3-8.85-.55-18-1.12-26.79-4.42-9.86-3.7-19-12.93-26.3-20.35l-2.55-2.57a4.57 4.57 0 0 1 6.46-6.46l2.59 2.61c6.7 6.78 15 15.22 23 18.21 7.52 2.82 15.59 3.32 24.15 3.85 7.77.49 15.82 1 23.68 3.35 13.69 4.1 22.57 9.9 26.38 17.24a18.45 18.45 0 0 1 1 14.83A4.58 4.58 0 0 1 1126.42 649.75Z"></path>
    <path fill="#571519" d="M1126.74,650.52c-.35,0-.68,0-1,0a4.57,4.57,0,1,1,.81-9.1c.35,0,1.07.09,2.19-1.21,5.26-6.09,6.61-26.06,5.28-31.67a4.57,4.57,0,1,1,8.89-2.11c1.69,7.1.62,30.65-7.26,39.76A11.53,11.53,0,0,1,1126.74,650.52Z"></path>
    <path fill="#571519" d="M1152.93,615.94c-7.47,0-13.8-2.76-18.24-8.07a4.57,4.57,0,1,1,7-5.87c4.5,5.39,11.41,5.28,16.4,4.23,10.82-2.25,22.35-11.14,24.66-19a4.57,4.57,0,0,1,8.77,2.58c-3.3,11.24-17.17,22.39-31.56,25.39A34.41,34.41,0,0,1,1152.93,615.94Z"></path>
    <path fill="#571519" d="m1177.56 586-1 0c-9-.46-17.77-7.12-22.75-17.38a4.57 4.57 0 0 1 8.23-4c3.47 7.15 9.35 12 15 12.24 5.22.24 8.65-3.49 10.62-6.69a4.57 4.57 0 1 1 7.78 4.8C1191 582.12 1184.7 586 1177.56 586ZM877 913.65A172.32 172.32 0 0 1 851.77 912 199.08 199.08 0 0 1 826 906.39c-13-3.67-25.56-9.23-39.71-17.5l-.89-.5a30.81 30.81 0 0 1-3.21-1.94 4.57 4.57 0 0 1 5.37-7.4 20.51 20.51 0 0 0 2.2 1.31l1.15.64c13.45 7.87 25.4 13.14 37.58 16.59a186.55 186.55 0 0 0 24.64 5.33 170.52 170.52 0 0 0 28.58 1.55C905 904 927.51 898 945.12 887.6l1.06-.62c5.42-3.2 12.85-7.58 14.67-13a4.57 4.57 0 0 1 8.67 2.89c-2.9 8.7-12 14.08-18.69 18l-1.05.62c-18.95 11.22-43.07 17.67-67.94 18.14C880.2 913.64 878.59 913.65 877 913.65ZM2462.6 1345.58h-2182a4.57 4.57 0 0 1 0-9.14h2182a4.57 4.57 0 1 1 0 9.14Z"></path>
  </g>
  <g>
    <path fill="#fff" fill-rule="evenodd" d="M1165.75 1519.07H1696a10.55 10.55 0 0 1 10.55 10.55V1544a10.55 10.55 0 0 1-10.55 10.55H1165.75A10.55 10.55 0 0 1 1155.2 1544v-14.34A10.55 10.55 0 0 1 1165.75 1519.07ZM1180 1517.89l.17-174.91a9.56 9.56 0 0 1 9.56-9.57h0a9.57 9.57 0 0 1 9.57 9.57l-.17 175.29Z"></path>
    <path fill="#fff" fill-rule="evenodd" d="M1274,1315.44l-.06,174.24c0,8-7,14.56-15.64,14.56h0c-8.64,0-15.64-6.52-15.64-14.56l.17-174.18-7.68.56-2.78-7.16,4.14-4.06,42.62-.22,4.78,4.17-2.31,6.49Z" opacity=".5" style="isolation:isolate"></path>
    <path fill="#fff" fill-rule="evenodd" d="M1659.55,1518.41l-.46-174a9.56,9.56,0,0,1,9.57-9.56h0a9.56,9.56,0,0,1,9.56,9.56l.47,174.4Z"></path>
    <path fill="#e95c42" fill-rule="evenodd" d="M1267.8,1372.21l.23,109.92c0,7-4.32,12.6-9.64,12.6h0c-5.33,0-9.65-5.64-9.65-12.6l.08-109.87a50.1,50.1,0,0,0,9.71.89A65.62,65.62,0,0,0,1267.8,1372.21Z" opacity=".8" style="isolation:isolate"></path>
    <path fill="#fff" fill-rule="evenodd" d="M1352.63,1316.36l-.08,174.24c0,8-7,14.56-15.63,14.56h0c-8.64,0-15.64-6.52-15.64-14.56l.18-174.18-7.69.56-2.78-7.16,4.14-4.07,42.62-.21,4.79,4.17-2.32,6.49Z" opacity=".5" style="isolation:isolate"></path>
    <path fill="#9cc96a" fill-rule="evenodd" d="M1347.32,1418l.23,70.45c0,4.46-4.32,8.08-9.64,8.08h0c-5.33,0-9.65-3.62-9.65-8.08l.08-70.42a75.34,75.34,0,0,0,9.71.57C1342.86,1418.57,1347.32,1418,1347.32,1418Z" opacity=".8" style="isolation:isolate"></path>
    <path fill="#fff" fill-rule="evenodd" d="M1438.26,1315.75l-.07,174.24c0,8-7,14.56-15.63,14.56h0c-8.64,0-15.64-6.52-15.64-14.56l.18-174.18-7.69.56-2.78-7.17,4.14-4.06,42.61-.21,4.79,4.17-2.3,6.49Z" opacity=".5" style="isolation:isolate"></path>
    <path fill="#5e82df" fill-rule="evenodd" d="M1432,1347.05l.23,132.76c0,8.41-4.32,15.23-9.64,15.23h0c-5.33,0-9.65-6.82-9.65-15.23l.08-132.71a41.25,41.25,0,0,0,9.71,1.08A57.28,57.28,0,0,0,1432,1347.05Z" opacity=".8" style="isolation:isolate"></path>
    <path fill="#fff" fill-rule="evenodd" d="M1523.29,1315.75l-.07,174.24c0,8-7,14.56-15.64,14.56h0c-8.63,0-15.64-6.52-15.64-14.56l.18-174.18-7.68.56-2.79-7.17,4.15-4.06,42.62-.21,4.78,4.17-2.31,6.49Z" opacity=".5" style="isolation:isolate"></path>
    <path fill="#e95c42" fill-rule="evenodd" d="M1517.07,1394.29l.22,90.38c0,5.73-4.31,10.37-9.64,10.37h0c-5.32,0-9.64-4.64-9.64-10.37l.08-90.35a59.43,59.43,0,0,0,9.71.73A80.9,80.9,0,0,0,1517.07,1394.29Z" opacity=".8" style="isolation:isolate"></path>
    <path fill="#fff" fill-rule="evenodd" d="M1608.31,1315.75l-.06,174.24c0,8-7,14.56-15.64,14.56h0c-8.64,0-15.64-6.52-15.64-14.56l.18-174.18-7.69.56-2.78-7.17,4.14-4.06,42.62-.21,4.78,4.17-2.31,6.49Z" opacity=".5" style="isolation:isolate"></path>
    <path fill="#fac963" fill-rule="evenodd" d="M1602.1,1330.8l.23,147.34c0,9.34-4.33,16.9-9.65,16.9h0c-5.33,0-9.64-7.56-9.64-16.9l.07-147.29a37.63,37.63,0,0,0,9.71,1.2A50.65,50.65,0,0,0,1602.1,1330.8Z" opacity=".8" style="isolation:isolate"></path>
    <path fill="#fff" fill-rule="evenodd" d="M1199.26,1379.93l459.09.56.11,14.26-459,1.22Z"></path>
    <path fill="#571519" d="M1696,1559.08H1165.75a15.13,15.13,0,0,1-15.12-15.12v-14.34a15.13,15.13,0,0,1,15.12-15.12H1696a15.13,15.13,0,0,1,15.12,15.12V1544A15.13,15.13,0,0,1,1696,1559.08Zm-530.29-35.44a6,6,0,0,0-6,6V1544a6,6,0,0,0,6,6H1696a6,6,0,0,0,6-6v-14.34a6,6,0,0,0-6-6Z"></path>
    <path fill="#571519" d="M1199.33 1519.94a4.57 4.57 0 0 1-4.57-4.57V1343a5 5 0 1 0-10 0v172a4.57 4.57 0 0 1-9.14 0V1343a14.14 14.14 0 1 1 28.27 0v172.39A4.58 4.58 0 0 1 1199.33 1519.94ZM1242.68 1382.52a4.56 4.56 0 0 1-4.57-4.57v-59a4.57 4.57 0 0 1 9.14 0v59A4.57 4.57 0 0 1 1242.68 1382.52ZM1258.32 1508.81c-11.15 0-20.21-8.58-20.21-19.13v-91.23a4.57 4.57 0 0 1 9.14 0v91.23c0 5.51 5 10 11.07 10s11.07-4.48 11.07-10V1397a4.57 4.57 0 0 1 9.14 0v92.7C1278.53 1500.23 1269.46 1508.81 1258.32 1508.81ZM1274 1382.31a4.57 4.57 0 0 1-4.57-4.57V1318.9a4.57 4.57 0 1 1 9.14 0v58.84A4.58 4.58 0 0 1 1274 1382.31ZM1678.22 1521.35a4.57 4.57 0 0 1-4.57-4.56v-172.4a5 5 0 0 0-10 0v172a4.57 4.57 0 1 1-9.14 0v-172a14.14 14.14 0 0 1 28.27 0v172.4A4.56 4.56 0 0 1 1678.22 1521.35Z"></path>
    <path fill="#571519" d="M1277.93 1320.86h-39.29a10 10 0 1 1 0-20.07h39.29a10 10 0 1 1 0 20.07Zm-39.29-10.93c-.77 0-1.3.47-1.3.9s.53.89 1.3.89h39.29c.74 0 1.3-.47 1.3-.89s-.56-.9-1.3-.9ZM1322 1382.84a4.57 4.57 0 0 1-4.57-4.57V1319a4.57 4.57 0 1 1 9.14 0v59.3A4.58 4.58 0 0 1 1322 1382.84ZM1337.68 1508.81c-11.15 0-20.21-8.58-20.21-19.13V1398.9a4.57 4.57 0 1 1 9.14 0v90.78c0 5.51 5 10 11.07 10s11.06-4.48 11.06-10v-90.91a4.57 4.57 0 0 1 9.14 0v90.91C1357.88 1500.23 1348.82 1508.81 1337.68 1508.81ZM1353.31 1381.84a4.58 4.58 0 0 1-4.57-4.57V1318.9a4.57 4.57 0 0 1 9.14 0v58.37A4.57 4.57 0 0 1 1353.31 1381.84Z"></path>
    <path fill="#571519" d="M1357.29 1320.86H1318a10 10 0 1 1 0-20.07h39.3a10 10 0 1 1 0 20.07Zm-39.3-10.93c-.76 0-1.29.47-1.29.9s.53.89 1.29.89h39.3c.74 0 1.29-.47 1.29-.89s-.55-.9-1.29-.9ZM1407.06 1382.67a4.58 4.58 0 0 1-4.57-4.57V1319a4.57 4.57 0 0 1 9.14 0v59.13A4.57 4.57 0 0 1 1407.06 1382.67ZM1422.71 1508.81c-11.15 0-20.22-8.58-20.22-19.13v-91.16a4.57 4.57 0 0 1 9.14 0v91.16c0 5.51 5 10 11.08 10s11.06-4.48 11.06-10v-91.16a4.57 4.57 0 0 1 9.14 0v91.16C1442.91 1500.23 1433.85 1508.81 1422.71 1508.81ZM1438.34 1381.85a4.56 4.56 0 0 1-4.57-4.57V1318.9a4.57 4.57 0 1 1 9.14 0v58.38A4.56 4.56 0 0 1 1438.34 1381.85Z"></path>
    <path fill="#571519" d="M1442.32 1320.86H1403a10 10 0 1 1 0-20.07h39.3a10 10 0 1 1 0 20.07Zm-39.3-10.93c-.74 0-1.3.48-1.3.9s.56.89 1.3.89h39.3c.76 0 1.29-.47 1.29-.89s-.53-.9-1.29-.9ZM1492.1 1382.39a4.56 4.56 0 0 1-4.57-4.57V1319a4.57 4.57 0 0 1 9.14 0v58.85A4.57 4.57 0 0 1 1492.1 1382.39ZM1507.73 1508.81c-11.14 0-20.2-8.58-20.2-19.13V1398.6a4.57 4.57 0 0 1 9.14 0v91.08c0 5.51 5 10 11.06 10s11.07-4.48 11.07-10v-91.14a4.57 4.57 0 0 1 9.14 0v91.14C1527.94 1500.23 1518.87 1508.81 1507.73 1508.81ZM1523.37 1382.1a4.56 4.56 0 0 1-4.57-4.57V1318.9a4.57 4.57 0 1 1 9.14 0v58.63A4.57 4.57 0 0 1 1523.37 1382.1Z"></path>
    <path fill="#571519" d="M1527.34 1320.86h-39.29a10 10 0 1 1 0-20.07h39.29a10 10 0 1 1 0 20.07Zm-39.29-10.93c-.74 0-1.3.48-1.3.9s.56.89 1.3.89h39.29c.77 0 1.3-.47 1.3-.89s-.53-.9-1.3-.9ZM1577.12 1381.76a4.57 4.57 0 0 1-4.57-4.57V1319a4.57 4.57 0 0 1 9.14 0v58.22A4.58 4.58 0 0 1 1577.12 1381.76ZM1592.76 1508.81c-11.14 0-20.21-8.58-20.21-19.13v-92a4.57 4.57 0 1 1 9.14 0v92c0 5.51 5 10 11.07 10s11.07-4.48 11.07-10V1398.2a4.57 4.57 0 0 1 9.14 0v91.48C1613 1500.23 1603.91 1508.81 1592.76 1508.81ZM1608.4 1382.86a4.57 4.57 0 0 1-4.57-4.57V1318.9a4.57 4.57 0 1 1 9.14 0v59.39A4.58 4.58 0 0 1 1608.4 1382.86Z"></path>
    <path fill="#571519" d="M1612.37 1320.86h-39.29a10 10 0 1 1 0-20.07h39.29a10 10 0 1 1 0 20.07Zm-39.29-10.93c-.77 0-1.3.47-1.3.9s.53.89 1.3.89h39.29c.76 0 1.3-.47 1.3-.89s-.54-.9-1.3-.9ZM1655.69 1399.67H1203.18a4.57 4.57 0 1 1 0-9.14h452.51a4.57 4.57 0 1 1 0 9.14ZM1656.49 1385.67H1202.88a4.57 4.57 0 1 1 0-9.14h453.61a4.57 4.57 0 1 1 0 9.14Z"></path>
    <path fill="#fff" fill-rule="evenodd" d="M712.84,1560.8c0-6.09,74.19-188,76.74-202.23,1.78-9.92,1.46-63.82,1.46-63.82l-8.64-2.06v-17.44a155.07,155.07,0,0,1,30-3.69,179,179,0,0,1,31.43,2.93l.09,17.58-7.64,2.68s-.63,54.68,1.82,63.46c4.38,15.68,86.14,198.29,86.14,202.59,0,6.88-47.32,12.46-105.69,12.46S712.84,1567.68,712.84,1560.8Z" opacity=".5" style="isolation:isolate"></path>
    <path fill="#5e82df" fill-rule="evenodd" d="M712.54,1560.55c0-4.26,44.24-114.63,44.24-114.63a168.92,168.92,0,0,1,22.31-4c11-1.11,22-1.8,36.17-1.9,12.39-.1,22.75.73,32.69,1.53,13.37,1.07,26.89,3,26.89,3s49,113.53,49,116.53c0,4.81-51.28,11.92-105.31,11.92S712.54,1565.36,712.54,1560.55Z" opacity=".8" style="isolation:isolate"></path>
    <path fill="#571519" d="M818.54 1577.83c-28.41 0-55.14-1.3-75.27-3.68-29.15-3.44-35-7.65-35-13.35 0-3.1 5.78-18.45 34.38-91.2 18.34-46.67 41.16-104.75 42.43-111.84 1.4-7.8 1.48-48.11 1.39-63a4.56 4.56 0 0 1 4.57-4.59h45.23a4.58 4.58 0 0 1 4.57 4.62c-.24 20.89 0 56.24 1.65 62.18 2.25 8.07 27 64.72 48.74 114.7 34.33 78.74 37.57 86.69 37.57 89.12 0 5.7-5.85 9.92-35 13.35C873.68 1576.53 846.94 1577.83 818.54 1577.83Zm-100.73-18.12c7.53 4 44.39 9 100.73 9 56 0 92.72-5 100.58-8.9-3.58-9.5-20.87-49.14-36.26-84.45-23-52.72-46.75-107.22-49.17-115.9-2.2-7.89-2.14-46.13-2-60.12h-36c0 13.39 0 51.49-1.55 60.06-1.34 7.42-17.87 49.78-42.93 113.56C736.82 1509.41 720.71 1550.4 717.81 1559.71ZM813.26 1284c-35.36 0-35.36-4.94-35.36-8.21s0-8.2 35.36-8.2 35.36 4.94 35.36 8.2S848.62 1284 813.26 1284Z"></path>
    <path fill="#571519" d="M813.26 1299.86c-35.36 0-35.36-4.94-35.36-8.21 0-1.39-.35-9.82-.58-15.14a4.57 4.57 0 0 1 9.13-.4c0 1.06.37 8.5.52 12.79 3.83.86 13.1 1.82 26.29 1.82s22.3-.94 26.19-1.8c-.05-4.59-.17-13.29-.17-13.29l9.14-.12s.2 15.21.2 16.14C848.62 1294.92 848.62 1299.86 813.26 1299.86ZM815.79 1457.08c-62.91 0-62.91-6.75-62.91-10.37s0-10.38 62.91-10.38 62.91 6.75 62.91 10.38S878.7 1457.08 815.79 1457.08Zm-35.63-10.38c9.25.73 21.36 1.24 35.63 1.24s26.38-.51 35.62-1.24c-9.24-.72-21.36-1.23-35.62-1.23S789.41 1446 780.16 1446.7Z"></path>
    <path fill="#fff" fill-rule="evenodd" d="M1105.66,1511.07c44.27,10,78.72,49.08,78.72,94.61,0,53.2-45,96.33-100.47,96.33s-100.47-43.13-100.47-96.33c0-46.25,36.59-85.77,81.93-95.08l-.32-121.18-11.71-2.18-.94-13.66a147,147,0,0,1,28.48-3,204.69,204.69,0,0,1,31.46,3.05l-.19,14-10.43,2.06S1103.79,1510.64,1105.66,1511.07Z" opacity=".5" style="isolation:isolate"></path>
    <path fill="#e95c42" fill-rule="evenodd" d="M1184.22,1598.12s.16,3.86.16,7.56c0,53.2-45,96.33-100.47,96.33s-100.47-43.13-100.47-96.33c0-3.91.27-8.5.27-8.5s36.27-3.79,99.33-5.44C1148.22,1590,1184.22,1598.12,1184.22,1598.12Z" opacity=".8" style="isolation:isolate"></path>
    <path fill="#571519" d="M1083.91,1706.58c-57.92,0-105-45.26-105-100.9,0-47.3,34.89-88.8,83-98.67a4.57,4.57,0,0,1,1.84,9c-43.85,9-75.68,46.74-75.68,89.72,0,50.59,43,91.76,95.9,91.76s95.9-41.17,95.9-91.76c0-42.71-30.29-79.43-73.65-89.28a4.57,4.57,0,0,1,2-8.92c47.56,10.81,80.77,51.19,80.77,98.2C1189,1661.32,1141.83,1706.58,1083.91,1706.58Z"></path>
    <path fill="#571519" d="M1104.32 1516.08a4.58 4.58 0 0 1-4.57-4.45l-3.15-120.84a4.57 4.57 0 0 1 9.14-.24l3.15 120.83a4.58 4.58 0 0 1-4.45 4.7ZM1066.24 1514.64a4.56 4.56 0 0 1-4.57-4.52l-1.15-119.4a4.57 4.57 0 0 1 4.53-4.62h0a4.57 4.57 0 0 1 4.57 4.53l1.15 119.4a4.58 4.58 0 0 1-4.53 4.61ZM1082.63 1381.74c-34.36 0-34.36-4-34.36-7.58s0-7.58 34.36-7.58 34.35 4 34.35 7.58S1117 1381.74 1082.63 1381.74Z"></path>
    <path fill="#571519" d="M1082.63 1394.88c-34.36 0-34.36-4-34.36-7.59 0-1.12-.34-8.26-.56-12.49a4.57 4.57 0 1 1 9.13-.47c0 .83.32 6.29.47 9.93 3.89.71 12.78 1.48 25.32 1.48 12.39 0 21.22-.75 25.17-1.45 0-3.93-.15-10.26-.15-10.26l9.13-.15s.2 12.64.2 13.41C1117 1390.85 1117 1394.88 1082.63 1394.88ZM1084.44 1609.73c-26.46 0-51.37-.69-70.12-2-30.18-2-33.18-4.27-33.18-9.27s3-7.23 33.18-9.26c18.74-1.27 43.64-2 70.12-2s51.37.69 70.11 2c30.18 2 33.18 4.27 33.18 9.26s-3 7.23-33.18 9.27C1135.8 1609 1110.9 1609.73 1084.44 1609.73Zm-71.6-11.24c16.64 1.19 41.12 2.1 71.6 2.1s55-.91 71.6-2.1c-16.25-1.17-40.33-2.07-71.6-2.07S1029.08 1597.32 1012.84 1598.49Z"></path>
    <path fill="#fff" fill-rule="evenodd" d="M549.58,1687.94c0-8.9,96.7-274.53,99.65-295.3,2.06-14.49,1.68-93.21,1.68-93.21l-10.32-3.82,0-24.79s19.77-4.89,37.38-5a126.79,126.79,0,0,1,33,4.42l1.75,24.7-9.62,4.54s-.72,79.85,2.11,92.68c5.05,22.9,110.52,289.55,110.52,295.83,0,10-65.67,31.58-133.11,31.58S549.58,1698,549.58,1687.94Z" opacity=".5" style="isolation:isolate"></path>
    <path fill="#fac963" fill-rule="evenodd" d="M549.58,1687.94c0-8.9,57-167.2,57-167.2s6.61-4.1,21-6.52c13.76-2.32,34.9-3,52.62-3.18a336,336,0,0,1,45.49,2.88c16.69,2.24,25.87,5,25.87,5s64.26,162.76,64.26,169c0,10-65.67,31.58-133.11,31.58S549.58,1698,549.58,1687.94Z" opacity=".8" style="isolation:isolate"></path>
    <path fill="#571519" d="M682.68 1724.09c-61.76 0-137.67-19.94-137.67-36.15 0-4.19 10.2-34 43-127.61 24.58-70.19 55.17-157.54 56.7-168.33 2-14 1.64-91.76 1.64-92.54a4.58 4.58 0 0 1 4.57-4.6h52.25a4.58 4.58 0 0 1 4.57 4.61c-.2 22.07-.23 81.55 2 91.65 2.73 12.37 37.67 103.3 65.75 176.37 37.75 98.25 44.88 117.39 44.88 120.45C820.36 1704.15 744.45 1724.09 682.68 1724.09ZM554.25 1687.6c5.33 7.24 61.57 27.35 128.43 27.35 66.6 0 122.66-20 128.37-27.26-2.49-8.61-23.63-63.64-44.11-116.93-29.65-77.16-63.26-164.63-66.14-177.66-2.53-11.5-2.35-71.69-2.25-89.1h-43c0 17.22.07 76.51-1.75 89.28-1.66 11.68-29.86 92.2-57.13 170.07C576.68 1620.29 556.08 1679.11 554.25 1687.6ZM676.58 1281.68c-40.13 0-40.13-7.17-40.13-9.87s0-9.87 40.13-9.87 40.15 7.17 40.15 9.87S716.73 1281.68 676.58 1281.68Zm-17.8-9.87c4.83.44 10.79.73 17.8.73s13-.29 17.81-.73c-4.83-.43-10.8-.73-17.81-.73S663.61 1271.38 658.78 1271.81Z"></path>
    <path fill="#571519" d="M676.58 1304.8c-40.13 0-40.13-7.17-40.13-9.87 0-2.26-.44-15.54-.68-22.25a4.57 4.57 0 0 1 4.41-4.72 4.48 4.48 0 0 1 4.73 4.4c0 .69.5 14.58.64 20.41 3.66 1.21 14.4 2.89 31 2.89s27.28-1.66 31-2.87c-.05-5.84-.22-21.3-.22-21.3l9.14-.1s.24 22.17.24 23.54C716.73 1297.63 716.73 1304.8 676.58 1304.8ZM679.28 1534.29c-50.52 0-76.13-4.51-76.13-13.41s25.61-13.4 76.13-13.4 76.14 4.5 76.14 13.4S729.8 1534.29 679.28 1534.29Zm-61-13.41c10.58 2.18 32.11 4.27 61 4.27s50.42-2.09 61-4.27c-10.57-2.18-32.11-4.26-61-4.26S628.87 1518.7 618.29 1520.88Z"></path>
    <path fill="#fff" fill-rule="evenodd" d="M1775.12,1430.46c38.58,8.75,67.27,42,67.27,81.65,0,46.35-39.18,83.92-87.52,83.92s-87.53-37.57-87.53-83.92c0-40.29,29.62-73.94,69.11-82l2.69-4.27-.82-54.71-10.11-1.77-.9-12.14a169.12,169.12,0,0,1,25.44-2.42,193.76,193.76,0,0,1,26.6,1.87l0,12.78-9.7,1.78,2.37,53S1774.78,1430.37,1775.12,1430.46Z" opacity=".5" style="isolation:isolate"></path>
    <path fill="#9cc96a" fill-rule="evenodd" d="M1841.49,1505.33s.14,3.37.14,6.6c0,46.35-38.9,83.93-86.88,83.93s-86.89-37.58-86.89-83.93c0-3.41.24-7.4.24-7.4s31.36-3.31,85.89-4.74C1810.35,1498.31,1841.49,1505.33,1841.49,1505.33Z" opacity=".8" style="isolation:isolate"></path>
    <path fill="#571519" d="M1754.87,1600.6c-50.78,0-92.09-39.69-92.09-88.49,0-41.48,30.59-77.87,72.75-86.53a4.57,4.57,0,0,1,1.84,9c-37.93,7.8-65.45,40.42-65.45,77.58,0,43.75,37.21,79.35,82.95,79.35s83-35.6,83-79.35c0-36.93-26.19-68.68-63.71-77.2a4.57,4.57,0,0,1,2-8.91c41.7,9.47,70.82,44.88,70.82,86.11C1847,1560.91,1805.65,1600.6,1754.87,1600.6Z"></path>
    <path fill="#571519" d="M1772.64 1434.65a4.56 4.56 0 0 1-4.56-4.36l-2.74-57.1a4.57 4.57 0 0 1 9.13-.44l2.74 57.11a4.57 4.57 0 0 1-4.35 4.78ZM1739.47 1434a4.56 4.56 0 0 1-4.57-4.49l-1-56.43a4.58 4.58 0 0 1 4.49-4.65 4.63 4.63 0 0 1 4.65 4.49l1 56.43a4.57 4.57 0 0 1-4.49 4.65ZM1754.13 1364.93c-30.52 0-30.52-3.66-30.52-7.2s0-7.19 30.52-7.19 30.51 3.66 30.51 7.19S1784.64 1364.93 1754.13 1364.93Z"></path>
    <path fill="#571519" d="M1754.13 1376.36c-30.52 0-30.52-3.65-30.52-7.19 0-1.41-.49-10.84-.49-10.85l9.13-.47s.24 4.78.39 8.18a194.83 194.83 0 0 0 42.82 0c0-3.43-.13-8.43-.13-8.43l9.14-.14s.17 11 .17 11.69C1784.64 1372.71 1784.64 1376.36 1754.13 1376.36ZM1755.32 1516.23c-90.57 0-90.57-6.24-90.57-10.37s0-10.37 90.57-10.37 90.58 6.24 90.58 10.37S1845.9 1516.23 1755.32 1516.23Zm-53.11-10.37c13.5.72 31.31 1.23 53.11 1.23s39.62-.51 53.11-1.23c-13.49-.72-31.3-1.23-53.11-1.23S1715.71 1505.14 1702.21 1505.86Z"></path>
    <path fill="#fff" fill-rule="evenodd" d="M2071.34,1224.44s-1.36,276.14-1.36,279.45c0,6.93-38,12.55-84.94,12.55s-84.93-5.62-84.93-12.55c0-5.73,1.8-180.71-3-241.1-1.08-13.61-33.37-37.13-33.37-37.13l1.83-3.55s21.1-2,51.24-5.21c20.89-2.25,47.57-6.21,68.64-6,28.93.34,55.27,2.44,70.35,6.08C2067.52,1219.83,2071.34,1224.44,2071.34,1224.44Z" opacity=".5" style="isolation:isolate"></path>
    <path fill="#e95c42" fill-rule="evenodd" d="M2070,1503.89c0,6.93-38,12.55-84.94,12.55s-84.93-5.62-84.93-12.55c0-5.73-1.85-216.68-1.85-216.68s20.77-5,86.31-5.54c54.47-.46,85.85,5.08,85.85,5.08S2070,1501.82,2070,1503.89Z" opacity=".8" style="isolation:isolate"></path>
    <path fill="#571519" d="M1985,1241.31c-16.5,0-34.36-2.58-51.64-5.08-8.6-1.24-17.49-2.52-25.89-3.43-9.92-1.06-19.64-1.54-27.44-1.93-16.79-.82-21.3-1-21.47-6.54h0c-.2-6.55,6.25-7.07,33.45-9.25,6-.48,12.6-1,19.33-1.64,7.1-.68,14.33-1.5,21.6-2.33,17.5-2,35.6-4,52.06-4,21,0,89.51,1.24,89.51,17.12S2006,1241.31,1985,1241.31Zm-81-18c1.47.14,2.94.28,4.43.45,8.56.92,17.53,2.21,26.21,3.47,17,2.45,34.5,5,50.34,5,44.38,0,70.44-4.63,78.44-8-8-3.35-34.06-8-78.44-8-15.94,0-33.78,2-51,4-7.32.83-14.61,1.66-21.76,2.34C1909.48,1222.8,1906.74,1223,1904.06,1223.27Z"></path>
    <path fill="#571519" d="M1985,1521c-21,0-89.5-1.23-89.5-17.12l0-4.81c.51-67.51.8-187.93-3-235.93-.63-7.93-18.81-24.54-31.51-33.79a4.57,4.57,0,1,1,5.38-7.39c5.67,4.13,34,25.51,35.24,40.46,3.86,48.34,3.57,169.06,3.06,236.71l0,3.73c4.61,3.34,31.29,9,80.35,9s75.78-5.67,80.37-9c.08-18.22,1.31-267.52,1.36-278.45a4.58,4.58,0,0,1,4.57-4.55h0a4.57,4.57,0,0,1,4.54,4.6c0,2.76-1.36,276.16-1.36,279.42C2074.55,1519.78,2006,1521,1985,1521Z"></path>
    <path fill="#571519" d="M1984.71,1298.19c-88.89,0-88.89-6.24-88.89-10.37s0-10.37,88.89-10.37,88.89,6.24,88.89,10.37S2073.6,1298.19,1984.71,1298.19Zm-52.07-10.37c13.23.72,30.69,1.23,52.07,1.23s38.85-.51,52.07-1.23c-13.22-.72-30.69-1.23-52.07-1.23S1945.87,1287.1,1932.64,1287.82Z"></path>
    <path fill="#fff" fill-rule="evenodd" d="M1937.86,1701.83c0-5.61,78.42-173.19,80.8-186.29,1.67-9.15,1.37-58.8,1.37-58.8l-7.92-2.73-1.12-14.38s8.34-4.92,29.37-4.35c18.44.49,29.32,3.32,29.32,3.32l.13,15.1-7.41,3s-.59,50.37,1.7,58.46c4.11,14.45,89.63,182.68,89.63,186.63,0,6.35-53.25,19.93-107.94,19.93S1937.86,1708.18,1937.86,1701.83Z" opacity=".5" style="isolation:isolate"></path>
    <path fill="#5e82df" fill-rule="evenodd" d="M1937.86,1701.83c0-5.61,45.62-104.35,45.62-104.35s5.18-3.8,16.19-5.46c11.83-1.79,30-1.46,45.34-1.74,13.7-.25,27.78.13,38,1.35a105,105,0,0,1,18.69,3.68s52.06,102.57,52.06,106.52c0,6.35-53.25,19.93-107.94,19.93S1937.86,1708.18,1937.86,1701.83Z" opacity=".8" style="isolation:isolate"></path>
    <path fill="#571519" d="M2045.79 1726.33c-44.42 0-112.5-11-112.5-24.5 0-3 5.24-15.18 35-81.35 19.9-44.2 44.66-99.22 45.86-105.76 1.3-7.16 1.37-44.26 1.29-58a4.56 4.56 0 0 1 4.57-4.59h42.37a4.56 4.56 0 0 1 4.57 4.62c-.22 19.22 0 51.74 1.53 57.17 2.17 7.61 30.46 64.9 53.2 110.94 35.26 71.39 36.6 74.64 36.6 76.93C2158.3 1715.35 2090.22 1726.33 2045.79 1726.33Zm-102.89-25.48c8.59 5.47 54.7 16.34 102.89 16.34 47.91 0 93.77-10.75 102.75-16.24-3.7-8.55-19.61-40.76-35-72-30.09-60.94-51.57-104.69-53.79-112.5-2.06-7.25-2-42-1.92-55.14h-33.17c0 13 0 47.11-1.46 55-1.3 7.11-19.26 47.33-46.51 107.88C1962.26 1656.2 1946.1 1692.1 1942.9 1700.85ZM2040.85 1447.23c-33.41 0-33.41-4.58-33.41-7.92s0-7.91 33.41-7.91 33.41 4.57 33.41 7.91S2074.26 1447.23 2040.85 1447.23Z"></path>
    <path fill="#571519" d="M2040.85 1461.81c-33.41 0-33.41-4.57-33.41-7.92 0-1.27-.33-9-.55-13.93a4.57 4.57 0 0 1 9.13-.41c0 1 .34 7.5.48 11.5 3.69.78 12.27 1.62 24.35 1.62s20.49-.83 24.24-1.6c-.05-4.29-.16-11.93-.16-11.93l9.15-.13s.18 14 .18 14.88C2074.26 1457.24 2074.26 1461.81 2040.85 1461.81ZM2043 1606.59c-62.6 0-62.6-6.6-62.6-10.15s0-10.14 62.6-10.14 62.59 6.6 62.59 10.14S2105.63 1606.59 2043 1606.59Zm-32.93-10.15c8.84.6 20 1 32.93 1s24.08-.41 32.92-1c-8.84-.6-20-1-32.92-1S2019 1595.84 2010.11 1596.44Z"></path>
  </g>
  <g>
    <path fill="#9e9287" fill-rule="evenodd" d="M816.76 1281.19c-10.75.44 7.33-20.12 2.8-30.71-10.86-25.33-48.6-33-17.87-68.12 7.28-8.32 28.33-2.46 30.15-6.7 6.17-14.39-44-48.1-3.35-60.3 17.23-5.17 41.52 30.21 57 17.87 7-5.64-.5-23.1 14.52-20.1 10.06 2 13.78 29 25.68 20.1 8.66-6.5 3.73-44.53 5.58-54.72 7.76-42.67 49-94 97.16-87.1 18.54 2.65 22.4 26.67 23.45 41.32.48 6.77-9 16.33-3.35 20.1 7.79 5.19 13.4-1.48 21.21 8.93 11.27 15-2.16 37-10 49.14-18.75 29-51.76 42-82.64 53.6-13.43 5-31 7.29-40.2 20.1-11.45 16 24.43 34 6.7 45.78-18 12-37.74-3.08-54.72 4.47-5.66 2.51-6.08 10.3-10 12.29-8.08 4-19.44-1.4-27.92 2.22C836.38 1255.56 832 1280.56 816.76 1281.19ZM1080.07 1359.1a55.1 55.1 0 0 1-3.35-26.24c.92-6.74 11.66-1.45 14.52-3.35s-10.34-14.68-11.17-16.76c-3.31-8.27.51-21.31 7.82-26.79 13-9.79 44 10.14 50.25-4.47 4.63-10.82-13.29-24.24-16.75-34.62-6.52-19.57-.47-35.66 10-52.48 22.15-35.44 90.25-21.62 107.2 12.28 4.34 8.68 6.56 22.63 4.47 32.38-.32 1.49-9.54 21.16-7.82 23.45 7.61 10.14 14.87 13 10 29-5.11 17-36.22 18.11-49.13 24.57-7.57 3.79-2.49 13.53-11.17 17.87-21.44 10.72-69.83 5.06-86 21.21-2.22 2.22-1 10.37-2.24 11.17C1089.91 1371 1081.66 1363.34 1080.07 1359.1ZM1754.54 1321c-9.64-9.09-26.94-46.76-12.84-60.86 10.39-10.39 30.47 4.78 33.5-13.4 2.47-14.8-17.6-18.77-14.52-35.73 1.71-9.38 7.19-18.63 15.64-23.45 1.58-.91 12.3-3.32 10-6.71-21.85-32.76-102.29-21.53-82.64-83.74 9.37-29.67 34.65-63.89 67-70.36 8.83-1.76 24.71 3.6 30.16 2.24 2-.5-.13-11.41 0-12.29 1.52-10.63 5.18-17.83 11.16-26.8 21.13-31.7 40.6-31.72 69.24-24.56 10 2.5 17.6-11 30.15-2.24 49.52 34.67-30.68 74.38-20.1 106.09 3 8.94 16.63 8.1 23.45 10 18.29 5.22 30.46 31.37 27.91 49.13-4.66 32.69-43.08 25.65-52.48 49.14-5.22 13 13.6 25.22 1.12 40.2-18.1 21.72-45.72 15-67 30.14-12.35 8.83 9.27 15.3 1.11 23.46-13.81 13.8-34.86 9.84-50.25 20.1C1766.68 1297.1 1760.15 1326.29 1754.54 1321Z" opacity=".5" style="isolation:isolate"></path>
  </g>
</svg>
